<svg height="489pt" viewBox="-83 0 489 489.475" width="489pt" xmlns="http://www.w3.org/2000/svg"><path d="m16.238281 489.476562h229.734375c.398438 0 .792969-.042968 1.183594-.121093 13.347656-1.269531 23.546875-12.472657 23.5625-25.878907v-316.609374c-.015625-14.351563-11.644531-25.980469-26-26h-42.691406v-61.597657h48.210937v4c-.070312 13.234375 6.949219 25.488281 18.398438 32.125s25.574219 6.636719 37.023437 0c11.449219-6.636719 18.46875-18.890625 18.398438-32.125v-33.359375c0-3.3125-2.683594-6-6-6h-57.941406c-5.160157-14.328125-18.746094-23.8906248-33.980469-23.910156-.03125 0-.058594 0-.089844 0-.015625 0-.03125 0-.046875 0h-139.851562c-19.855469.0234375-35.945313 16.113281-35.964844 35.96875v84.898438h-33.945313c-8.832031.011718-15.992187 7.167968-16 16v336.609374c.007813 8.832032 7.167969 15.988282 16 16zm242.480469-342.609374v316.609374c-.003906 4.886719-2.5625 9.417969-6.746094 11.949219v-338.558593c-.003906-.679688-.050781-1.363282-.144531-2.039063 4.265625 2.511719 6.886719 7.089844 6.890625 12.039063zm-56.691406 15.96875h7.980468v47.933593h-7.980468zm110.03125-126.925782v27.359375c.058594 8.9375-4.675782 17.21875-12.40625 21.707031-7.734375 4.484376-17.273438 4.484376-25.003906 0-7.730469-4.488281-12.46875-12.769531-12.410157-21.707031v-27.359375zm-61.820313.195313v11.164062h-48.210937v-11.164062c0-13.3125 10.792968-24.105469 24.105468-24.105469s24.105469 10.792969 24.105469 24.105469zm-188.054687-.136719c.011718-13.230469 10.734375-23.953125 23.964844-23.96875h113.132812c-5.960938 6.613281-9.257812 15.199219-9.253906 24.101562v174.667969h-127.84375zm-19.980469 174.800781v-47.933593h7.980469v47.933593zm-29.964844-73.902343c0-2.207032 1.789063-4 4-4h33.945313v17.96875h-13.980469c-3.3125 0-6 2.683593-6 6v59.933593c0 3.3125 2.6875 6 6 6h179.800781c3.3125 0 6-2.6875 6-6v-59.933593c0-3.316407-2.6875-6-6-6h-13.976562v-17.96875h33.945312c2.210938 0 4 1.792968 4 4v340.609374h-223.734375c-2.210937 0-4-1.792968-4-4zm0 0"/><path d="m103.132812 307.675781h39.953126c3.316406 0 6-2.6875 6-6v-39.957031c0-3.3125-2.683594-6-6-6h-39.953126c-3.316406 0-6 2.6875-6 6v39.957031c0 3.3125 2.683594 6 6 6zm6-39.957031h27.953126v27.957031h-27.953126zm0 0"/><path d="m176.050781 307.675781h39.957031c3.3125 0 6-2.6875 6-6v-39.957031c0-3.3125-2.6875-6-6-6h-39.957031c-3.3125 0-6 2.6875-6 6v39.957031c0 3.3125 2.6875 6 6 6zm6-39.957031h27.957031v27.957031h-27.957031zm0 0"/><path d="m36.203125 377.597656h39.957031c3.3125 0 6-2.6875 6-6v-109.878906c0-3.3125-2.6875-6-6-6h-39.957031c-3.3125 0-6 2.6875-6 6v109.878906c0 3.3125 2.6875 6 6 6zm6-109.878906h27.957031v97.878906h-27.957031zm0 0"/><path d="m103.132812 377.597656h39.953126c3.316406 0 6-2.6875 6-6v-39.957031c0-3.3125-2.683594-6-6-6h-39.953126c-3.316406 0-6 2.6875-6 6v39.957031c0 3.3125 2.683594 6 6 6zm6-39.957031h27.953126v27.957031h-27.953126zm0 0"/><path d="m36.203125 447.519531h39.957031c3.3125 0 6-2.683593 6-6v-39.949219c0-3.316406-2.6875-6-6-6h-39.957031c-3.3125 0-6 2.683594-6 6v39.953126c.003906 3.3125 2.6875 5.996093 6 5.996093zm6-39.953125h27.957031v27.953125h-27.957031zm0 0"/><path d="m159.722656 71.492188h12.441406c3.316407 0 6-2.6875 6-6 0-3.316407-2.683593-6-6-6h-12.441406c-3.3125 0-6 2.683593-6 6 0 3.3125 2.6875 6 6 6zm0 0"/><path d="m78.109375 71.492188h60.121094c3.3125 0 6-2.6875 6-6 0-3.316407-2.6875-6-6-6h-60.121094c-3.3125 0-6 2.683593-6 6 0 3.3125 2.6875 6 6 6zm0 0"/><path d="m172.164062 178.804688h-50.054687c-3.3125 0-6 2.6875-6 6s2.6875 6 6 6h50.054687c3.316407 0 6-2.6875 6-6s-2.683593-6-6-6zm0 0"/><path d="m100.089844 178.804688h-.351563c-3.316406 0-6 2.6875-6 6s2.683594 6 6 6h.351563c3.316406 0 6-2.6875 6-6s-2.683594-6-6-6zm0 0"/><path d="m78.097656 190.804688h.011719c3.316406-.003907 6.003906-2.695313 6-6.011719 0-3.316407-2.6875-6.003907-6.003906-6.003907-3.316407 0-6.007813 2.6875-6.007813 6.003907-.003906 3.316406 2.683594 6.007812 6 6.011719zm0 0"/><path d="m159.722656 41.5h12.441406c3.316407 0 6-2.6875 6-6 0-3.316406-2.683593-6-6-6h-12.441406c-3.3125 0-6 2.683594-6 6 0 3.3125 2.6875 6 6 6zm0 0"/><path d="m78.109375 41.5h60.121094c3.3125 0 6-2.6875 6-6 0-3.316406-2.6875-6-6-6h-60.121094c-3.3125 0-6 2.683594-6 6 0 3.3125 2.6875 6 6 6zm0 0"/><path d="m159.722656 101.484375h12.441406c3.316407 0 6-2.6875 6-6 0-3.316406-2.683593-6-6-6h-12.441406c-3.3125 0-6 2.683594-6 6 0 3.3125 2.6875 6 6 6zm0 0"/><path d="m78.109375 101.484375h60.121094c3.3125 0 6-2.6875 6-6 0-3.316406-2.6875-6-6-6h-60.121094c-3.3125 0-6 2.683594-6 6 0 3.3125 2.6875 6 6 6zm0 0"/><path d="m159.722656 131.476562h12.441406c3.316407 0 6-2.6875 6-6 0-3.316406-2.683593-6-6-6h-12.441406c-3.3125 0-6 2.683594-6 6 0 3.3125 2.6875 6 6 6zm0 0"/><path d="m78.109375 131.476562h60.121094c3.3125 0 6-2.6875 6-6 0-3.316406-2.6875-6-6-6h-60.121094c-3.3125 0-6 2.683594-6 6 0 3.3125 2.6875 6 6 6zm0 0"/><path d="m159.722656 161.46875h12.441406c3.316407 0 6-2.6875 6-6s-2.683593-6-6-6h-12.441406c-3.3125 0-6 2.6875-6 6s2.6875 6 6 6zm0 0"/><path d="m78.109375 161.46875h60.121094c3.3125 0 6-2.6875 6-6s-2.6875-6-6-6h-60.121094c-3.3125 0-6 2.6875-6 6s2.6875 6 6 6zm0 0"/><path d="m176.050781 377.597656h39.957031c3.3125 0 6-2.6875 6-6v-39.957031c0-3.3125-2.6875-6-6-6h-39.957031c-3.3125 0-6 2.6875-6 6v39.957031c0 3.3125 2.6875 6 6 6zm6-39.957031h27.957031v27.957031h-27.957031zm0 0"/><path d="m103.132812 447.519531h112.875c3.3125 0 6-2.683593 6-6v-39.949219c0-3.316406-2.6875-6-6-6h-112.875c-3.316406 0-6 2.683594-6 6v39.953126c0 3.3125 2.6875 5.996093 6 5.996093zm6-39.953125h100.875v27.953125h-100.875zm0 0"/></svg>