<svg height="491pt" viewBox="-85 0 491 491.9649" width="491pt" xmlns="http://www.w3.org/2000/svg"><path d="m75.359375 183.378906h.011719c3.316406-.003906 6.003906-2.695312 6-6.011718 0-3.3125-2.691406-6-6.003906-6-3.316407 0-6.007813 2.6875-6.007813 6 0 3.316406 2.683594 6.007812 6 6.011718zm0 0"/><path d="m25.835938 469.648438h142.800781c28.027343 24.113281 67.746093 29.160156 100.914062 12.824218 33.171875-16.335937 53.378907-50.898437 51.351563-87.816406-2.03125-36.917969-25.910156-69.058594-60.671875-81.65625v-171.980469c-.015625-13.894531-11.277344-25.15625-25.171875-25.171875h-16.121094v.089844c-.671875-.054688-1.34375-.089844-2.027344-.089844h-22.519531v-58.542968h45.710937v3.585937c0 19.675781 15.949219 35.628906 35.625 35.628906 19.679688 0 35.628907-15.953125 35.628907-35.628906v-31.972656c0-3.316407-2.683594-6-6-6h-55.359375c-5.03125-13.75-18.109375-22.902344-32.75-22.917969h-134.171875c-19.167969.0234375-34.699219 15.554688-34.722657 34.722656v81.125h-22.515624c-13.996094.015625-25.335938 11.355469-25.351563 25.351563v303.089843c.011719 14 11.355469 25.34375 25.351563 25.359376zm283.199218-69.910157c0 44.328125-35.933594 80.261719-80.261718 80.261719-44.328126 0-80.261719-35.933594-80.261719-80.261719s35.933593-80.265625 80.261719-80.261719c44.308593.050782 80.210937 35.953126 80.261718 80.261719zm-60.804687-258.71875v168.527344c-1.964844-.425781-3.957031-.785156-5.96875-1.082031v-167.265625c.007812-4.503907-1.199219-8.929688-3.488281-12.8125 5.601562 1.652343 9.449218 6.792969 9.457031 12.632812zm-53.839844 15.550781h7.148437v45.445313h-7.148437zm57.710937-121.652343h47.257813v25.972656c0 13.046875-10.578125 23.628906-23.628906 23.628906-13.046875 0-23.628907-10.582031-23.628907-23.628906zm-12-.0625v10.449219h-45.710937v-10.449219c0-12.625 10.234375-22.855469 22.855469-22.855469s22.855468 10.230469 22.855468 22.855469zm-179.75-.132813c.015626-12.542968 10.179688-22.707031 22.722657-22.722656h107.890625c-5.53125 6.328125-8.578125 14.449219-8.574219 22.855469v167.160156h-122.039063zm-19.148437 167.292969v-45.445313h7.148437v45.445313zm-28.71875-60.816406c.003906-7.371094 5.980469-13.347657 13.351563-13.355469h22.515624v16.722656h-13.148437c-3.3125 0-6 2.6875-6 6v57.445313c0 3.316406 2.6875 6 6 6h172.335937c3.316407 0 6-2.683594 6-6v-57.441407c0-3.3125-2.683593-6-6-6h-13.148437v-16.722656h22.519531c7.367188.011719 13.339844 5.984375 13.347656 13.351563v166.292969c-.5-.007813-.988281-.015626-1.488281-.015626-35.539062-.023437-67.925781 20.382813-83.25 52.449219-15.324219 32.0625-10.855469 70.082031 11.484375 97.722657h-131.167968c-7.371094-.007813-13.347657-5.984376-13.351563-13.355469zm0 0"/><path d="m153.59375 69.019531h11.925781c3.316407 0 6-2.683593 6-6 0-3.3125-2.683593-6-6-6h-11.925781c-3.3125 0-6 2.6875-6 6 0 3.316407 2.6875 6 6 6zm0 0"/><path d="m75.371094 69.019531h57.621094c3.316406 0 6-2.683593 6-6 0-3.3125-2.683594-6-6-6h-57.621094c-3.3125 0-6 2.6875-6 6 0 3.316407 2.6875 6 6 6zm0 0"/><path d="m165.519531 171.378906h-47.976562c-3.316407 0-6 2.683594-6 6 0 3.3125 2.683593 6 6 6h47.976562c3.316407 0 6-2.6875 6-6 0-3.316406-2.683593-6-6-6zm0 0"/><path d="m96.4375 171.378906h-.339844c-3.3125 0-6 2.683594-6 6 0 3.3125 2.6875 6 6 6h.339844c3.3125 0 6-2.6875 6-6 0-3.316406-2.6875-6-6-6zm0 0"/><path d="m153.59375 40.273438h11.925781c3.316407 0 6-2.6875 6-6s-2.683593-6-6-6h-11.925781c-3.3125 0-6 2.6875-6 6s2.6875 6 6 6zm0 0"/><path d="m75.371094 40.273438h57.621094c3.316406 0 6-2.6875 6-6s-2.683594-6-6-6h-57.621094c-3.3125 0-6 2.6875-6 6s2.6875 6 6 6zm0 0"/><path d="m153.59375 97.765625h11.925781c3.316407 0 6-2.683594 6-6 0-3.3125-2.683593-6-6-6h-11.925781c-3.3125 0-6 2.6875-6 6 0 3.316406 2.6875 6 6 6zm0 0"/><path d="m75.371094 97.765625h57.621094c3.316406 0 6-2.683594 6-6 0-3.3125-2.683594-6-6-6h-57.621094c-3.3125 0-6 2.6875-6 6 0 3.316406 2.6875 6 6 6zm0 0"/><path d="m153.59375 126.511719h11.925781c3.316407 0 6-2.683594 6-6 0-3.3125-2.683593-6-6-6h-11.925781c-3.3125 0-6 2.6875-6 6 0 3.316406 2.6875 6 6 6zm0 0"/><path d="m75.371094 126.511719h57.621094c3.316406 0 6-2.683594 6-6 0-3.3125-2.683594-6-6-6h-57.621094c-3.3125 0-6 2.6875-6 6 0 3.316406 2.6875 6 6 6zm0 0"/><path d="m153.59375 155.261719h11.925781c3.316407 0 6-2.6875 6-6 0-3.316407-2.683593-6-6-6h-11.925781c-3.3125 0-6 2.683593-6 6 0 3.3125 2.6875 6 6 6zm0 0"/><path d="m75.371094 155.261719h57.621094c3.316406 0 6-2.6875 6-6 0-3.316407-2.683594-6-6-6h-57.621094c-3.3125 0-6 2.683593-6 6 0 3.3125 2.6875 6 6 6zm0 0"/><path d="m222.773438 337.4375v7.90625c-15.214844 3.082031-25.621094 17.191406-24.070313 32.636719 1.546875 15.445312 14.546875 27.207031 30.070313 27.207031 10.023437.007812 18.152343 8.109375 18.199218 18.128906.050782 10.019532-8.003906 18.199219-18.023437 18.300782-.058594 0-.117188-.007813-.175781-.007813-.058594 0-.113282.007813-.171876.007813-9.988281-.101563-18.035156-8.222657-18.046874-18.210938 0-3.3125-2.6875-6-6-6-3.316407 0-6 2.6875-6 6 .019531 14.371094 10.136718 26.75 24.21875 29.621094v9.011718c0 3.3125 2.6875 6 6 6 3.316406 0 6-2.6875 6-6v-9.011718c15.214843-3.082032 25.617187-17.1875 24.070312-32.632813-1.546875-15.445312-14.546875-27.207031-30.070312-27.207031-10.0625 0-18.21875-8.160156-18.222657-18.222656 0-10.0625 8.160157-18.21875 18.222657-18.222656 10.0625 0 18.222656 8.160156 18.222656 18.222656 0 3.3125 2.683594 6 6 6 3.3125 0 6-2.6875 6-6-.019532-14.371094-10.140625-26.746094-24.222656-29.621094v-7.90625c0-3.3125-2.683594-6-6-6-3.3125 0-6 2.6875-6 6zm0 0"/><path d="m35.203125 449.507812h89.257813c3.3125 0 6-2.6875 6-6v-138.308593h77.078124c3.3125 0 6-2.683594 6-6v-48.097657c0-3.316406-2.6875-6-6-6h-172.335937c-3.3125 0-6 2.683594-6 6v192.40625c0 3.3125 2.6875 6 6 6zm127.039063-156.308593h-31.78125v-36.097657h31.78125zm12-36.097657h27.300781v36.097657h-27.300781zm-55.78125 36.097657h-31.785157v-36.097657h31.785157zm0 12v36.101562h-31.785157v-36.101562zm-77.257813 48.101562h33.472656v36.097657h-33.472656zm45.472656 0h31.785157v36.097657h-31.785157zm-12-12h-33.472656v-36.101562h33.472656zm-33.472656 60.097657h33.472656v36.101562h-33.472656zm45.472656 36.101562v-36.101562h31.785157v36.101562zm-12-180.40625v36.101562h-33.472656v-36.09375zm0 0"/></svg>