<svg height="503pt" viewBox="-71 0 503 503.73667" width="503pt" xmlns="http://www.w3.org/2000/svg"><path d="m169.691406 76.050781h62.9375c3.3125 0 6-2.6875 6-6s-2.6875-6-6-6h-62.9375c-3.316406 0-6 2.6875-6 6s2.683594 6 6 6zm0 0"/><path d="m169.691406 101.472656h62.9375c3.3125 0 6-2.6875 6-6s-2.6875-6-6-6h-62.9375c-3.316406 0-6 2.6875-6 6s2.683594 6 6 6zm0 0"/><path d="m40.109375 245.660156h2.320313c3.316406 0 6-2.6875 6-6 0-3.316406-2.683594-6-6-6h-2.320313c-3.316406 0-6 2.683594-6 6 0 3.3125 2.683594 6 6 6zm0 0"/><path d="m83.183594 233.660156h-17.558594c-3.3125 0-6 2.683594-6 6 0 3.3125 2.6875 6 6 6h17.558594c3.3125 0 6-2.6875 6-6 0-3.316406-2.6875-6-6-6zm0 0"/><path d="m232.628906 233.660156h-125.875c-3.3125 0-6 2.683594-6 6 0 3.3125 2.6875 6 6 6h125.875c3.3125 0 6-2.6875 6-6 0-3.316406-2.6875-6-6-6zm0 0"/><path d="m40.109375 196.136719h2.320313c3.316406 0 6-2.6875 6-6 0-3.316407-2.683594-6-6-6h-2.320313c-3.316406 0-6 2.683593-6 6 0 3.3125 2.683594 6 6 6zm0 0"/><path d="m83.183594 184.136719h-17.558594c-3.3125 0-6 2.683593-6 6 0 3.3125 2.6875 6 6 6h17.558594c3.3125 0 6-2.6875 6-6 0-3.316407-2.6875-6-6-6zm0 0"/><path d="m232.628906 184.136719h-125.875c-3.3125 0-6 2.683593-6 6 0 3.3125 2.6875 6 6 6h125.875c3.3125 0 6-2.6875 6-6 0-3.316407-2.6875-6-6-6zm0 0"/><path d="m40.109375 305.183594h2.320313c3.316406 0 6-2.6875 6-6 0-3.316406-2.683594-6-6-6h-2.320313c-3.316406 0-6 2.683594-6 6 0 3.3125 2.683594 6 6 6zm0 0"/><path d="m89.183594 299.183594c0-3.316406-2.6875-6-6-6h-17.558594c-3.3125 0-6 2.683594-6 6 0 3.3125 2.6875 6 6 6h17.558594c3.3125 0 6-2.6875 6-6zm0 0"/><path d="m164.648438 293.183594h-57.898438c-3.3125 0-6 2.683594-6 6 0 3.3125 2.6875 6 6 6h57.898438c3.316406 0 6-2.6875 6-6 0-3.316406-2.683594-6-6-6zm0 0"/><path d="m40.109375 152.316406h99.046875c3.3125 0 6-2.683594 6-6v-76.265625c0-3.3125-2.6875-6-6-6h-99.046875c-3.316406 0-6 2.6875-6 6v76.265625c0 3.316406 2.683594 6 6 6zm6-76.265625h87.046875v64.265625h-87.046875zm0 0"/><path d="m169.691406 152.316406h62.9375c3.3125 0 6-2.683594 6-6 0-3.3125-2.6875-6-6-6h-62.9375c-3.316406 0-6 2.6875-6 6 0 3.316406 2.683594 6 6 6zm0 0"/><path d="m169.691406 126.894531h62.9375c3.3125 0 6-2.6875 6-6s-2.6875-6-6-6h-62.9375c-3.316406 0-6 2.6875-6 6s2.683594 6 6 6zm0 0"/><path d="m358.1875 307.335938-86.832031-46.269532c.664062-.984375 1.015625-2.144531 1.011719-3.332031v-251.730469c0-2.308594-1.320313-4.410156-3.398438-5.410156s-4.546875-.71875-6.347656.722656l-28.757813 23-28.757812-23c-2.191407-1.753906-5.308594-1.753906-7.5 0l-28.753907 23-28.75-23c-2.191406-1.753906-5.308593-1.753906-7.5 0l-28.753906 23-28.75-23c-2.191406-1.753906-5.308594-1.753906-7.5 0l-28.746094 23-28.746093-23c-1.800781-1.433594-4.265625-1.710937-6.339844-.710937-2.074219.996093-3.394531 3.09375-3.398437 5.398437v471.464844c0 2.304688 1.324218 4.40625 3.402343 5.40625s4.546875.71875 6.347657-.722656l28.757812-23 28.757812 23c2.191407 1.757812 5.304688 1.757812 7.5 0l28.75-23 28.753907 23c2.191406 1.757812 5.304687 1.757812 7.5 0l28.382812-22.707032 23.195313 22.34375c2.042968 1.972657 5.195312 2.238282 7.542968.636719l12.851563-8.761719c10.890625 10.070313 23.382813 18.25 36.96875 24.203126l12.3125 5.367187c1.523437.664063 3.253906.667969 4.777344.011719l13.875-5.992188c49.269531-20.699218 81.320312-68.921875 81.324219-122.363281v-62.257813c0-2.21875-1.222657-4.253906-3.179688-5.296874zm-161.667969 162.433593-23.476562-22.617187c-2.171875-2.09375-5.558594-2.25-7.910157-.363282l-28.753906 23-28.75-23c-2.191406-1.757812-5.308594-1.757812-7.5 0l-28.753906 23-28.757812-23c-2.191407-1.757812-5.308594-1.757812-7.5 0l-22.75 18.195313v-446.496094l22.746093 18.199219c2.191407 1.753906 5.308594 1.753906 7.5 0l28.75-23 28.75 23c2.191407 1.753906 5.308594 1.753906 7.5 0l28.75-23 28.753907 23c2.191406 1.753906 5.304687 1.753906 7.5 0l28.75-23 28.757812 23c2.191406 1.753906 5.308594 1.753906 7.5 0l22.757812-18.199219v239.25c.003907.464844.058594.925781.167969 1.378907l-88.066406 48.25c-1.921875 1.054687-3.117187 3.070312-3.117187 5.261718v63.523438c.015624 32.816406 12.1875 64.460937 34.167968 88.824218zm152.847657-94.878906c-.007813 48.625-29.183594 92.5-74.019532 111.316406l-.042968.019531-11.5 4.96875-9.921876-4.328124c-13.519531-5.917969-25.84375-14.253907-36.367187-24.597657-.296875-.386719-.636719-.734375-1.015625-1.039062-22.484375-22.605469-35.113281-53.1875-35.132812-85.070313v-59.976562l82.777343-45.363282 85.222657 45.414063zm0 0"/><path d="m231.71875 372.261719c-1.386719-1.644531-3.546875-2.417969-5.664062-2.027344-2.113282.386719-3.859376 1.878906-4.574219 3.90625-.714844 2.027344-.289063 4.285156 1.113281 5.914063l24 28.097656c2.117188 2.476562 5.824219 2.8125 8.347656.757812l55.902344-45.472656c1.683594-1.347656 2.515625-3.492188 2.179688-5.621094-.335938-2.128906-1.789063-3.917968-3.804688-4.679687s-4.289062-.382813-5.949219.992187l-51.351562 41.777344zm0 0"/><path d="m72.875 361.667969h.0625c3.316406.019531 6.015625-2.652344 6.03125-5.96875.019531-3.3125-2.652344-6.011719-5.964844-6.03125l-25.691406-.277344-10.296875-.109375h-.066406c-3.3125-.015625-6.015625 2.65625-6.03125 5.96875-.015625 3.316406 2.65625 6.015625 5.96875 6.03125l10.300781.109375c2.503906.023437 4.894531 1.042969 6.644531 2.835937.214844.222657.414063.449219.605469.683594l-17.585938-.1875h-.066406c-3.3125-.019531-6.011718 2.652344-6.03125 5.964844-.015625 3.316406 2.65625 6.015625 5.96875 6.035156l17.578125.1875c-1.792969 2.128906-4.433593 3.359375-7.214843 3.359375h-.101563l-10.300781-.109375h-.0625c-2.445313 0-4.648438 1.484375-5.5625 3.753906-.917969 2.265626-.363282 4.863282 1.394531 6.5625l25.476563 24.601563c2.382812 2.300781 6.183593 2.234375 8.484374-.148437 2.300782-2.386719 2.234376-6.183594-.148437-8.484376l-15.082031-14.558593c7.796875-1.523438 14.113281-7.230469 16.417968-14.832031l5.105469.054687h.066407c3.3125.019531 6.011718-2.652344 6.03125-5.964844.015624-3.316406-2.65625-6.015625-5.96875-6.035156l-5.105469-.054687c-.335938-1.183594-.773438-2.339844-1.308594-3.453126zm0 0"/><path d="m126.554688 361.667969h.066406c3.316406.019531 6.015625-2.65625 6.03125-5.96875.019531-3.3125-2.652344-6.011719-5.96875-6.03125l-25.683594-.277344-10.300781-.109375h-.066407c-3.3125-.015625-6.015624 2.65625-6.03125 5.96875-.019531 3.3125 2.652344 6.015625 5.96875 6.03125l10.300782.109375c2.503906.023437 4.894531 1.042969 6.640625 2.835937.214843.222657.417969.449219.609375.683594l-17.585938-.1875h-.066406c-3.3125-.019531-6.015625 2.652344-6.03125 5.964844-.019531 3.316406 2.652344 6.015625 5.96875 6.035156l17.582031.1875c-.199219.230469-.398437.453125-.617187.667969-1.761719 1.730469-4.132813 2.699219-6.601563 2.691406h-.101562l-10.296875-.109375c-2.453125-.003906-4.667969 1.464844-5.617188 3.722656-.933594 2.273438-.382812 4.886719 1.382813 6.59375l25.476562 24.601563c2.382813 2.300781 6.179688 2.234375 8.484375-.148437 2.300782-2.386719 2.234375-6.183594-.148437-8.484376l-15.082031-14.558593c7.796874-1.527344 14.109374-7.230469 16.417968-14.832031l5.105469.054687h.066406c3.3125.019531 6.011719-2.652344 6.03125-5.964844.015625-3.316406-2.65625-6.015625-5.96875-6.035156l-5.109375-.054687c-.332031-1.1875-.769531-2.339844-1.308594-3.453126zm0 0"/></svg>