<svg height="491pt" viewBox="-33 0 491 491.99208" width="491pt" xmlns="http://www.w3.org/2000/svg"><path d="m55.121094 0c-30.152344.0351562-54.589844 24.472656-54.625 54.625v393.566406c0 2.308594 1.320312 4.410156 3.402344 5.410156 2.078124.996094 4.542968.71875 6.34375-.722656l33.65625-26.917968 33.652343 26.917968c2.191407 1.753906 5.308594 1.753906 7.5 0l33.648438-26.917968 33.648437 26.917968c2.191406 1.753906 5.308594 1.753906 7.5 0l36.761719-29.410156c25.125 52.929688 84.804687 79.96875 141.164063 63.953125 56.359374-16.015625 92.90625-70.398437 86.4375-128.628906-6.464844-58.234375-54.050782-103.277344-112.550782-106.535157v-86.300781h78.710938c3.316406 0 6-2.6875 6-6v-111.601562c-.027344-25.792969-20.273438-47.03125-46.035156-48.3007815v-.0546875zm357.816406 372.03125c0 59.632812-48.339844 107.96875-107.96875 107.972656-59.628906 0-107.96875-48.339844-107.96875-107.96875s48.339844-107.96875 107.96875-107.96875c59.601562.066406 107.898438 48.367188 107.96875 107.964844zm-113.277344-323.675781v203.835937c-37.925781 1.675782-72.820312 21.203125-94.082031 52.65625-21.261719 31.449219-26.378906 71.105469-13.800781 106.925782l-2.160156 1.914062-33.527344 26.820312-33.644532-26.917968c-2.191406-1.753906-5.308593-1.753906-7.5 0l-33.648437 26.917968-33.652344-26.917968c-2.191406-1.753906-5.304687-1.753906-7.5 0l-27.648437 22.121094v-381.085938c.027344-23.53125 19.09375-42.597656 42.625-42.625h261.066406c-10.503906 9.164062-16.527344 22.417969-16.527344 36.355469zm84.710938 0v105.601562h-72.710938v-105.601562c.105469-20.003907 16.351563-36.164063 36.355469-36.164063 20.007813 0 36.253906 16.160156 36.355469 36.164063zm0 0"/><path d="m45.316406 203.464844h2.671875c3.316407 0 6-2.6875 6-6s-2.683593-6-6-6h-2.671875c-3.3125 0-6 2.6875-6 6s2.6875 6 6 6zm0 0"/><path d="m94.882812 191.464844h-20.203124c-3.3125 0-6 2.6875-6 6s2.6875 6 6 6h20.203124c3.316407 0 6-2.6875 6-6s-2.683593-6-6-6zm0 0"/><path d="m266.839844 191.464844h-144.835938c-3.316406 0-6 2.6875-6 6s2.683594 6 6 6h144.835938c3.3125 0 6-2.6875 6-6s-2.6875-6-6-6zm0 0"/><path d="m45.316406 146.480469h2.671875c3.316407 0 6-2.6875 6-6s-2.683593-6-6-6h-2.671875c-3.3125 0-6 2.6875-6 6s2.6875 6 6 6zm0 0"/><path d="m94.882812 134.480469h-20.203124c-3.3125 0-6 2.6875-6 6s2.6875 6 6 6h20.203124c3.316407 0 6-2.6875 6-6s-2.683593-6-6-6zm0 0"/><path d="m266.839844 134.480469h-144.835938c-3.316406 0-6 2.6875-6 6s2.683594 6 6 6h144.835938c3.3125 0 6-2.6875 6-6s-2.6875-6-6-6zm0 0"/><path d="m45.316406 89.5h2.671875c3.316407 0 6-2.6875 6-6s-2.683593-6-6-6h-2.671875c-3.3125 0-6 2.6875-6 6s2.6875 6 6 6zm0 0"/><path d="m94.882812 77.5h-20.203124c-3.3125 0-6 2.6875-6 6s2.6875 6 6 6h20.203124c3.316407 0 6-2.6875 6-6s-2.683593-6-6-6zm0 0"/><path d="m266.839844 77.5h-144.835938c-3.316406 0-6 2.6875-6 6s2.683594 6 6 6h144.835938c3.3125 0 6-2.6875 6-6s-2.6875-6-6-6zm0 0"/><path d="m45.316406 260.449219h2.671875c3.316407 0 6-2.6875 6-6 0-3.316407-2.683593-6-6-6h-2.671875c-3.3125 0-6 2.683593-6 6 0 3.3125 2.6875 6 6 6zm0 0"/><path d="m94.882812 248.449219h-20.203124c-3.3125 0-6 2.683593-6 6 0 3.3125 2.6875 6 6 6h20.203124c3.316407 0 6-2.6875 6-6 0-3.316407-2.683593-6-6-6zm0 0"/><path d="m209.855469 248.449219h-87.851563c-3.316406 0-6 2.683593-6 6 0 3.3125 2.683594 6 6 6h87.851563c3.3125 0 6-2.6875 6-6 0-3.316407-2.6875-6-6-6zm0 0"/><path d="m62.308594 322.550781c6.070312.003907 10.988281 4.921875 10.992187 10.988281 0 3.316407 2.6875 6 6 6s6-2.683593 6-6c-.015625-10.378906-6.972656-19.46875-16.992187-22.191406v-4.132812c0-3.316406-2.683594-6-6-6-3.3125 0-6 2.683594-6 6v4.132812c-11.128906 3.007813-18.308594 13.792969-16.789063 25.21875 1.515625 11.429688 11.261719 19.964844 22.789063 19.964844 6.070312-.035156 11.015625 4.859375 11.050781 10.925781.03125 6.070313-4.859375 11.015625-10.929687 11.050781-.039063 0-.078126-.007812-.121094-.007812-.039063 0-.078125 0-.121094.007812-6.019531-.070312-10.863281-4.964843-10.871094-10.984374 0-3.316407-2.6875-6-6-6s-6 2.683593-6 6c.011719 10.378906 6.972656 19.46875 16.992188 22.191406v4.90625c0 3.316406 2.683594 6 6 6 3.3125 0 6-2.683594 6-6v-4.90625c11.125-3.007813 18.304687-13.792969 16.789062-25.21875-1.519531-11.429688-11.261718-19.964844-22.789062-19.964844-6.070313 0-10.992188-4.921875-10.992188-10.992188 0-6.070312 4.921875-10.988281 10.992188-10.988281zm0 0"/><path d="m167.6875 363.226562h-50.71875c-3.3125 0-6 2.6875-6 6s2.6875 6 6 6h50.71875c3.3125 0 6-2.6875 6-6s-2.6875-6-6-6zm0 0"/><path d="m244.5625 418.324219c.007812.082031.023438.167969.039062.25l.929688 5.367187c.429688 2.472656 2.351562 4.414063 4.816406 4.871094 2.464844.460938 4.953125-.664062 6.242188-2.8125l2.800781-4.664062c16.269531-27.058594 37.855469-30.230469 48.132813-30.035157v22.742188c0 2.429687 1.464843 4.617187 3.710937 5.546875 2.246094.925781 4.828125.40625 6.542969-1.316406l46.449218-46.679688c2.335938-2.347656 2.328126-6.148438-.023437-8.484375l-46.449219-46.210937c-1.71875-1.707032-4.296875-2.214844-6.535156-1.285157-2.238281.929688-3.695312 3.117188-3.695312 5.539063v21.925781c-21.839844 1.242187-35.382813 9.882813-38.570313 12.78125-28.507813 23.707031-25.347656 56.039063-24.390625 62.464844zm32.179688-53.339844c.066406-.050781.128906-.105469.191406-.164063.6875-.554687 12.648437-9.898437 35.886718-9.898437h.699219c3.3125 0 6-2.6875 6-6v-13.335937l31.960938 31.800781-31.960938 32.121093v-13.707031c0-2.945312-2.136719-5.457031-5.042969-5.925781-6.082031-.980469-35.117187-3.851562-58.300781 25.070312 1.0625-15.585937 8.5-30.039062 20.566407-39.960937zm0 0"/></svg>