<svg height="501pt" viewBox="0 -24 501.9897 501" width="501pt" xmlns="http://www.w3.org/2000/svg"><path d="m495.980469 432.523438h-1.613281c-8.574219-.839844-15.113282-8.046876-15.125-16.664063v-92.011719c-.03125-26.332031-21.367188-47.671875-47.699219-47.703125h-68.71875v-269.648437c0-3.316406-2.6875-6-6-6-8.023438 0-12.300781 2.878906-15.734375 5.191406-2.8125 1.894531-4.671875 3.148438-9.03125 3.148438s-6.214844-1.253907-9.027344-3.148438c-3.4375-2.3125-7.710938-5.191406-15.734375-5.191406s-12.300781 2.878906-15.734375 5.191406c-2.8125 1.894531-4.667969 3.148438-9.027344 3.148438s-6.214844-1.253907-9.027344-3.148438c-3.433593-2.3125-7.710937-5.191406-15.730468-5.191406-8.023438 0-12.300782 2.878906-15.734375 5.191406-2.8125 1.894531-4.667969 3.148438-9.027344 3.148438-4.355469 0-6.214844-1.253907-9.027344-3.148438-3.433593-2.3125-7.707031-5.191406-15.730469-5.191406-8.023437 0-12.300781 2.878906-15.730468 5.191406-2.8125 1.894531-4.667969 3.148438-9.027344 3.148438-4.355469 0-6.210938-1.253907-9.023438-3.148438-3.433593-2.3125-7.710937-5.191406-15.730468-5.191406-3.3125 0-6 2.683594-6 6v242.796875c-40.222656-18.800781-87.875-10.886719-119.859375 19.90625-31.988281 30.796875-41.707031 78.109375-24.449219 119.019531 17.261719 40.910156 57.933594 66.964844 102.308594 65.539062 44.378906-1.421874 83.296875-30.03125 97.898437-71.964843h94.226563v15.027343c.03125 26.332032 21.371094 47.671876 47.703125 47.703126h143.296875c.699218.050781 1.40625.074218 2.117187.074218 3.328125-.035156 6.007813-2.746094 6-6.074218 0-1.59375-.632812-3.121094-1.757812-4.246094-1.128907-1.125-2.65625-1.757813-4.25-1.753906zm-331.234375-418.753907c1.046875.5625 2.054687 1.1875 3.023437 1.871094 3.4375 2.316406 7.710938 5.199219 15.730469 5.199219 8.023438 0 12.296875-2.878906 15.730469-5.195313 2.8125-1.894531 4.671875-3.144531 9.027343-3.144531 4.355469 0 6.214844 1.25 9.027344 3.144531 3.433594 2.316407 7.710938 5.203125 15.730469 5.203125 8.023437 0 12.300781-2.882812 15.734375-5.195312 2.8125-1.894532 4.667969-3.148438 9.027344-3.148438 4.355468 0 6.214844 1.253906 9.023437 3.148438 3.4375 2.3125 7.710938 5.199218 15.734375 5.199218 8.023438 0 12.300782-2.878906 15.734375-5.195312 2.8125-1.894531 4.667969-3.144531 9.027344-3.144531 4.355469 0 6.214844 1.25 9.027344 3.144531 3.4375 2.316406 7.710937 5.199219 15.734375 5.199219 8.023437 0 12.300781-2.878907 15.734375-5.195313.972656-.683594 1.984375-1.3125 3.03125-1.871094v262.355469h-77.402344c-.117187 0-.234375 0-.351563.011719-.316406-.007812-.632812-.011719-.949218-.011719-23.597656.027344-42.722656 19.152344-42.75 42.75v18.765625c-.03125 11.679688-6.332032 22.441406-16.507813 28.183594 7.871094-43.035156-11.164062-86.535156-48.117187-109.953125zm-57.449219 428.042969c-52.640625-.003906-95.316406-42.675781-95.316406-95.316406 0-52.644532 42.675781-95.316406 95.316406-95.316406 52.644531 0 95.316406 42.671874 95.316406 95.316406-.058593 52.617187-42.699219 95.253906-95.316406 95.316406zm120.230469-72.019531c8.816406-8.363281 13.820312-19.976563 13.839844-32.132813v-18.765625c0-16.984375 13.769531-30.75 30.75-30.75 16.984374 0 30.75 13.765625 30.75 30.75v50.898438zm123.042968 62.730469c-19.707031-.023438-35.679687-15.992188-35.703124-35.699219v-77.929688c.007812-11.601562-4.714844-22.707031-13.078126-30.75h129.753907c19.707031.023438 35.675781 15.992188 35.699219 35.699219v92.015625c-.007813 5.976563 1.859374 11.804687 5.339843 16.664063zm0 0"/><path d="m218.570312 87.382812h103.617188c3.3125 0 6-2.6875 6-6 0-3.316406-2.6875-6-6-6h-103.617188c-3.3125 0-6 2.683594-6 6 0 3.3125 2.6875 6 6 6zm0 0"/><path d="m193.382812 87.382812h5.164063c3.3125 0 6-2.6875 6-6 0-3.316406-2.6875-6-6-6h-5.164063c-3.316406 0-6 2.683594-6 6 0 3.3125 2.683594 6 6 6zm0 0"/><path d="m218.570312 127.28125h103.617188c3.3125 0 6-2.6875 6-6 0-3.316406-2.6875-6-6-6h-103.617188c-3.3125 0-6 2.683594-6 6 0 3.3125 2.6875 6 6 6zm0 0"/><path d="m193.382812 127.28125h5.164063c3.3125 0 6-2.6875 6-6 0-3.316406-2.6875-6-6-6h-5.164063c-3.316406 0-6 2.683594-6 6 0 3.3125 2.683594 6 6 6zm0 0"/><path d="m218.570312 167.175781h103.617188c3.3125 0 6-2.6875 6-6s-2.6875-6-6-6h-103.617188c-3.3125 0-6 2.6875-6 6s2.6875 6 6 6zm0 0"/><path d="m193.382812 167.175781h5.164063c3.3125 0 6-2.6875 6-6s-2.6875-6-6-6h-5.164063c-3.316406 0-6 2.6875-6 6s2.683594 6 6 6zm0 0"/><path d="m218.570312 207.074219h103.617188c3.3125 0 6-2.6875 6-6 0-3.316407-2.6875-6-6-6h-103.617188c-3.3125 0-6 2.683593-6 6 0 3.3125 2.6875 6 6 6zm0 0"/><path d="m193.382812 207.074219h5.164063c3.3125 0 6-2.6875 6-6 0-3.316407-2.6875-6-6-6h-5.164063c-3.316406 0-6 2.683593-6 6 0 3.3125 2.683594 6 6 6zm0 0"/><path d="m218.570312 242.363281h103.617188c3.3125 0 6-2.6875 6-6s-2.6875-6-6-6h-103.617188c-3.3125 0-6 2.6875-6 6s2.6875 6 6 6zm0 0"/><path d="m193.382812 242.363281h5.164063c3.3125 0 6-2.6875 6-6s-2.6875-6-6-6h-5.164063c-3.316406 0-6 2.6875-6 6s2.683594 6 6 6zm0 0"/><path d="m359.601562 331.292969c5.582032.007812 10.105469 4.53125 10.113282 10.113281 0 3.3125 2.683594 6 6 6 3.3125 0 6-2.6875 6-6-.015625-9.894531-6.59375-18.582031-16.113282-21.277344v-3.6875c0-3.316406-2.6875-6-6-6-3.316406 0-6 2.683594-6 6v3.6875c-10.628906 2.996094-17.417968 13.371094-15.90625 24.308594 1.511719 10.9375 10.863282 19.085938 21.90625 19.082031 5.550782.015625 10.054688 4.503907 10.085938 10.054688s-4.417969 10.089843-9.972656 10.167969c-.039063 0-.074219-.007813-.113282-.007813-.039062 0-.078124 0-.117187.007813-5.535156-.066407-9.992187-4.570313-10-10.109376 0-3.3125-2.6875-6-6-6s-6 2.6875-6 6c.015625 9.898438 6.59375 18.585938 16.113281 21.28125v4.421876c0 3.3125 2.6875 6 6 6 3.316406 0 6-2.6875 6-6v-4.421876c10.628906-2.996093 17.417969-13.371093 15.90625-24.3125-1.511718-10.9375-10.863281-19.082031-21.90625-19.082031-3.636718.039063-7.011718-1.882812-8.839844-5.027343-1.832031-3.144532-1.832031-7.027344 0-10.171876 1.828126-3.144531 5.203126-5.0625 8.839844-5.027343zm0 0"/><path d="m435.09375 384.125h-26.675781c-3.316407 0-6 2.683594-6 6 0 3.3125 2.683593 6 6 6h26.675781c3.316406 0 6-2.6875 6-6 0-3.316406-2.683594-6-6-6zm0 0"/><path d="m435.09375 351.886719h-26.675781c-3.316407 0-6 2.6875-6 6s2.683593 6 6 6h26.675781c3.316406 0 6-2.6875 6-6s-2.683594-6-6-6zm0 0"/><path d="m435.09375 319.652344h-26.675781c-3.316407 0-6 2.6875-6 6s2.683593 6 6 6h26.675781c3.316406 0 6-2.6875 6-6s-2.683594-6-6-6zm0 0"/><path d="m176.246094 334.710938-64.375-56.25c-2.246094-1.960938-5.589844-1.976563-7.851563-.035157l-49.601562 42.515625c-.28125.199219-.542969.425782-.785157.671875l-15.238281 13.0625c-2.488281 2.164063-2.761719 5.925781-.617187 8.425781 2.144531 2.503907 5.90625 2.808594 8.425781.683594l5.71875-4.898437v71.128906c0 3.3125 2.6875 6 6 6h98.75c3.3125 0 6-2.6875 6-6v-71.230469l5.675781 4.960938c2.496094 2.183594 6.289063 1.929687 8.46875-.566406 2.183594-2.496094 1.929688-6.289063-.566406-8.46875zm-25.574219 69.300781h-86.75v-75.414063l43.960937-37.683594 42.785157 37.386719zm0 0"/></svg>