<svg height="456pt" viewBox="0 -1 456.24 456" width="456pt" xmlns="http://www.w3.org/2000/svg"><path d="m258.628906 359.890625c19.234375-.023437 34.824219-15.613281 34.84375-34.851563v-209.519531c-.019531-19.238281-15.609375-34.832031-34.84375-34.855469h-219.300781v-66.027343c0-3.3125-2.6875-6-6-6h-27.328125c-3.3125 0-6 2.6875-6 6v411.285156c0 3.3125 2.6875 6 6 6h27.328125c3.3125 0 6-2.6875 6-6v-66.03125zm22.84375-244.371094v27.472657h-17.449218c-3.316407 0-6 2.6875-6 6s2.683593 6 6 6h17.449218v170.046874c-.011718 12.613282-10.234375 22.835938-22.84375 22.851563h-246.628906v-192.902344h145.449219c3.3125 0 6-2.6875 6-6s-2.6875-6-6-6h-145.449219v-50.324219h246.628906c12.613282.015626 22.832032 10.238282 22.84375 22.855469zm-254.144531-94.882812v60.027343h-15.328125v-60.027343zm0 399.285156h-15.328125v-60.03125h15.328125zm0 0"/><path d="m200.171875 244.464844c-18.121094-8.648438-39.808594-3.644532-52.308594 12.070312-12.5 15.710938-12.5 37.96875 0 53.683594 12.5 15.710938 34.1875 20.714844 52.308594 12.066406 18.121094 8.648438 39.808594 3.644532 52.308594-12.066406 12.5-15.714844 12.5-37.972656 0-53.683594-12.5-15.714844-34.1875-20.71875-52.308594-12.070312zm12.558594 38.910156c-.003907 9.835938-4.660157 19.09375-12.558594 24.957031-7.898437-5.863281-12.558594-15.121093-12.558594-24.957031 0-9.839844 4.660157-19.09375 12.558594-24.957031 7.898437 5.863281 12.554687 15.117187 12.558594 24.953125zm-62.226563 0c-.007812-9.410156 4.246094-18.3125 11.570313-24.222656 7.324219-5.90625 16.925781-8.179688 26.121093-6.1875-16.773437 16.800781-16.773437 44.011718 0 60.816406-9.195312 1.992188-18.796874-.28125-26.121093-6.1875-7.320313-5.910156-11.578125-14.8125-11.570313-24.222656zm99.339844 0c.003906 9.410156-4.25 18.3125-11.574219 24.21875-7.324219 5.910156-16.925781 8.183594-26.121093 6.1875 16.773437-16.800781 16.773437-44.011719 0-60.8125 9.195312-1.996094 18.796874.28125 26.121093 6.1875 7.320313 5.90625 11.578125 14.808594 11.574219 24.21875zm0 0"/><path d="m207.503906 154.992188h33.699219c3.3125 0 6-2.6875 6-6s-2.6875-6-6-6h-33.699219c-3.316406 0-6 2.6875-6 6s2.683594 6 6 6zm0 0"/><path d="m179.90625 154.992188h5.652344c3.3125 0 6-2.6875 6-6s-2.6875-6-6-6h-5.648438c-3.3125 0-6 2.6875-6 6s2.6875 6 6 6zm0 0"/><path d="m207.058594 1.878906c-2.34375-2.34375-6.144532-2.34375-8.488282 0l-24.042968 24.035156c-2.34375 2.34375-2.34375 6.144532 0 8.488282l24.039062 24.039062c1.511719 1.550782 3.734375 2.167969 5.828125 1.617188 2.089844-.550782 3.726563-2.183594 4.277344-4.273438.550781-2.09375-.070313-4.320312-1.617187-5.828125l-13.800782-13.800781h81.320313c3.316406 0 6-2.6875 6-6s-2.683594-6-6-6h-81.316407l13.800782-13.800781c2.339844-2.339844 2.339844-6.136719 0-8.476563zm0 0"/><path d="m349.398438 36.160156c3.3125 0 6-2.6875 6-6 0-3.316406-2.6875-6-6-6h-1.0625c-3.3125 0-6 2.683594-6 6 0 3.3125 2.6875 6 6 6zm0 0"/><path d="m329.375 36.160156c3.316406 0 6-2.6875 6-6 0-3.316406-2.683594-6-6-6h-.699219c-3.3125 0-6 2.683594-6 6 0 3.3125 2.6875 6 6 6zm0 0"/><path d="m301.511719 36.160156c3.316406 0 6-2.6875 6-6 0-3.316406-2.683594-6-6-6h-.324219c-3.3125 0-6 2.683594-6 6 0 3.3125 2.6875 6 6 6zm0 0"/><path d="m386.324219 417.171875h-1.0625c-3.3125 0-6 2.6875-6 6 0 3.316406 2.6875 6 6 6h1.0625c3.3125 0 6-2.683594 6-6 0-3.3125-2.6875-6-6-6zm0 0"/><path d="m366.304688 417.171875h-.703126c-3.3125 0-6 2.6875-6 6 0 3.316406 2.6875 6 6 6h.703126c3.3125 0 6-2.683594 6-6 0-3.3125-2.6875-6-6-6zm0 0"/><path d="m338.441406 417.171875h-.324218c-3.316407 0-6 2.6875-6 6 0 3.316406 2.683593 6 6 6h.324218c3.3125 0 6-2.683594 6-6 0-3.3125-2.6875-6-6-6zm0 0"/><path d="m311.507812 417.171875h-129.402343l13.800781-13.800781c1.558594-1.503906 2.183594-3.734375 1.636719-5.832032-.550781-2.097656-2.1875-3.738281-4.285157-4.285156-2.097656-.550781-4.328124.074219-5.835937 1.636719l-24.039063 24.039063c-2.34375 2.34375-2.34375 6.140624 0 8.484374l24.039063 24.039063c2.347656 2.308594 6.121094 2.292969 8.449219-.035156 2.332031-2.332031 2.347656-6.101563.035156-8.453125l-13.800781-13.796875h129.402343c3.3125 0 6-2.6875 6-6 0-3.316407-2.6875-6-6-6zm0 0"/><path d="m337.078125 161.164062c0 1.59375.632813 3.121094 1.757813 4.246094l24.039062 24.039063c1.511719 1.535156 3.730469 2.140625 5.8125 1.589843 2.085938-.550781 3.710938-2.179687 4.265625-4.261718.550781-2.085938-.058594-4.304688-1.59375-5.816406l-13.800781-13.800782h23.628906c3.3125 0 6-2.683594 6-6 0-3.3125-2.6875-6-6-6h-23.628906l13.800781-13.796875c2.273437-2.355469 2.238281-6.097656-.074219-8.414062-2.316406-2.3125-6.058594-2.34375-8.410156-.070313l-24.039062 24.039063c-1.128907 1.125-1.761719 2.65625-1.757813 4.246093zm0 0"/><path d="m450.238281 155.164062h-1.058593c-3.3125 0-6 2.6875-6 6 0 3.316407 2.6875 6 6 6h1.058593c3.316407 0 6-2.683593 6-6 0-3.3125-2.683593-6-6-6zm0 0"/><path d="m430.21875 155.164062h-.699219c-3.316406 0-6 2.6875-6 6 0 3.316407 2.683594 6 6 6h.699219c3.3125 0 6-2.683593 6-6 0-3.3125-2.6875-6-6-6zm0 0"/><path d="m402.359375 155.164062h-.324219c-3.316406 0-6 2.6875-6 6 0 3.316407 2.683594 6 6 6h.324219c3.3125 0 6-2.683593 6-6 0-3.3125-2.6875-6-6-6zm0 0"/><path d="m446.199219 286.164062h-.695313c-3.3125 0-6 2.6875-6 6 0 3.316407 2.6875 6 6 6h.695313c3.316406 0 6-2.683593 6-6 0-3.3125-2.683594-6-6-6zm0 0"/><path d="m418.339844 286.164062h-.328125c-3.3125 0-6 2.6875-6 6 0 3.316407 2.6875 6 6 6h.328125c3.3125 0 6-2.683593 6-6 0-3.3125-2.6875-6-6-6zm0 0"/><path d="m397.171875 286.164062h-59.015625l13.800781-13.796874c1.550781-1.511719 2.167969-3.734376 1.617188-5.828126-.550781-2.089843-2.183594-3.726562-4.273438-4.277343-2.09375-.546875-4.320312.070312-5.828125 1.621093l-24.039062 24.042969c-2.34375 2.34375-2.34375 6.140625 0 8.484375l24.039062 24.039063c2.339844 2.34375 6.140625 2.34375 8.484375.003906 2.34375-2.34375 2.34375-6.144531 0-8.488281l-13.800781-13.800782h59.015625c3.3125 0 6-2.683593 6-6 0-3.3125-2.6875-6-6-6zm0 0"/></svg>