<svg height="492pt" viewBox="0 -68 492 492" width="492pt" xmlns="http://www.w3.org/2000/svg"><path d="m259.320312 344.671875h-63.53125v-61.054687h20.109376v4.207031c0 3.316406 2.6875 6 6 6h19.066406c3.3125 0 6-2.683594 6-6v-33.257813h113.507812c9.9375-.011718 17.988282-8.066406 18-18v-162.382812c-.011718-9.9375-8.0625-17.988282-18-18h-113.5v-35.09375c0-3.3125-2.6875-6-6-6h-19.074218c-3.3125 0-6 2.6875-6 6v4.132812h-181.859376c-18.789062.019532-34.0195308 15.246094-34.039062 34.039063v190.3125c.0195312 18.792969 15.25 34.023437 34.039062 34.042969h149.75v61.054687h-63.53125c-3.316406 0-6 2.683594-6 6 0 3.3125 2.683594 6 6 6h139.0625c3.3125 0 6-2.6875 6-6 0-3.316406-2.6875-6-6-6zm-24.351562-62.847656h-7.070312v-27.257813h7.066406zm131.5-207.640625v25.46875h-10.355469c-3.3125 0-6 2.683594-6 6 0 3.3125 2.6875 6 6 6h10.359375v124.914062c-.003906 3.308594-2.6875 5.996094-6 6h-132.574218v-130.914062h53.882812c3.3125 0 6-2.6875 6-6 0-3.316406-2.6875-6-6-6h-53.882812v-31.46875h132.574218c3.3125.003906 5.996094 2.6875 6 6zm-131.5-47.09375v29.09375h-7.070312v-29.09375zm-200.929688 10.132812h181.859376v191.734375h-203.898438v-169.699219c.015625-12.167968 9.875-22.023437 22.039062-22.035156zm-22.039062 212.351563v-8.617188h203.898438v30.660157h-181.855469c-12.167969-.011719-22.027344-9.875-22.042969-22.042969zm0 0"/><path d="m257.601562 190.234375c-.007812 10.792969 5.449219 20.859375 14.5 26.742187 9.054688 5.878907 20.464844 6.78125 30.328126 2.386719 13.375 5.957031 29.082031 2.039063 38.097656-9.496093 9.011718-11.539063 9.011718-27.726563 0-39.265626-9.015625-11.535156-24.722656-15.453124-38.097656-9.496093-9.863282-4.394531-21.277344-3.492188-30.328126 2.386719-9.050781 5.882812-14.507812 15.949218-14.5 26.742187zm37.882813 0c.003906-5.796875 2.539063-11.300781 6.945313-15.066406 4.40625 3.765625 6.941406 9.269531 6.941406 15.066406s-2.535156 11.300781-6.941406 15.066406c-4.40625-3.765625-6.945313-9.269531-6.945313-15.066406zm39.773437 0c-.011718 10.976563-8.90625 19.875-19.886718 19.886719-.320313 0-.632813-.035156-.949219-.046875 9.265625-11.605469 9.265625-28.074219 0-39.679688.316406-.015625.628906-.046875.949219-.046875 10.976562.011719 19.875 8.910156 19.886718 19.886719zm-45.773437-19.886719c.324219 0 .632813.03125.953125.046875-9.269531 11.601563-9.269531 28.074219 0 39.679688-.320312.011719-.628906.046875-.953125.046875-10.925781-.078125-19.746094-8.957032-19.746094-19.886719s8.820313-19.808594 19.746094-19.886719zm0 0"/><path d="m316.691406 111.652344h23.5c3.3125 0 6-2.6875 6-6 0-3.316406-2.6875-6-6-6h-23.5c-3.3125 0-6 2.683594-6 6 0 3.3125 2.6875 6 6 6zm0 0"/><path d="m297.445312 111.652344h3.9375c3.3125 0 6-2.6875 6-6 0-3.316406-2.6875-6-6-6h-3.9375c-3.316406 0-6 2.683594-6 6 0 3.3125 2.683594 6 6 6zm0 0"/><path d="m317.660156 1.757812c-2.34375-2.34375-6.140625-2.34375-8.484375 0l-16.765625 16.765626c-2.34375 2.34375-2.34375 6.140624 0 8.484374l16.765625 16.769532c2.355469 2.273437 6.097657 2.238281 8.414063-.074219 2.3125-2.316406 2.34375-6.058594.070312-8.410156l-6.523437-6.527344h52.339843c3.316407 0 6-2.683594 6-6 0-3.3125-2.683593-6-6-6h-52.339843l6.523437-6.523437c2.34375-2.34375 2.34375-6.140626 0-8.484376zm0 0"/><path d="m415.664062 28.765625c3.3125 0 6-2.683594 6-6 0-3.3125-2.6875-6-6-6h-.742187c-3.3125 0-6 2.6875-6 6 0 3.316406 2.6875 6 6 6zm0 0"/><path d="m401.699219 16.765625h-.484375c-3.3125 0-6 2.6875-6 6 0 3.316406 2.6875 6 6 6h.484375c3.316406 0 6-2.683594 6-6 0-3.3125-2.683594-6-6-6zm0 0"/><path d="m382.265625 28.765625c3.3125 0 6-2.683594 6-6 0-3.3125-2.6875-6-6-6h-.226563c-3.316406 0-6 2.6875-6 6 0 3.316406 2.683594 6 6 6zm0 0"/><path d="m441.417969 290.890625h-.738281c-3.3125 0-6 2.6875-6 6 0 3.316406 2.6875 6 6 6h.738281c3.316406 0 6-2.683594 6-6 0-3.3125-2.683594-6-6-6zm0 0"/><path d="m427.453125 290.890625h-.484375c-3.3125 0-6 2.6875-6 6 0 3.316406 2.6875 6 6 6h.484375c3.316406 0 6-2.683594 6-6 0-3.3125-2.683594-6-6-6zm0 0"/><path d="m408.019531 290.890625h-.226562c-3.3125 0-6 2.6875-6 6 0 3.316406 2.6875 6 6 6h.226562c3.316407 0 6-2.683594 6-6 0-3.3125-2.683593-6-6-6zm0 0"/><path d="m389.234375 290.890625h-85.878906l6.527343-6.523437c2.289063-2.355469 2.261719-6.109376-.058593-8.429688-2.320313-2.320312-6.074219-2.34375-8.425781-.054688l-16.765626 16.765626c-2.34375 2.34375-2.34375 6.140624 0 8.484374l16.765626 16.769532c2.351562 2.289062 6.109374 2.261718 8.429687-.058594s2.347656-6.074219.058594-8.425781l-6.527344-6.527344h85.875c3.3125 0 6-2.683594 6-6 0-3.3125-2.6875-6-6-6zm0 0"/><path d="m407.011719 118.382812 16.765625 16.769532c2.34375 2.34375 6.140625 2.34375 8.484375 0s2.347656-6.140625.003906-8.484375l-6.527344-6.527344h12.101563c3.3125 0 6-2.683594 6-6 0-3.3125-2.6875-6-6-6h-12.101563l6.527344-6.523437c2.34375-2.34375 2.339844-6.144532-.003906-8.488282-2.34375-2.339844-6.140625-2.339844-8.484375.003906l-16.765625 16.765626c-2.34375 2.34375-2.34375 6.140624 0 8.484374zm0 0"/><path d="m486 108.140625h-.738281c-3.316407 0-6 2.6875-6 6 0 3.316406 2.683593 6 6 6h.738281c3.3125 0 6-2.683594 6-6 0-3.3125-2.6875-6-6-6zm0 0"/><path d="m472.035156 108.140625h-.484375c-3.316406 0-6 2.6875-6 6 0 3.316406 2.683594 6 6 6h.484375c3.3125 0 6-2.683594 6-6 0-3.3125-2.6875-6-6-6zm0 0"/><path d="m452.601562 108.140625h-.230468c-3.3125 0-6 2.6875-6 6 0 3.316406 2.6875 6 6 6h.230468c3.3125 0 6-2.683594 6-6 0-3.3125-2.6875-6-6-6zm0 0"/><path d="m483.183594 199.515625h-.484375c-3.3125 0-6 2.6875-6 6 0 3.316406 2.6875 6 6 6h.488281c3.3125 0 6-2.683594 6-6 0-3.3125-2.6875-6-6-6zm0 0"/><path d="m463.75 199.515625h-.226562c-3.316407 0-6 2.6875-6 6 0 3.316406 2.683593 6 6 6h.226562c3.3125 0 6-2.683594 6-6 0-3.3125-2.6875-6-6-6zm0 0"/><path d="m448.984375 199.515625h-36.777344l6.523438-6.523437c1.535156-1.511719 2.144531-3.734376 1.589843-5.816407-.550781-2.082031-2.179687-3.710937-4.261718-4.261719-2.082032-.550781-4.300782.054688-5.8125 1.59375l-16.765625 16.765626c-2.34375 2.34375-2.34375 6.140624 0 8.484374l16.765625 16.769532c1.511718 1.535156 3.730468 2.144531 5.8125 1.589844 2.082031-.550782 3.710937-2.179688 4.261718-4.261719.554688-2.082031-.054687-4.300781-1.589843-5.8125l-6.523438-6.527344h36.777344c3.316406 0 6-2.683594 6-6 0-3.3125-2.683594-6-6-6zm0 0"/></svg>