<svg height="453pt" viewBox="-7 0 453 453.02443" width="453pt" xmlns="http://www.w3.org/2000/svg"><path d="m258.636719 359.695312c19.238281-.023437 34.828125-15.609374 34.847656-34.847656v-209.523437c-.019531-19.238281-15.609375-34.828125-34.847656-34.851563h-219.296875v-66.03125c0-3.3125-2.6875-6-6-6h-27.328125c-3.3125 0-6.0000002 2.6875-6.0000002 6v411.285156c0 3.3125 2.6875002 6 6.0000002 6h27.328125c3.3125 0 6-2.6875 6-6v-66.03125zm22.847656-244.371093v27.472656h-17.449219c-3.316406 0-6 2.6875-6 6 0 3.316406 2.683594 6 6 6h17.449219v170.050781c-.011719 12.613282-10.234375 22.832032-22.847656 22.847656h-246.625v-192.898437h145.449219c3.316406 0 6-2.6875 6-6 0-3.316406-2.683594-6-6-6h-145.449219v-50.324219h246.625c12.617187.015625 22.835937 10.238282 22.847656 22.851563zm-254.144531-94.882813v60.03125h-15.328125v-60.03125zm0 399.285156h-15.328125v-60.03125h15.328125zm0 0"/><path d="m200.183594 244.273438c-18.117188-8.648438-39.808594-3.644532-52.308594 12.066406-12.5 15.710937-12.5 37.972656 0 53.683594 12.5 15.710937 34.191406 20.714843 52.308594 12.066406 18.121094 8.648437 39.8125 3.644531 52.3125-12.066406 12.5-15.710938 12.5-37.972657 0-53.683594-12.5-15.710938-34.191406-20.714844-52.3125-12.066406zm12.558594 38.90625c0 9.839843-4.660157 19.09375-12.558594 24.960937-7.898438-5.863281-12.554688-15.121094-12.554688-24.960937 0-9.835938 4.65625-19.09375 12.554688-24.957032 7.898437 5.863282 12.554687 15.121094 12.558594 24.957032zm-62.226563 0c-.007813-9.40625 4.25-18.3125 11.574219-24.222657 7.320312-5.90625 16.925781-8.179687 26.121094-6.183593-16.773438 16.800781-16.773438 44.011718 0 60.8125-9.195313 1.996093-18.800782-.277344-26.125-6.183594-7.324219-5.90625-11.578126-14.8125-11.574219-24.222656zm99.339844 0c.003906 9.410156-4.25 18.316406-11.574219 24.222656-7.320312 5.90625-16.925781 8.183594-26.121094 6.1875 16.773438-16.800782 16.773438-44.011719 0-60.816406 9.195313-1.992188 18.796875.28125 26.121094 6.1875s11.578125 14.8125 11.574219 24.21875zm0 0"/><path d="m207.511719 154.796875h33.699219c3.316406 0 6-2.683594 6-6 0-3.3125-2.683594-6-6-6h-33.699219c-3.3125 0-6 2.6875-6 6 0 3.316406 2.6875 6 6 6zm0 0"/><path d="m179.917969 154.796875h5.648437c3.3125 0 6-2.683594 6-6 0-3.3125-2.6875-6-6-6h-5.648437c-3.3125 0-6 2.6875-6 6 0 3.316406 2.6875 6 6 6zm0 0"/><path d="m171.675781 35.964844c3.3125 0 6-2.6875 6-6s-2.6875-6-6-6h-1.0625c-3.316406 0-6 2.6875-6 6s2.683594 6 6 6zm0 0"/><path d="m191.332031 35.964844c3.3125 0 6-2.6875 6-6s-2.6875-6-6-6h-.695312c-3.316407 0-6 2.6875-6 6s2.683593 6 6 6zm0 0"/><path d="m218.820312 35.964844c3.316407 0 6-2.6875 6-6s-2.683593-6-6-6h-.324218c-3.3125 0-6 2.6875-6 6s2.6875 6 6 6zm0 0"/><path d="m239.433594 29.964844c0 3.3125 2.683594 6 6 6h81.320312l-13.800781 13.800781c-1.535156 1.511719-2.140625 3.730469-1.589844 5.8125.550781 2.085937 2.179688 3.710937 4.261719 4.261719 2.085938.554687 4.304688-.054688 5.816406-1.589844l24.039063-24.039062c2.34375-2.34375 2.34375-6.144532 0-8.484376l-24.039063-24.042968c-2.351562-2.273438-6.09375-2.242188-8.410156.074218-2.3125 2.3125-2.347656 6.054688-.074219 8.410157l13.800781 13.800781h-81.324218c-3.3125 0-6 2.683594-6 5.996094zm0 0"/><path d="m332.59375 394.699219c-1.507812-1.550781-3.734375-2.171875-5.824219-1.621094-2.09375.550781-3.726562 2.183594-4.277343 4.277344-.550782 2.089843.066406 4.316406 1.617187 5.824219l13.800781 13.800781h-129.398437c-3.316407 0-6 2.6875-6 6 0 3.316406 2.683593 6 6 6h129.402343l-13.800781 13.800781c-2.34375 2.34375-2.34375 6.140625 0 8.484375 2.339844 2.34375 6.140625 2.34375 8.484375 0l24.039063-24.039063c2.34375-2.339843 2.34375-6.140624 0-8.484374zm0 0"/><path d="m134.746094 416.980469h-1.058594c-3.316406 0-6 2.683593-6 6 0 3.3125 2.683594 6 6 6h1.058594c3.316406 0 6-2.6875 6-6 0-3.316407-2.683594-6-6-6zm0 0"/><path d="m154.402344 416.980469h-.691406c-3.3125 0-6 2.683593-6 6 0 3.3125 2.6875 6 6 6h.695312c3.316406 0 6-2.6875 6-6 0-3.316407-2.683594-6-6-6zm0 0"/><path d="m181.894531 416.980469h-.324219c-3.3125 0-6 2.683593-6 6 0 3.3125 2.6875 6 6 6h.324219c3.3125 0 6-2.6875 6-6 0-3.316407-2.6875-6-6-6zm0 0"/><path d="m307.832031 166.972656c3.3125 0 6-2.6875 6-6s-2.6875-6-6-6h-1.0625c-3.3125 0-6 2.6875-6 6s2.6875 6 6 6zm0 0"/><path d="m327.488281 154.972656h-.695312c-3.3125 0-6 2.6875-6 6s2.6875 6 6 6h.695312c3.3125 0 6-2.6875 6-6s-2.6875-6-6-6zm0 0"/><path d="m354.980469 166.972656c3.3125 0 6-2.6875 6-6s-2.6875-6-6-6h-.328125c-3.3125 0-6 2.6875-6 6s2.6875 6 6 6zm0 0"/><path d="m369.820312 160.972656c0 3.3125 2.6875 6 6 6h23.628907l-13.800781 13.800782c-2.34375 2.34375-2.34375 6.140624 0 8.484374s6.140624 2.34375 8.484374 0l24.039063-24.039062c2.34375-2.34375 2.34375-6.140625 0-8.484375l-24.039063-24.039063c-2.351562-2.289062-6.105468-2.265624-8.425781.054688-2.320312 2.320312-2.347656 6.074219-.058593 8.429688l13.800781 13.796874h-23.628907c-3.3125 0-5.996093 2.683594-6 5.996094zm0 0"/><path d="m413.539062 263.691406c-2.355468-2.273437-6.097656-2.238281-8.410156.074219-2.316406 2.316406-2.347656 6.058594-.074218 8.410156l13.800781 13.800781h-59.015625c-3.316406 0-6 2.6875-6 6s2.683594 6 6 6h59.011718l-13.800781 13.800782c-1.535156 1.511718-2.144531 3.730468-1.589843 5.8125.550781 2.085937 2.179687 3.710937 4.261718 4.265625 2.082032.550781 4.304688-.058594 5.816406-1.59375l24.039063-24.039063c2.339844-2.34375 2.339844-6.140625 0-8.484375zm0 0"/><path d="m310.8125 297.972656h.695312c3.3125 0 6-2.6875 6-6s-2.6875-6-6-6h-.695312c-3.3125 0-6 2.6875-6 6s2.6875 6 6 6zm0 0"/><path d="m338.671875 297.972656h.324219c3.316406 0 6-2.6875 6-6s-2.683594-6-6-6h-.324219c-3.3125 0-6 2.6875-6 6s2.6875 6 6 6zm0 0"/></svg>