<svg height="492pt" viewBox="0 -41 492.00143 492" width="492pt" xmlns="http://www.w3.org/2000/svg"><path d="m455.75 0h-383.195312c-20.011719.0234375-36.230469 16.238281-36.253907 36.253906v158.199219c-35.792969 36.507813-46.195312 90.925781-26.382812 138.058594 19.808593 47.132812 65.960937 77.78125 117.089843 77.753906 67.015626 0 122.070313-52.175781 126.6875-118.035156h202.054688c20.011719-.023438 36.226562-16.242188 36.25-36.25v-219.726563c-.023438-20.011718-16.238281-36.2304685-36.25-36.253906zm-328.742188 398.265625c-63.515624 0-115.007812-51.492187-115.007812-115.007813 0-63.519531 51.492188-115.007812 115.011719-115.007812 63.515625 0 115.007812 51.492188 115.007812 115.007812-.074219 63.488282-51.523437 114.9375-115.011719 115.007813zm352.992188-142.285156c-.011719 13.386719-10.863281 24.238281-24.25 24.253906h-201.769531c-1.121094-48.128906-29.371094-91.484375-72.949219-111.949219-43.574219-20.460937-94.980469-14.511718-132.730469 15.363282v-147.394532c.015625-13.390625 10.867188-24.238281 24.253907-24.253906h383.195312c13.386719.015625 24.238281 10.863281 24.25 24.253906zm0 0"/><path d="m385.414062 167.359375c-6.738281-.007813-13.390624 1.511719-19.460937 4.4375-18.882813-9.078125-41.53125-3.898437-54.59375 12.484375-13.058594 16.382812-13.058594 39.617188 0 56 13.0625 16.382812 35.710937 21.5625 54.59375 12.484375 16.648437 8.003906 36.5 5.003906 50.035156-7.566406 13.535157-12.570313 17.996094-32.144531 11.242188-49.339844-6.753907-17.191406-23.34375-28.496094-41.816407-28.496094zm-38.921874 77.84375c-12.671876.011719-24.226563-7.253906-29.707032-18.679687-5.484375-11.425782-3.921875-24.984376 4.015625-34.863282s20.84375-14.324218 33.183594-11.429687c-8.628906 8.433593-13.488281 19.984375-13.488281 32.050781 0 12.0625 4.859375 23.613281 13.488281 32.046875-2.457031.578125-4.96875.871094-7.492187.875zm32.921874-32.921875c-.003906 10.484375-5 20.339844-13.460937 26.53125-8.460937-6.191406-13.460937-16.046875-13.460937-26.53125s5-20.339844 13.460937-26.53125c8.457031 6.191406 13.457031 16.046875 13.460937 26.53125zm6 32.921875c-2.519531-.003906-5.035156-.292969-7.488281-.871094 8.625-8.433593 13.488281-19.988281 13.488281-32.050781s-4.863281-23.617188-13.488281-32.046875c12.332031-2.882813 25.226563 1.566406 33.15625 11.441406 7.933594 9.875 9.492188 23.421875 4.019531 34.84375-5.476562 11.421875-17.019531 18.6875-29.6875 18.683594zm0 0"/><path d="m81.78125 66.863281h160.089844c3.3125 0 6-2.6875 6-6s-2.6875-6-6-6h-160.089844c-3.316406 0-6 2.6875-6 6s2.683594 6 6 6zm0 0"/><path d="m280.957031 54.863281h-17.339843c-3.3125 0-6 2.6875-6 6s2.6875 6 6 6h17.339843c3.3125 0 6-2.6875 6-6s-2.6875-6-6-6zm0 0"/><path d="m89.257812 85.117188h-7.476562c-3.316406 0-6 2.683593-6 6 0 3.3125 2.683594 6 6 6h7.476562c3.316407 0 6-2.6875 6-6 0-3.316407-2.683593-6-6-6zm0 0"/><path d="m211.621094 85.117188h-99.964844c-3.316406 0-6 2.683593-6 6 0 3.3125 2.683594 6 6 6h99.964844c3.3125 0 6-2.6875 6-6 0-3.316407-2.6875-6-6-6zm0 0"/><path d="m280.957031 85.117188h-47.589843c-3.316407 0-6 2.683593-6 6 0 3.3125 2.683593 6 6 6h47.589843c3.3125 0 6-2.6875 6-6 0-3.316407-2.6875-6-6-6zm0 0"/><path d="m169.5625 225.164062c3.316406.015626 6.015625-2.65625 6.03125-5.96875.019531-3.316406-2.652344-6.015624-5.96875-6.03125l-60.199219-.644531-24.128906-.261719c-3.3125-.035156-6.03125 2.621094-6.066406 5.9375-.035157 3.3125 2.625 6.027344 5.9375 6.0625l24.128906.261719c14.355469.15625 26.617187 10.398438 29.328125 24.5l-53.71875-.578125h-.066406c-3.3125-.015625-6.011719 2.65625-6.03125 5.96875-.015625 3.3125 2.65625 6.015625 5.96875 6.03125l53.714844.578125c-3 13.90625-15.289063 23.84375-29.515626 23.863281-.105468 0-.21875 0-.328124 0l-24.128907-.257812h-.066406c-2.441406.003906-4.636719 1.488281-5.550781 3.75-.914063 2.265625-.367188 4.859375 1.386718 6.558594l59.703126 57.636718c1.535156 1.515626 3.769531 2.089844 5.84375 1.503907 2.078124-.589844 3.679687-2.246094 4.195312-4.34375.515625-2.097657-.136719-4.308594-1.707031-5.789063l-48.847657-47.164062 9.046876.101562h.460937c20.792969-.03125 38.46875-15.191406 41.675781-35.734375l18.449219.199219h.066406c3.3125.015625 6.011719-2.65625 6.03125-5.96875.015625-3.316406-2.65625-6.015625-5.96875-6.03125l-18.445312-.199219c-1.175781-9.042969-5.273438-17.457031-11.671875-23.953125-.121094-.125-.246094-.238281-.367188-.359375l30.742188.328125zm0 0"/></svg>