<svg height="491pt" viewBox="-56 0 491 491.994" width="491pt" xmlns="http://www.w3.org/2000/svg"><path d="m122.828125 54.847656c0-3.3125-2.683594-6-6-6h-72.726563c-3.3125 0-6 2.6875-6 6s2.6875 6 6 6h72.726563c3.316406 0 6-2.6875 6-6zm0 0"/><path d="m305.574219 240.953125c0 1.59375.632812 3.117187 1.757812 4.242187l31.742188 31.746094c9.1875 9.160156 24.050781 9.160156 33.234375 0 9.164062-9.183594 9.164062-24.050781 0-33.230468l-31.742188-31.746094c-2.34375-2.34375-6.140625-2.34375-8.484375 0l-8.136719 8.136718-28.570312-28.570312c34.683594-39.164062 32.886719-98.558594-4.105469-135.550781-16.988281-17.085938-39.667969-27.328125-63.714843-28.78125v-21.199219c0-3.3125-2.6875-6-6-6-8.554688 0-13.125 3.078125-16.800782 5.550781-3.019531 2.035157-5.199218 3.5-10.09375 3.5-4.890625 0-7.070312-1.46875-10.089844-3.5-3.667968-2.472656-8.234374-5.550781-16.789062-5.550781s-13.125 3.078125-16.792969 5.550781c-3.019531 2.035157-5.203125 3.5-10.089843 3.5-4.890626 0-7.070313-1.46875-10.089844-3.5-3.671875-2.472656-8.238282-5.550781-16.792969-5.550781-8.550781 0-13.121094 3.078125-16.792969 5.550781-3.019531 2.035157-5.199218 3.5-10.089844 3.5-4.886718 0-7.066406-1.46875-10.085937-3.5-3.671875-2.472656-8.242187-5.550781-16.792969-5.550781-8.554687 0-13.121094 3.078125-16.792968 5.550781-3.019532 2.035157-5.199219 3.5-10.085938 3.5s-7.066406-1.46875-10.085938-3.5c-3.671874-2.472656-8.242187-5.550781-16.792968-5.550781-3.3125 0-6 2.6875-6 6v370.40625c.03125 26.273438 21.324218 47.5625 47.597656 47.59375 1.410156 0 2.804688-.074219 4.1875-.195312h111.207031v16.832031c.03125 28.304687 22.96875 51.242187 51.273438 51.273437h155.601562c.753907.054688 1.511719.082032 2.28125.082032 3.328125-.039063 6.003907-2.753907 6-6.082032 0-3.3125-2.6875-6-6-6h-1.78125c-9.582031-.929687-16.898437-8.976562-16.910156-18.605468v-99.898438c-.03125-28.304688-22.96875-51.242188-51.273437-51.273438h-75.125v-85.449218c21.972656-1.394532 42.855468-10.074219 59.335937-24.675782l28.574219 28.574219-8.132813 8.128907c-1.125 1.125-1.757812 2.652343-1.757812 4.242187zm2.671875-115.011719c-.003906 47.875-38.710938 86.742188-86.589844 86.941406-.035156 0-.066406-.003906-.101562-.003906-.097657 0-.199219.007813-.292969.015625h-.03125c-48.011719-.039062-86.90625-38.980469-86.882813-86.992187.023438-48.011719 38.957032-86.917969 86.96875-86.90625 48.011719.007812 86.925782 38.933594 86.929688 86.945312zm-228.382813 285.871094c10.070313-9.011719 15.828125-21.886719 15.824219-35.402344v-20.375c0-18.722656 15.179688-33.902344 33.902344-33.902344 18.71875 0 33.898437 15.179688 33.898437 33.902344v55.777344zm262.085938-50.402344v99.902344c-.003907 6.726562 2.207031 13.265625 6.300781 18.601562h-133.488281c-21.679688-.023437-39.25-17.59375-39.273438-39.273437v-84.605469c.003907-12.910156-5.4375-25.21875-14.988281-33.902344h142.175781c21.679688.027344 39.25 17.59375 39.273438 39.277344zm-210.945313-51.273437c-.125 0-.25 0-.375.007812-.347656-.007812-.695312-.007812-1.042968-.007812-25.335938.027343-45.871094 20.558593-45.898438 45.898437v20.375c-.308594 19.4375-16.15625 35.03125-35.597656 35.03125-19.4375 0-35.285156-15.59375-35.59375-35.03125v-363.308594c1.433594.667969 2.804687 1.472657 4.085937 2.398438 3.671875 2.472656 8.242188 5.550781 16.792969 5.550781s13.121094-3.078125 16.789062-5.550781c3.019532-2.03125 5.203126-3.5 10.089844-3.5 4.886719 0 7.066406 1.46875 10.089844 3.5 3.667969 2.472656 8.238281 5.550781 16.789062 5.550781 8.554688 0 13.125-3.078125 16.792969-5.550781 3.019531-2.035156 5.203125-3.5 10.089844-3.5 4.890625 0 7.070313 1.46875 10.089844 3.5 3.671875 2.472656 8.238281 5.550781 16.792969 5.550781 8.550781 0 13.121093-3.078125 16.792968-5.550781 3.019532-2.03125 5.199219-3.5 10.089844-3.5s7.070312 1.472656 10.089844 3.5c3.671875 2.472656 8.242187 5.550781 16.800781 5.550781s13.125-3.078125 16.800781-5.550781c1.285156-.929688 2.652344-1.734375 4.089844-2.40625v14.078125c-39.449219 2.324219-73.75 27.863281-87.289062 64.992187h-45.964844c-3.3125 0-6 2.6875-6 6s2.6875 6 6 6h42.453125c-1.59375 7.148438-2.394531 14.453126-2.390625 21.777344 0 3.207032.152344 6.386719.453125 9.539063h-40.515625c-3.3125 0-6 2.6875-6 6s2.6875 6 6 6h42.398437c2.453125 11.109375 6.824219 21.710937 12.921875 31.316406h-55.320312c-3.3125 0-6 2.6875-6 6s2.6875 6 6 6h64.28125c1.523437 1.746094 3.109375 3.445313 4.757812 5.101563 17.128906 17.171874 39.984375 27.429687 64.203125 28.820312v85.414062zm205.320313-85.445313 27.5 27.5c4.484375 4.496094 4.484375 11.769532 0 16.265625-4.496094 4.484375-11.769531 4.484375-16.265625 0l-27.5-27.5zm0 0"/><path d="m60.566406 92.164062h-16.464844c-3.3125 0-6 2.6875-6 6s2.6875 6 6 6h16.464844c3.3125 0 6-2.6875 6-6s-2.6875-6-6-6zm0 0"/><path d="m60.566406 135.480469h-16.464844c-3.3125 0-6 2.6875-6 6s2.6875 6 6 6h16.464844c3.3125 0 6-2.6875 6-6s-2.6875-6-6-6zm0 0"/><path d="m60.566406 178.800781h-16.464844c-3.3125 0-6 2.683594-6 6 0 3.3125 2.6875 6 6 6h16.464844c3.3125 0 6-2.6875 6-6 0-3.316406-2.6875-6-6-6zm0 0"/><path d="m82.308594 234.113281h101.636718c3.3125 0 6-2.6875 6-6s-2.6875-6-6-6h-101.636718c-3.3125 0-6 2.6875-6 6s2.6875 6 6 6zm0 0"/><path d="m60.566406 222.113281h-16.464844c-3.3125 0-6 2.6875-6 6s2.6875 6 6 6h16.464844c3.3125 0 6-2.6875 6-6s-2.6875-6-6-6zm0 0"/><path d="m183.945312 260.429688h-101.636718c-3.3125 0-6 2.6875-6 6s2.6875 6 6 6h101.636718c3.3125 0 6-2.6875 6-6s-2.6875-6-6-6zm0 0"/><path d="m60.566406 260.429688h-16.464844c-3.3125 0-6 2.6875-6 6s2.6875 6 6 6h16.464844c3.3125 0 6-2.6875 6-6s-2.6875-6-6-6zm0 0"/><path d="m245.132812 439.367188h61.398438c3.3125 0 6-2.683594 6-6 0-3.3125-2.6875-6-6-6h-61.398438c-3.316406 0-6 2.6875-6 6 0 3.316406 2.683594 6 6 6zm0 0"/><path d="m224.636719 427.367188h-17.070313c-3.3125 0-6 2.6875-6 6 0 3.316406 2.6875 6 6 6h17.070313c3.3125 0 6-2.683594 6-6 0-3.3125-2.6875-6-6-6zm0 0"/><path d="m245.132812 404.367188h61.398438c3.3125 0 6-2.683594 6-6 0-3.3125-2.6875-6-6-6h-61.398438c-3.316406 0-6 2.6875-6 6 0 3.316406 2.683594 6 6 6zm0 0"/><path d="m224.636719 392.367188h-17.070313c-3.3125 0-6 2.6875-6 6 0 3.316406 2.6875 6 6 6h17.070313c3.3125 0 6-2.683594 6-6 0-3.3125-2.6875-6-6-6zm0 0"/><path d="m245.132812 369.367188h61.398438c3.3125 0 6-2.683594 6-6 0-3.3125-2.6875-6-6-6h-61.398438c-3.316406 0-6 2.6875-6 6 0 3.316406 2.683594 6 6 6zm0 0"/><path d="m201.566406 363.367188c0 3.316406 2.6875 6 6 6h17.070313c3.3125 0 6-2.683594 6-6 0-3.3125-2.6875-6-6-6h-17.070313c-3.3125 0-6 2.6875-6 6zm0 0"/><path d="m215.308594 65.941406v7.433594c-14.710938 3.078125-24.714844 16.773438-23.167969 31.722656 1.542969 14.949219 14.140625 26.308594 29.167969 26.3125 9.527344.011719 17.257812 7.710938 17.300781 17.238282.046875 9.527343-7.609375 17.304687-17.136719 17.40625-.054687 0-.109375-.007813-.164062-.007813-.054688 0-.109375.007813-.164063.007813-9.5-.097657-17.152343-7.820313-17.164062-17.320313 0-3.3125-2.683594-6-6-6-3.3125 0-6 2.6875-6 6 .019531 13.878906 9.746093 25.851563 23.328125 28.707031v8.5c0 3.316406 2.6875 6 6 6s6-2.683594 6-6v-8.5c14.710937-3.074218 24.71875-16.769531 23.171875-31.722656-1.546875-14.949219-14.144531-26.3125-29.171875-26.308594-9.570313 0-17.324219-7.757812-17.324219-17.328125 0-9.570312 7.757813-17.324219 17.324219-17.324219 9.570312 0 17.328125 7.757813 17.328125 17.324219 0 3.316407 2.683593 6 6 6 3.3125 0 6-2.683593 6-6-.019531-13.875-9.75-25.847656-23.328125-28.707031v-7.433594c0-3.316406-2.6875-6-6-6s-6 2.683594-6 6zm0 0"/></svg>