<svg height="503pt" viewBox="-56 0 503 503.6882" width="503pt" xmlns="http://www.w3.org/2000/svg"><path d="m169.667969 76.054688h62.9375c3.3125 0 6-2.6875 6-6 0-3.316407-2.6875-6-6-6h-62.9375c-3.316407 0-6 2.683593-6 6 0 3.3125 2.683593 6 6 6zm0 0"/><path d="m169.667969 101.476562h62.9375c3.3125 0 6-2.6875 6-6 0-3.316406-2.6875-6-6-6h-62.9375c-3.316407 0-6 2.683594-6 6 0 3.3125 2.683593 6 6 6zm0 0"/><path d="m40.085938 245.660156h2.320312c3.316406 0 6-2.683594 6-6 0-3.3125-2.683594-6-6-6h-2.320312c-3.316407 0-6 2.6875-6 6 0 3.316406 2.683593 6 6 6zm0 0"/><path d="m83.160156 233.660156h-17.558594c-3.316406 0-6 2.6875-6 6 0 3.316406 2.683594 6 6 6h17.558594c3.316406 0 6-2.683594 6-6 0-3.3125-2.683594-6-6-6zm0 0"/><path d="m232.605469 233.660156h-125.875c-3.316407 0-6 2.6875-6 6 0 3.316406 2.683593 6 6 6h125.875c3.3125 0 6-2.683594 6-6 0-3.3125-2.6875-6-6-6zm0 0"/><path d="m40.085938 196.136719h2.320312c3.316406 0 6-2.6875 6-6s-2.683594-6-6-6h-2.320312c-3.316407 0-6 2.6875-6 6s2.683593 6 6 6zm0 0"/><path d="m83.160156 184.136719h-17.558594c-3.316406 0-6 2.6875-6 6s2.683594 6 6 6h17.558594c3.316406 0 6-2.6875 6-6s-2.683594-6-6-6zm0 0"/><path d="m232.605469 184.136719h-125.875c-3.316407 0-6 2.6875-6 6s2.683593 6 6 6h125.875c3.3125 0 6-2.6875 6-6s-2.6875-6-6-6zm0 0"/><path d="m40.085938 305.183594h2.320312c3.316406 0 6-2.683594 6-6 0-3.3125-2.683594-6-6-6h-2.320312c-3.316407 0-6 2.6875-6 6 0 3.316406 2.683593 6 6 6zm0 0"/><path d="m83.160156 293.183594h-17.558594c-3.316406 0-6 2.6875-6 6 0 3.316406 2.683594 6 6 6h17.558594c3.316406 0 6-2.683594 6-6 0-3.3125-2.683594-6-6-6zm0 0"/><path d="m54.851562 359.15625c4.839844.003906 8.761719 3.925781 8.765626 8.765625 0 3.3125 2.6875 6 6 6s6-2.6875 6-6c-.011719-9.152344-6.007813-17.21875-14.765626-19.875v-3c0-3.3125-2.6875-6-6-6-3.316406 0-6 2.6875-6 6v3c-9.859374 2.976563-16.046874 12.726563-14.542968 22.910156 1.503906 10.1875 10.246094 17.730469 20.542968 17.734375 4.839844-.03125 8.785157 3.871094 8.8125 8.710938.027344 4.839844-3.875 8.789062-8.714843 8.816406-.03125 0-.066407 0-.097657 0-.035156 0-.070312 0-.101562 0-4.796875-.0625-8.660156-3.964844-8.664062-8.761719 0-3.316406-2.6875-6-6-6-3.316407 0-6 2.683594-6 6 .011718 9.152344 6.007812 17.21875 14.765624 19.875v3.675781c0 3.3125 2.6875 6 6 6s6-2.6875 6-6v-3.675781c9.859376-2.976562 16.046876-12.726562 14.542969-22.910156-1.503906-10.1875-10.246093-17.734375-20.542969-17.730469-4.804687-.054687-8.675781-3.964844-8.675781-8.769531s3.871094-8.714844 8.675781-8.765625zm0 0"/><path d="m268.945312.597656c-2.078124-1-4.546874-.71875-6.347656.722656l-28.753906 23-28.757812-23c-2.191407-1.753906-5.308594-1.753906-7.5 0l-28.753907 23-28.75-23c-2.191406-1.753906-5.308593-1.753906-7.5 0l-28.75 23-28.753906-23c-2.191406-1.753906-5.308594-1.753906-7.5 0l-28.734375 23-28.746094-23c-1.800781-1.445312-4.269531-1.726562-6.351562-.730468-2.082032 1-3.402344 3.105468-3.402344 5.414062v471.464844c0 2.308594 1.320312 4.410156 3.402344 5.410156 2.078125 1 4.542968.71875 6.347656-.722656l28.753906-23 28.757813 23c2.195312 1.753906 5.308593 1.753906 7.5 0l28.753906-23 28.75 23c2.195313 1.753906 5.308594 1.753906 7.5 0l29-23.199219c37.066406 43.921875 99.160156 57.191407 150.941406 32.253907 51.78125-24.941407 80.117188-81.765626 68.878907-138.128907-11.238282-56.363281-59.199219-97.972656-116.585938-101.148437v-245.929688c0-2.304687-1.320312-4.410156-3.398438-5.40625zm-132.589843 469.191406-28.75-23c-2.195313-1.757812-5.308594-1.757812-7.5 0l-28.753907 23-28.757812-23c-2.191406-1.757812-5.308594-1.757812-7.5 0l-22.75 18.199219v-446.5l22.746094 18.199219c2.191406 1.757812 5.308594 1.757812 7.5 0l28.746094-23 28.753906 23c2.191406 1.757812 5.304687 1.757812 7.5 0l28.75-23 28.75 23c2.191406 1.757812 5.308594 1.757812 7.5 0l28.753906-23 28.757812 23c2.191407 1.757812 5.308594 1.757812 7.5 0l22.757813-18.199219v233.355469c-33.808594 1.332031-65.652344 16.234375-88.335937 41.339844h-65.292969c-3.316407 0-6 2.6875-6 6 0 3.316406 2.683593 6 6 6h55.65625c-30.503907 43.179687-30.742188 100.824218-.59375 144.25zm242.988281-92.050781c0 62.960938-51.039062 114-114 114s-114-51.039062-114-114c0-62.960937 51.039062-114 114-114 62.929688.070313 113.929688 51.066407 114 114zm0 0"/><path d="m108.34375 359.15625c4.839844.003906 8.761719 3.925781 8.765625 8.765625 0 3.3125 2.6875 6 6 6 3.316406 0 6-2.6875 6-6-.011719-9.152344-6.007813-17.21875-14.765625-19.875v-3c0-3.3125-2.6875-6-6-6s-6 2.6875-6 6v3c-9.859375 2.972656-16.050781 12.722656-14.546875 22.910156 1.503906 10.191407 10.25 17.734375 20.546875 17.734375 4.839844-.03125 8.785156 3.871094 8.8125 8.710938.03125 4.839844-3.871094 8.789062-8.710938 8.816406-.035156 0-.070312 0-.101562 0s-.066406 0-.101562 0c-4.796876-.0625-8.65625-3.964844-8.664063-8.761719 0-3.316406-2.683594-6-6-6-3.3125 0-6 2.683594-6 6 .015625 9.148438 6.007813 17.21875 14.765625 19.875v3.675781c0 3.3125 2.6875 6 6 6s6-2.6875 6-6v-3.675781c9.859375-2.976562 16.046875-12.726562 14.542969-22.910156-1.503907-10.1875-10.246094-17.734375-20.542969-17.730469-3.152344.03125-6.082031-1.632812-7.671875-4.359375-1.585937-2.726562-1.585937-6.09375 0-8.820312 1.589844-2.726563 4.519531-4.390625 7.671875-4.355469zm0 0"/><path d="m40.085938 152.320312h99.046874c3.3125 0 6-2.6875 6-6v-76.265624c0-3.316407-2.6875-6-6-6h-99.046874c-3.316407 0-6 2.683593-6 6v76.265624c0 3.3125 2.683593 6 6 6zm6-76.265624h87.046874v64.265624h-87.046874zm0 0"/><path d="m169.667969 152.320312h62.9375c3.3125 0 6-2.6875 6-6s-2.6875-6-6-6h-62.9375c-3.316407 0-6 2.6875-6 6s2.683593 6 6 6zm0 0"/><path d="m169.667969 126.898438h62.9375c3.3125 0 6-2.6875 6-6 0-3.316407-2.6875-6-6-6h-62.9375c-3.316407 0-6 2.683593-6 6 0 3.3125 2.683593 6 6 6zm0 0"/><path d="m231.816406 359.75c-7.511718-9.679688-20.246094-13.667969-31.933594-10.007812-11.691406 3.65625-19.878906 14.195312-20.53125 26.429687-.652343 12.230469 6.363282 23.582031 17.601563 28.464844 11.234375 4.882812 24.320313 2.269531 32.816406-6.554688l43.722657 15.953125c-3.523438 14.636719 4.585937 29.566406 18.78125 34.578125 14.191406 5.011719 29.878906-1.515625 36.328124-15.113281 6.449219-13.601562 1.574219-29.878906-11.289062-37.695312-12.863281-7.816407-29.554688-4.648438-38.65625 7.339843l-42.390625-15.464843c1.980469-5.492188 2.277344-11.453126.847656-17.113282l42.855469-16.640625c9.867188 11.199219 26.601562 13.136719 38.769531 4.492188s15.847657-25.082031 8.519531-38.089844c-7.324218-13.003906-23.289062-18.378906-36.988281-12.453125-13.703125 5.925781-20.714843 21.242188-16.253906 35.488281zm70.199219 43.78125c9.570313 0 17.332031 7.757812 17.332031 17.332031 0 9.570313-7.761718 17.328125-17.332031 17.328125s-17.328125-7.757812-17.328125-17.328125c.007812-9.566406 7.761719-17.320312 17.324219-17.332031zm-93.339844-8.460938c-9.574219 0-17.332031-7.757812-17.332031-17.332031 0-9.570312 7.757812-17.328125 17.332031-17.328125 9.570313 0 17.328125 7.757813 17.328125 17.332032-.011718 9.566406-7.761718 17.316406-17.328125 17.328124zm93.335938-77.785156c9.574219 0 17.332031 7.757813 17.332031 17.332032 0 9.570312-7.757812 17.332031-17.328125 17.332031-9.574219 0-17.332031-7.761719-17.332031-17.332031.007812-9.570313 7.761718-17.324219 17.328125-17.335938zm0 0"/></svg>