<svg height="482pt" viewBox="-52 0 482 482" width="482pt" xmlns="http://www.w3.org/2000/svg"><path d="m74.824219 251.699219h-39.324219c-3.3125 0-6 2.6875-6 6v39.328125c0 3.3125 2.6875 6 6 6h39.328125c3.3125 0 6-2.6875 6-6v-39.328125c0-3.316407-2.6875-6-6.003906-6zm-6 39.328125h-27.324219v-27.328125h27.328125zm0 0"/><path d="m140.699219 251.699219h-39.328125c-3.3125 0-6 2.6875-6 6v39.328125c0 3.3125 2.6875 6 6 6h39.328125c3.316406 0 6-2.6875 6-6v-39.328125c0-3.3125-2.683594-6-6-6zm-6 39.328125h-27.328125v-27.328125h27.328125zm0 0"/><path d="m212.476562 251.699219h-39.332031c-3.3125 0-6 2.6875-6 6v39.328125c0 3.3125 2.6875 6 6 6h39.332031c3.3125 0 6-2.6875 6-6v-39.328125c0-3.3125-2.6875-6-6-6zm-6 39.328125h-27.332031v-27.328125h27.332031zm0 0"/><path d="m74.824219 320.527344h-39.324219c-3.3125 0-6 2.6875-6 6v39.328125c0 3.316406 2.6875 6 6 6h39.328125c3.3125 0 6-2.683594 6-6v-39.328125c0-3.3125-2.6875-6-6.003906-6zm-6 39.328125h-27.324219v-27.328125h27.328125zm0 0"/><path d="m140.699219 320.527344h-39.328125c-3.3125 0-6 2.6875-6 6v39.328125c0 3.316406 2.6875 6 6 6h39.328125c3.316406 0 6-2.683594 6-6v-39.328125c0-3.3125-2.683594-6-6-6zm-6 39.328125h-27.328125v-27.328125h27.328125zm0 0"/><path d="m212.476562 320.527344h-39.332031c-3.3125 0-6 2.6875-6 6v39.328125c0 3.316406 2.6875 6 6 6h39.332031c3.3125 0 6-2.683594 6-6v-39.328125c0-3.3125-2.6875-6-6-6zm-6 39.328125h-27.332031v-27.328125h27.332031zm0 0"/><path d="m74.824219 389.355469h-39.324219c-3.3125 0-6 2.683593-6 6v39.328125c0 3.3125 2.6875 6 6 6h39.328125c3.3125 0 6-2.6875 6-6v-39.328125c0-3.316407-2.6875-6.003907-6.003906-6zm-6 39.328125h-27.324219v-27.328125h27.328125zm0 0"/><path d="m140.699219 389.355469h-39.328125c-3.3125 0-6 2.683593-6 6v39.328125c0 3.3125 2.6875 6 6 6h39.328125c3.316406 0 6-2.6875 6-6v-39.328125c0-3.316407-2.683594-6-6-6zm-6 39.328125h-27.328125v-27.328125h27.328125zm0 0"/><path d="m212.476562 389.355469h-39.332031c-3.3125 0-6 2.683593-6 6v39.328125c0 3.3125 2.6875 6 6 6h39.332031c3.3125 0 6-2.6875 6-6v-39.328125c0-3.316407-2.6875-6-6-6zm-6 39.328125h-27.332031v-27.328125h27.332031zm0 0"/><path d="m91.507812 177.292969c-.035156 0-.070312-.003907-.105468-.003907s-.070313.003907-.105469.003907c-4.738281-.058594-8.546875-3.914063-8.554687-8.652344 0-3.3125-2.683594-6-6-6-3.3125 0-6 2.6875-6 6 .011718 9.09375 5.960937 17.113281 14.65625 19.765625v3.613281c0 3.316407 2.6875 6 6 6 3.316406 0 6-2.683593 6-6v-3.613281c9.796874-2.972656 15.9375-12.671875 14.4375-22.800781-1.503907-10.125-10.199219-17.625-20.4375-17.621094-4.78125 0-8.65625-3.878906-8.660157-8.660156 0-4.78125 3.878907-8.660157 8.660157-8.660157s8.660156 3.878907 8.660156 8.660157c0 3.3125 2.6875 6 6 6s6-2.6875 6-6c-.011719-9.09375-5.960938-17.113281-14.660156-19.761719v-2.949219c0-3.316406-2.683594-6-6-6-3.3125 0-6 2.683594-6 6v2.949219c-9.792969 2.972656-15.9375 12.671875-14.433594 22.796875s10.199218 17.625 20.433594 17.625c4.753906.011719 8.605468 3.851563 8.632812 8.601563.03125 4.75-3.773438 8.636718-8.523438 8.707031zm0 0"/><path d="m157.074219 70.53125h12.246093c3.316407 0 6-2.683594 6-6 0-3.3125-2.683593-6-6-6h-12.246093c-3.3125 0-6 2.6875-6 6 0 3.316406 2.6875 6 6 6zm0 0"/><path d="m76.742188 70.53125h59.175781c3.316406 0 6-2.683594 6-6 0-3.3125-2.683594-6-6-6h-59.175781c-3.3125 0-6 2.6875-6 6 0 3.316406 2.6875 6 6 6zm0 0"/><path d="m147.242188 188h22.078124c3.316407 0 6-2.6875 6-6s-2.683593-6-6-6h-22.078124c-3.3125 0-6 2.6875-6 6s2.6875 6 6 6zm0 0"/><path d="m130.867188 176h-3.289063c-3.3125 0-6 2.6875-6 6s2.6875 6 6 6h3.289063c3.316406 0 6-2.6875 6-6s-2.683594-6-6-6zm0 0"/><path d="m76.742188 100.027344h59.175781c3.316406 0 6-2.683594 6-6 0-3.3125-2.683594-6-6-6h-59.175781c-3.3125 0-6 2.6875-6 6 0 3.316406 2.6875 6 6 6zm0 0"/><path d="m157.074219 41.035156h12.246093c3.316407 0 6-2.683594 6-6 0-3.3125-2.683593-6-6-6h-12.246093c-3.3125 0-6 2.6875-6 6 0 3.316406 2.6875 6 6 6zm0 0"/><path d="m76.742188 41.035156h59.175781c3.316406 0 6-2.683594 6-6 0-3.3125-2.683594-6-6-6h-59.175781c-3.3125 0-6 2.6875-6 6 0 3.316406 2.6875 6 6 6zm0 0"/><path d="m361.15625 220.128906h-92.515625v-85.339844c-.007813-8.742187-7.09375-15.832031-15.839844-15.839843h-31.5c-.144531 0-.285156.011719-.425781.019531h-22.0625v-21.023438l53.167969.847657c1.605469.035156 3.160156-.585938 4.296875-1.722657 1.148437-1.128906 1.792968-2.667968 1.792968-4.273437v-57.164063c-.023437-19.667968-15.960937-35.6093745-35.628906-35.632812h-137.785156c-19.597656.0195312-35.480469 15.902344-35.5 35.5v83.46875h-23.5c-14.164062.023438-25.640625 11.5-25.65625 25.664062v311.679688c.015625 14.167969 11.496094 25.652344 25.664062 25.667969h195.210938c.140625.007812.28125.019531.425781.019531h31.5c8.746094-.011719 15.832031-7.097656 15.84375-15.84375v-19.640625h92.515625c8.746094-.015625 15.828125-7.101563 15.839844-15.84375v-194.703125c-.011719-8.742188-7.097656-15.828125-15.84375-15.839844zm-104.515625-85.339844v85.339844h-8.667969v-75.496094c.003906-4.84375-1.375-9.59375-3.96875-13.683593h8.796875c2.121094.003906 3.839844 1.722656 3.839844 3.839843zm-57.828125 25.675782h7.664062v46.996094h-7.664062zm47.261719-124.832032v51.066407l-47.261719-.753907v-50.3125c-.058594-8.480468 4.433594-16.339843 11.769531-20.59375 7.335938-4.257812 16.386719-4.257812 23.722657 0 7.332031 4.253907 11.824218 12.113282 11.769531 20.59375zm-184.914063-.132812c.011719-12.972656 10.527344-23.488281 23.5-23.5h111.148438c-5.796875 6.503906-9 14.917969-8.992188 23.632812v171.828126h-125.65625zm-19.660156 171.960938v-46.996094h7.664062v46.996094zm-29.5 248.851562v-311.679688c.007812-7.542968 6.121094-13.652343 13.664062-13.664062h23.5v17.5h-13.664062c-3.3125 0-6 2.6875-6 6v58.996094c0 3.3125 2.6875 6 6 6h176.976562c3.3125 0 6-2.6875 6-6v-59c0-3.3125-2.6875-6-6-6h-13.664062v-17.5h23.5c7.542969.011718 13.652344 6.121094 13.664062 13.664062v311.679688c-.011718 7.542968-6.121093 13.65625-13.664062 13.667968h-196.648438c-7.542968-.011718-13.652343-6.121093-13.664062-13.664062zm244.644531 9.84375c-.003906 2.121094-1.722656 3.839844-3.84375 3.84375h-8.800781c2.597656-4.09375 3.972656-8.839844 3.96875-13.6875v-9.796875h8.671875zm108.355469-35.484375c-.003906 2.121094-1.722656 3.839844-3.84375 3.84375h-113.183594v-202.386719h113.183594c2.125.003906 3.84375 1.722656 3.84375 3.84375zm0 0"/><path d="m328.707031 253.519531c-9.5-.003906-18.363281 4.765625-23.59375 12.699219-5.226562 7.929688-6.121093 17.957031-2.375 26.6875-5.078125 11.835938-1.511719 25.605469 8.671875 33.488281 10.1875 7.882813 24.410156 7.882813 34.59375 0 10.1875-7.882812 13.753906-21.652343 8.675782-33.488281 3.746093-8.730469 2.851562-18.757812-2.378907-26.6875-5.226562-7.933594-14.09375-12.703125-23.59375-12.699219zm0 12c8.636719.011719 15.757813 6.773438 16.21875 15.398438-9.726562-6.847657-22.707031-6.847657-32.433593 0 .460937-8.625 7.578124-15.386719 16.214843-15.398438zm11.820313 27.386719c-3.058594 3.273438-7.339844 5.128906-11.820313 5.128906s-8.757812-1.855468-11.820312-5.128906c3.0625-3.273438 7.339843-5.128906 11.820312-5.128906s8.761719 1.855468 11.820313 5.128906zm-11.820313 27.394531c-8.636719-.015625-15.753906-6.777343-16.214843-15.402343 9.726562 6.847656 22.707031 6.847656 32.433593 0-.460937 8.625-7.582031 15.386718-16.21875 15.402343zm0 0"/><path d="m341.125 372.308594c-3.3125 0-6 2.6875-6 6v.167968c0 3.3125 2.6875 6 6 6s6-2.6875 6-6v-.167968c0-3.3125-2.6875-6-6-6zm0 0"/><path d="m341.125 386.570312c-3.3125 0-6 2.6875-6 6v27.335938c0 3.3125 2.6875 6 6 6s6-2.6875 6-6v-27.335938c0-3.3125-2.6875-6-6-6zm0 0"/><path d="m321.089844 372.308594c-3.3125 0-6 2.6875-6 6v27.226562c0 3.3125 2.6875 6 6 6 3.316406 0 6-2.6875 6-6v-27.226562c0-3.3125-2.683594-6-6-6zm0 0"/><path d="m321.089844 413.632812c-3.3125 0-6 2.683594-6 6v.273438c0 3.3125 2.6875 6 6 6 3.316406 0 6-2.6875 6-6v-.273438c0-3.316406-2.683594-6-6-6zm0 0"/><path d="m288.449219 205.601562c0 3.3125 2.6875 6 6 6s6-2.6875 6-6v-63.742187c0-3.3125-2.6875-6-6-6s-6 2.6875-6 6zm0 0"/><path d="m288.449219 120.414062c0 3.3125 2.6875 6 6 6s6-2.6875 6-6v-16.414062c0-3.3125-2.6875-6-6-6s-6 2.6875-6 6zm0 0"/><path d="m294.449219 91.339844c3.3125 0 6-2.6875 6-6v-3.039063c0-3.316406-2.6875-6-6-6s-6 2.683594-6 6v3.039063c0 3.3125 2.6875 6 6 6zm0 0"/><path d="m318.449219 205.601562c0 3.3125 2.6875 6 6 6s6-2.6875 6-6v-3.746093c0-3.3125-2.6875-6-6-6s-6 2.6875-6 6zm0 0"/><path d="m318.449219 180.414062c0 3.3125 2.6875 6 6 6s6-2.6875 6-6v-26.414062c0-3.3125-2.6875-6-6-6s-6 2.6875-6 6zm0 0"/><path d="m324.449219 138.300781c3.3125 0 6-2.6875 6-6v-6.960937c0-3.3125-2.6875-6-6-6s-6 2.6875-6 6v6.960937c0 3.3125 2.6875 6 6 6zm0 0"/><path d="m348.449219 205.601562c0 3.3125 2.6875 6 6 6s6-2.6875 6-6v-33.742187c0-3.3125-2.6875-6-6-6s-6 2.6875-6 6zm0 0"/><path d="m348.449219 150.414062c0 3.3125 2.6875 6 6 6s6-2.6875 6-6v-6.414062c0-3.3125-2.6875-6-6-6s-6 2.6875-6 6zm0 0"/><path d="m354.449219 73.53125c3.3125 0 6-2.683594 6-6v-12.191406c0-3.3125-2.6875-6-6-6s-6 2.6875-6 6v12.191406c0 3.316406 2.6875 6 6 6zm0 0"/><path d="m348.449219 122.300781c0 3.3125 2.6875 6 6 6s6-2.6875 6-6v-33.480469c0-3.316406-2.6875-6-6-6s-6 2.683594-6 6zm0 0"/></svg>