<svg height="495pt" viewBox="-74 0 495 495.73354" width="495pt" xmlns="http://www.w3.org/2000/svg"><path d="m143.214844 255.714844h-39.953125c-3.316407 0-6 2.683594-6 6v39.957031c0 3.3125 2.683593 6 6 6h39.953125c3.316406 0 6-2.6875 6-6v-39.957031c0-3.316406-2.683594-6-6-6zm-6 39.957031h-27.953125v-27.957031h27.953125zm0 0"/><path d="m216.136719 255.714844h-39.957031c-3.316407 0-6 2.683594-6 6v39.957031c0 3.3125 2.683593 6 6 6h39.957031c3.3125 0 6-2.6875 6-6v-39.957031c0-3.3125-2.6875-6-6-6zm-6 39.957031h-27.957031v-27.957031h27.957031zm0 0"/><path d="m76.289062 255.714844h-39.957031c-3.3125 0-6 2.683594-6 6v109.878906c0 3.3125 2.6875 6 6 6h39.957031c3.3125 0 6-2.6875 6-6v-109.878906c0-3.316406-2.6875-6-6-6zm-6 109.878906h-27.957031v-97.878906h27.957031zm0 0"/><path d="m143.214844 325.636719h-39.953125c-3.316407 0-6 2.6875-6 6v39.957031c0 3.3125 2.683593 6 6 6h39.953125c3.316406 0 6-2.6875 6-6v-39.957031c0-3.3125-2.683594-6-6-6zm-6 39.957031h-27.953125v-27.957031h27.953125zm0 0"/><path d="m76.289062 395.5625h-39.957031c-3.3125 0-6 2.6875-6 6v39.957031c0 3.3125 2.6875 6 6 6h39.957031c3.3125 0 6-2.6875 6-6v-39.957031c0-3.3125-2.6875-6-6-6zm-6 39.957031h-27.957031v-27.957031h27.957031zm0 0"/><path d="m143.214844 395.5625h-39.953125c-3.316407 0-6 2.6875-6 6v39.957031c0 3.3125 2.683593 6 6 6h39.953125c3.316406 0 6-2.6875 6-6v-39.957031c0-3.3125-2.683594-6-6-6zm-6 39.957031h-27.953125v-27.957031h27.953125zm0 0"/><path d="m256.269531 100.175781c1.609375.019531 3.160157-.601562 4.308594-1.726562 1.144531-1.125 1.792969-2.667969 1.792969-4.273438v-58.074219c-.027344-19.929687-16.175782-36.0781245-36.101563-36.101562-.03125 0-.0625 0-.089843 0-.015626 0-.03125 0-.046876 0h-139.855468c-19.851563.0234375-35.941406 16.109375-35.964844 35.964844v84.898437h-33.945312c-8.832032.011719-15.992188 7.167969-16 16v336.605469c.011718 8.832031 7.167968 15.992188 16 16h140.011718c5.234375 4.097656 11.699219 6.304688 18.34375 6.265625h143.28125c10.785156 0 20.722656-5.835937 25.976563-15.25 5.257812-9.414063 5.007812-20.9375-.652344-30.113281l-71.582031-124.40625c-.042969-.070313-.082032-.140625-.125-.210938-4.339844-7.019531-11.417969-11.90625-19.519532-13.476562v-175.414063c-.007812-8.832031-7.167968-15.988281-16-16h-33.945312v-21.550781zm-5.898437-64.074219v51.976563l-48.210938-.769531v-51.207032c0-13.3125 10.792969-24.105468 24.105469-24.105468s24.105469 10.792968 24.105469 24.105468zm-188.058594-.136718c.011719-13.234375 10.734375-23.957032 23.964844-23.96875h113.132812c-5.960937 6.609375-9.257812 15.195312-9.253906 24.097656v174.671875h-127.84375zm139.84375 126.863281h7.980469v47.9375h-7.980469zm-159.824219 47.9375v-47.9375h7.980469v47.9375zm217.347657 122.296875 71.570312 124.386719c.042969.070312.082031.140625.125.210937 3.023438 4.855469 3.175781 10.96875.398438 15.96875-2.777344 5.003906-8.046876 8.105469-13.765626 8.105469h-143.28125c-3.078124.011719-6.089843-.878906-8.664062-2.570313-.390625-.378906-.828125-.703124-1.308594-.964843-1.542968-1.273438-2.832031-2.820313-3.800781-4.570313-2.816406-4.988281-2.664063-11.125.402344-15.96875.042969-.070312.082031-.140625.125-.210937l71.574219-124.386719c2.886718-4.5625 7.910156-7.328125 13.3125-7.328125 5.398437 0 10.425781 2.765625 13.3125 7.328125zm-49.542969 11.761719-11.949219 20.769531h-16.007812v-27.957031h27.957031zm25.964843-211.960938c2.210938 0 4 1.792969 4 4v175.539063c-7.886718 1.671875-14.746093 6.5-18.988281 13.355468-.042969.066407-.085937.136719-.125.210938l-.75 1.296875c-1.109375-1.046875-2.574219-1.628906-4.097656-1.628906h-39.960937c-3.316407 0-6 2.6875-6 6v39.957031c0 3.3125 2.683593 6 6 6h15.097656l-41.875 72.777344c-5.101563 8.140625-5.890625 18.265625-2.113282 27.097656h-130.921874c-2.210938 0-4-1.789062-4-4v-336.605469c0-2.207031 1.789062-4 4-4h33.945312v17.964844h-13.980469c-3.3125 0-6 2.6875-6 6v59.9375c0 3.3125 2.6875 6 6 6h179.800781c3.316407 0 6-2.6875 6-6v-59.9375c0-3.3125-2.683593-6-6-6h-13.976562v-17.964844zm0 0"/><path d="m159.851562 71.484375h12.441407c3.316406 0 6-2.683594 6-6 0-3.3125-2.683594-6-6-6h-12.441407c-3.3125 0-6 2.6875-6 6 0 3.316406 2.6875 6 6 6zm0 0"/><path d="m78.238281 71.484375h60.121094c3.3125 0 6-2.683594 6-6 0-3.3125-2.6875-6-6-6h-60.121094c-3.3125 0-6 2.6875-6 6 0 3.316406 2.6875 6 6 6zm0 0"/><path d="m149.863281 190.800781h22.429688c3.316406 0 6-2.6875 6-6 0-3.316406-2.683594-6-6-6h-22.429688c-3.3125 0-6 2.683594-6 6 0 3.3125 2.6875 6 6 6zm0 0"/><path d="m133.226562 178.800781h-3.339843c-3.3125 0-6 2.683594-6 6 0 3.3125 2.6875 6 6 6h3.339843c3.3125 0 6-2.6875 6-6 0-3.316406-2.6875-6-6-6zm0 0"/><path d="m159.851562 41.492188h12.441407c3.316406 0 6-2.683594 6-6 0-3.3125-2.683594-6-6-6h-12.441407c-3.3125 0-6 2.6875-6 6 0 3.316406 2.6875 6 6 6zm0 0"/><path d="m78.238281 41.492188h60.121094c3.3125 0 6-2.683594 6-6 0-3.3125-2.6875-6-6-6h-60.121094c-3.3125 0-6 2.6875-6 6 0 3.316406 2.6875 6 6 6zm0 0"/><path d="m159.851562 101.476562h12.441407c3.316406 0 6-2.683593 6-6 0-3.3125-2.683594-6-6-6h-12.441407c-3.3125 0-6 2.6875-6 6 0 3.316407 2.6875 6 6 6zm0 0"/><path d="m78.238281 101.476562h60.121094c3.3125 0 6-2.683593 6-6 0-3.3125-2.6875-6-6-6h-60.121094c-3.3125 0-6 2.6875-6 6 0 3.316407 2.6875 6 6 6zm0 0"/><path d="m159.851562 131.46875h12.441407c3.316406 0 6-2.683594 6-6 0-3.3125-2.683594-6-6-6h-12.441407c-3.3125 0-6 2.6875-6 6 0 3.316406 2.6875 6 6 6zm0 0"/><path d="m78.238281 131.46875h60.121094c3.3125 0 6-2.683594 6-6 0-3.3125-2.6875-6-6-6h-60.121094c-3.3125 0-6 2.6875-6 6 0 3.316406 2.6875 6 6 6zm0 0"/><path d="m159.851562 161.464844h12.441407c3.316406 0 6-2.6875 6-6 0-3.316406-2.683594-6-6-6h-12.441407c-3.3125 0-6 2.683594-6 6 0 3.3125 2.6875 6 6 6zm0 0"/><path d="m78.238281 161.464844h60.121094c3.3125 0 6-2.6875 6-6 0-3.316406-2.6875-6-6-6h-60.121094c-3.3125 0-6 2.683594-6 6 0 3.3125 2.6875 6 6 6zm0 0"/><path d="m239.367188 370.164062v61.445313c0 3.863281 3.132812 7 7 7 3.867187 0 7-3.136719 7-7v-61.445313c0-3.867187-3.132813-7-7-7-3.867188 0-7 3.132813-7 7zm0 0"/><path d="m246.367188 444.933594c-3.867188 0-7 3.132812-7 7v5.839844c0 3.863281 3.132812 7 7 7 3.867187 0 7-3.136719 7-7v-5.839844c0-3.867188-3.132813-7-7-7zm0 0"/></svg>