<svg height="487pt" viewBox="0 -10 487.97677 487" width="487pt" xmlns="http://www.w3.org/2000/svg"><path d="m213.28125 175.085938h-111.78125c-2.699219 0-5.070312 1.804687-5.785156 4.410156l-14.058594 51.105468c-.496094 1.804688-.121094 3.738282 1.015625 5.226563 1.132813 1.488281 2.898437 2.363281 4.769531 2.363281h110.507813c2.648437 0 4.984375-1.738281 5.746093-4.273437l15.332032-51.109375c.546875-1.816406.199218-3.78125-.933594-5.304688-1.132812-1.519531-2.917969-2.417968-4.8125-2.417968zm-19.800781 51.105468h-98.164063l10.753906-39.105468h99.148438zm0 0"/><path d="m269.710938 210.445312c0-3.3125-2.683594-6-6-6h-5.4375c-3.3125 0-6 2.6875-6 6s2.6875 6 6 6h5.4375c3.316406 0 6-2.6875 6-6zm0 0"/><path d="m302.335938 210.445312c0-3.3125-2.6875-6-6-6h-6.527344c-3.3125 0-6 2.6875-6 6s2.6875 6 6 6h6.527344c3.3125 0 6-2.6875 6-6zm0 0"/><path d="m321.34375 216.445312h6.523438c3.316406 0 6-2.6875 6-6s-2.683594-6-6-6h-6.523438c-3.3125 0-6 2.6875-6 6s2.6875 6 6 6zm0 0"/><path d="m256.101562 232.71875h-5.441406c-3.3125 0-6 2.683594-6 6 0 3.3125 2.6875 6 6 6h5.441406c3.3125 0 6-2.6875 6-6 0-3.316406-2.6875-6-6-6zm0 0"/><path d="m288.722656 232.71875h-6.523437c-3.3125 0-6 2.683594-6 6 0 3.3125 2.6875 6 6 6h6.527343c3.3125 0 6-2.6875 6-6 0-3.316406-2.6875-6-6-6zm0 0"/><path d="m313.730469 244.71875h6.527343c3.3125 0 6-2.6875 6-6 0-3.316406-2.6875-6-6-6h-6.527343c-3.3125 0-6 2.683594-6 6 0 3.3125 2.6875 6 6 6zm0 0"/><path d="m245.226562 258.808594h-6.527343c-3.3125 0-6 2.6875-6 6 0 3.316406 2.6875 6 6 6h6.527343c3.3125 0 6-2.683594 6-6 0-3.3125-2.6875-6-6-6zm0 0"/><path d="m276.761719 258.808594h-6.527344c-3.3125 0-6 2.6875-6 6 0 3.316406 2.6875 6 6 6h6.527344c3.3125 0 6-2.683594 6-6 0-3.3125-2.6875-6-6-6zm0 0"/><path d="m296.859375 264.808594c0 3.316406 2.683594 6 6 6h6.523437c3.3125 0 6-2.683594 6-6 0-3.3125-2.6875-6-6-6h-6.523437c-3.316406 0-6 2.6875-6 6zm0 0"/><path d="m203.90625 260.988281h-19.574219c-3.3125 0-6 2.6875-6 6 0 3.316407 2.6875 6 6 6h19.574219c3.3125 0 6-2.683593 6-6 0-3.3125-2.6875-6-6-6zm0 0"/><path d="m157.148438 260.988281h-22.835938c-3.3125 0-6 2.6875-6 6 0 3.316407 2.6875 6 6 6h22.835938c3.3125 0 6-2.683593 6-6 0-3.3125-2.6875-6-6-6zm0 0"/><path d="m106.039062 260.988281h-22.835937c-3.3125 0-6 2.6875-6 6 0 3.316407 2.6875 6 6 6h22.835937c3.316407 0 6-2.683593 6-6 0-3.3125-2.683593-6-6-6zm0 0"/><path d="m186.398438 327.125c-12.320313 0-22.308594 9.988281-22.308594 22.3125-.003906 12.320312 9.988281 22.3125 22.308594 22.3125 12.324218 0 22.3125-9.992188 22.3125-22.3125-.015626-12.316406-9.996094-22.296875-22.3125-22.3125zm0 32.621094c-5.691407 0-10.308594-4.613282-10.308594-10.308594-.003906-5.695312 4.613281-10.3125 10.308594-10.3125 5.695312 0 10.3125 4.617188 10.3125 10.3125-.007813 5.691406-4.621094 10.300781-10.3125 10.308594zm0 0"/><path d="m330.898438 35.945312h-9.8125c-3.316407 0-6 2.683594-6 6 0 3.3125 2.683593 6 6 6h9.8125c3.316406 0 6-2.6875 6-6 0-3.316406-2.683594-6-6-6zm0 0"/><path d="m256.699219 47.945312h47.429687c3.316406 0 6-2.6875 6-6 0-3.316406-2.683594-6-6-6h-47.429687c-3.3125 0-6 2.683594-6 6 0 3.3125 2.6875 6 6 6zm0 0"/><path d="m330.898438 148.4375h-39.492188c-3.3125 0-6 2.6875-6 6 0 3.316406 2.6875 6 6 6h39.492188c3.316406 0 6-2.683594 6-6 0-3.3125-2.683594-6-6-6zm0 0"/><path d="m274.035156 148.4375h-.277344c-3.316406 0-6 2.6875-6 6 0 3.316406 2.683594 6 6 6h.277344c3.3125 0 6-2.683594 6-6 0-3.3125-2.6875-6-6-6zm0 0"/><path d="m256.6875 148.4375c-3.316406 0-6 2.6875-6 6 0 3.316406 2.683594 6 6 6h.007812c3.3125 0 5.996094-2.6875 5.996094-6.003906-.003906-3.3125-2.691406-5.996094-6.003906-5.996094zm0 0"/><path d="m330.898438 63.433594h-9.8125c-3.316407 0-6 2.683594-6 6 0 3.3125 2.683593 6 6 6h9.8125c3.316406 0 6-2.6875 6-6 0-3.316406-2.683594-6-6-6zm0 0"/><path d="m256.699219 75.433594h47.429687c3.316406 0 6-2.6875 6-6 0-3.316406-2.683594-6-6-6h-47.429687c-3.3125 0-6 2.683594-6 6 0 3.3125 2.6875 6 6 6zm0 0"/><path d="m330.898438 90.921875h-9.8125c-3.316407 0-6 2.683594-6 6 0 3.3125 2.683593 6 6 6h9.8125c3.316406 0 6-2.6875 6-6 0-3.316406-2.683594-6-6-6zm0 0"/><path d="m256.699219 102.921875h47.429687c3.316406 0 6-2.6875 6-6 0-3.316406-2.683594-6-6-6h-47.429687c-3.3125 0-6 2.683594-6 6 0 3.3125 2.6875 6 6 6zm0 0"/><path d="m330.898438 118.410156h-9.8125c-3.316407 0-6 2.6875-6 6s2.683593 6 6 6h9.8125c3.316406 0 6-2.6875 6-6s-2.683594-6-6-6zm0 0"/><path d="m256.699219 130.410156h47.429687c3.316406 0 6-2.6875 6-6s-2.683594-6-6-6h-47.429687c-3.3125 0-6 2.6875-6 6s2.6875 6 6 6zm0 0"/><path d="m408.898438 259.78125v-95.261719c-.011719-10.375-8.417969-18.78125-18.792969-18.792969h-34.378907v-95.945312h35.5v1.886719c0 16.785156 13.605469 30.386719 30.386719 30.386719s30.386719-13.601563 30.386719-30.386719v-26.316407c0-3.3125-2.683594-6-6-6h-44.835938c-4.488281-11.371093-15.464843-18.847656-27.6875-18.863281h-110.441406c-16.359375.019531-29.617187 13.28125-29.636718 29.644531v115.59375h-59.378907v-45.632812h45.109375c3.3125 0 6-2.6875 6-6v-38.058594c0-3.3125-2.6875-6-6-6h-130.488281c-3.3125 0-6 2.6875-6 6v38.058594c0 3.3125 2.6875 6 6 6h45.109375v45.632812h-53.941406c-8.613282-.007812-16.125 5.84375-18.222656 14.199219l-34.792969 138.035157h-20.792969c-3.3125 0-6 2.6875-6 6v102.214843c0 3.3125 2.6875 6 6 6h282.476562c22.816407 42.773438 71.746094 64.617188 118.820313 53.039063 47.078125-11.574219 80.296875-53.617188 80.675781-102.09375.378906-48.476563-32.183594-91.03125-79.074218-103.339844zm-12-95.261719v92.859375c-13.699219-1.9375-27.648438-1.179687-41.058594 2.222656l25.941406-101.875h8.324219c3.75 0 6.789062 3.039063 6.792969 6.792969zm6.328124-133.167969h36.773438v20.316407c0 10.15625-8.230469 18.386719-18.386719 18.386719s-18.386719-8.230469-18.386719-18.386719zm-29.75-18.863281c9.800782.011719 17.742188 7.953125 17.75 17.75v7.542969h-35.5v-7.542969c.011719-9.796875 7.953126-17.738281 17.75-17.75zm-128.078124 17.644531c.011718-9.742187 7.902343-17.632812 17.640624-17.644531h86.578126c-3.828126 5.125-5.894532 11.351563-5.886719 17.75v146.863281h-98.332031zm-150.753907 31.898438h118.484375v26.058594h-118.488281zm51.109375 38.058594h16.269532v45.632812h-16.273438zm-72.53125 62.769531c.757813-3.019531 3.472656-5.136719 6.585938-5.132813h153.589844v25.375c0 3.3125 2.6875 6 6 6h110.328124c3.3125 0 6-2.6875 6-6v-25.375h13.671876l-27.066407 106.285157c-17.609375 7.121093-32.976562 18.847656-44.492187 33.953125h-258.671875zm-61.222656 237.316406v-90.214843h277.910156c-15.710937 27.515624-18.25 60.625-6.921875 90.214843zm370 56.15625c-35.816406-.019531-68.507812-20.390625-84.304688-52.535156-15.800781-32.140625-11.960937-70.46875 9.898438-98.839844 21.863281-28.371093 57.945312-41.851562 93.050781-34.769531.640625.257812 1.320313.40625 2.007813.429688 46.722656 10.527343 78.0625 54.5 72.769531 102.097656-5.292969 47.601562-45.527344 83.613281-93.421875 83.617187zm0 0"/><path d="m421.601562 322.734375c-2.34375-2.34375-6.144531-2.34375-8.488281 0l-31.113281 31.113281-31.113281-31.113281c-2.347657-2.3125-6.121094-2.296875-8.449219.035156-2.332031 2.328125-2.347656 6.101563-.035156 8.449219l31.113281 31.113281-31.117187 31.113281c-2.308594 2.347657-2.292969 6.121094.035156 8.449219 2.332031 2.332031 6.101562 2.347657 8.453125.035157l31.113281-31.113282 31.113281 31.113282c1.511719 1.535156 3.730469 2.144531 5.8125 1.59375 2.085938-.554688 3.710938-2.179688 4.265625-4.265626.550782-2.082031-.058594-4.300781-1.59375-5.8125l-31.113281-31.113281 31.117187-31.113281c2.339844-2.34375 2.339844-6.140625 0-8.484375zm0 0"/></svg>