<svg height="478pt" viewBox="0 -33 478.96533 478" width="478pt" xmlns="http://www.w3.org/2000/svg"><path d="m40.371094 371.957031h141.433594v1.925781c.023437 21.308594 17.289062 38.574219 38.597656 38.601563h157.101562c22.535156-.042969 40.8125-18.261719 40.925782-40.792969l.46875-142.679687 53.699218 1.085937c1.609375.03125 3.160156-.582031 4.3125-1.703125 1.152344-1.125 1.800782-2.664062 1.808594-4.269531l.246094-57.742188c.085937-19.84375-15.933594-35.996093-35.777344-36.082031h-.140625l-158.292969-.519531v-71.820312c-.027344-22.285157-18.085937-40.34375-40.371094-40.367188h-40.398437v-11.109375c0-3.316406-2.6875-6-6-6h-111.214844c-3.3125 0-6 2.683594-6 6v11.109375h-40.398437c-22.285156.023438-40.3437502 18.082031-40.371094 40.367188v273.621093c.0234375 22.289063 18.082031 40.347657 40.371094 40.375zm180.03125 28.527344c-14.683594-.019531-26.582032-11.917969-26.597656-26.601563v-14.945312h142.769531v12.617188c-.003907 10.855468 4.316406 21.265624 12.007812 28.929687zm186.519531-178.4375c-.035156.238281-.054687.480469-.058594.722656-.003906.308594.011719.617188.054688.925781l-.488281 147.953126c-.023438 15.976562-12.996094 28.90625-28.972657 28.882812-15.976562-.027344-28.910156-13-28.882812-28.976562v-18.617188c0-3.3125-2.683594-6-6-6h-106.640625l.664062-181.535156c.058594-13.105469 10.699219-23.695313 23.800782-23.695313h.101562l155.816406.5c-5.917968 6.542969-9.199218 15.050781-9.214844 23.871094zm60.042969-55.714844-.21875 51.644531-47.808594-.964843.167969-50.882813c.054687-13.214844 10.8125-23.882812 24.03125-23.828125 13.214843.054688 23.882812 10.8125 23.828125 24.027344zm-374.195313-153.847656h99.214844v30.761719h-99.214844zm-80.769531 45.476563c.015625-15.660157 12.707031-28.351563 28.371094-28.367188h40.398437v19.652344c0 3.316406 2.6875 6 6 6h111.214844c3.3125 0 6-2.683594 6-6v-19.652344h40.398437c15.660157.015625 28.355469 12.707031 28.371094 28.367188v71.785156l-12.207031-.039063h-.164063c-19.707031.007813-35.703124 15.941407-35.789062 35.648438l-.667969 181.585937h-36.121093c-3.316407 0-6 2.683594-6 6v7.015625h-141.433594c-15.664063-.015625-28.355469-12.707031-28.371094-28.371093zm0 0"/><path d="m142.375 260.773438c36.453125 0 66-29.546876 66-66 0-36.449219-29.546875-66-66-66-36.449219 0-66 29.550781-66 66 .042969 36.433593 29.566406 65.960937 66 66zm0-120c29.824219 0 54 24.179687 54 54 0 29.824218-24.175781 54-54 54s-54-24.175782-54-54c.035156-29.808594 24.191406-53.964844 54-54zm0 0"/><path d="m130.210938 219.882812c2.300781 2.304688 6.027343 2.351563 8.382812.101563l39.871094-38.082031c2.394531-2.289063 2.484375-6.085938.195312-8.484375-2.289062-2.394531-6.089844-2.484375-8.484375-.195313l-35.628906 34.03125-18.464844-18.472656c-2.34375-2.339844-6.140625-2.339844-8.484375 0-2.34375 2.34375-2.34375 6.144531 0 8.488281zm0 0"/><path d="m266.703125 276.53125h.03125c3.804687.015625 6.875 3.113281 6.859375 6.917969-.015625 3.3125 2.660156 6.007812 5.972656 6.023437h.027344c3.304688 0 5.984375-2.671875 6-5.972656.039062-8.121094-5.121094-15.351562-12.8125-17.957031l.011719-2.066407c.011719-3.316406-2.660157-6.015624-5.976563-6.027343h-.027344c-3.300781 0-5.984374 2.671875-6 5.972656l-.007812 2.082031c-8.785156 2.902344-14.175781 11.746094-12.722656 20.886719 1.449218 9.136719 9.3125 15.878906 18.566406 15.914063 3.804688-.011719 6.894531 3.0625 6.90625 6.863281.015625 3.804687-3.058594 6.898437-6.863281 6.910156-.035157 0-.066407-.007813-.097657-.007813h-.027343c-.027344 0-.050781 0-.074219 0-3.761719-.074218-6.769531-3.148437-6.757812-6.910156.015624-3.3125-2.660157-6.011718-5.976563-6.027344h-.023437c-3.304688 0-5.988282 2.671876-6 5.976563-.023438 8.109375 5.132812 15.332031 12.808593 17.949219l-.007812 2.660156c-.019531 3.316406 2.65625 6.015625 5.972656 6.03125h.023437c3.304688 0 5.988282-2.671875 6-5.976562l.011719-2.660157c8.789063-2.902343 14.175781-11.746093 12.726563-20.886719-1.453125-9.140624-9.3125-15.882812-18.570313-15.921874-3.804687-.007813-6.878906-3.097657-6.871093-6.902344.007812-3.804688 3.097656-6.878906 6.902343-6.871094zm0 0"/><path d="m389.273438 190.875-12.371094-.054688h-.019532c-3.3125-.007812-6.003906 2.675782-6.011718 5.988282-.007813 3.3125 2.671875 6.003906 5.988281 6.011718l12.367187.054688h.027344c3.316406.003906 6.007813-2.675781 6.011719-5.988281.007813-3.316407-2.671875-6.007813-5.988281-6.011719zm0 0"/><path d="m252.253906 202.476562 103.238282.253907h.015624c3.3125.003906 6.003907-2.679688 6.007813-5.992188.003906-3.316406-2.679687-6.003906-5.992187-6.007812l-103.242188-.253907h-.011719c-3.316406-.003906-6.003906 2.675782-6.007812 5.992188-.003907 3.3125 2.679687 6.003906 5.992187 6.007812zm0 0"/><path d="m389.40625 159.402344-12.367188-.054688h-.027343c-3.3125-.003906-6.003907 2.675782-6.011719 5.988282s2.675781 6.007812 5.988281 6.011718l12.367188.054688h.027343c3.3125.007812 6.003907-2.675782 6.011719-5.988282.007813-3.3125-2.671875-6.003906-5.988281-6.011718zm0 0"/><path d="m252.382812 171.003906 103.238282.253906h.015625c3.3125.003907 6.003906-2.679687 6.007812-5.992187.003907-3.3125-2.679687-6.003906-5.992187-6.007813l-103.238282-.253906h-.015624c-3.3125-.003906-6.003907 2.675782-6.007813 5.992188-.003906 3.3125 2.679687 6.003906 5.992187 6.007812zm0 0"/><path d="m389.140625 222.34375-12.371094-.050781h-.027343c-3.3125-.007813-6.003907 2.671875-6.011719 5.988281-.007813 3.3125 2.675781 6.003906 5.988281 6.011719l12.371094.050781h.023437c3.316407.007812 6.007813-2.671875 6.015625-5.988281.003906-3.3125-2.675781-6.003907-5.988281-6.011719zm0 0"/><path d="m252.121094 233.945312 103.238281.257813h.015625c3.3125.003906 6.003906-2.679687 6.007812-5.996094.003907-3.3125-2.679687-6-5.992187-6.003906l-103.242187-.257813h-.015626c-3.3125-.003906-6 2.679688-6.003906 5.996094-.003906 3.3125 2.675782 6 5.992188 6.003906zm0 0"/><path d="m367.359375 320.15625-63.609375-.085938h-.007812c-3.3125-.003906-6 2.679688-6.003907 5.996094 0 3.3125 2.683594 6 5.996094 6.003906l63.609375.085938h.007812c3.3125 0 6-2.683594 6.003907-5.996094 0-3.316406-2.683594-6.003906-5.996094-6.003906zm0 0"/><path d="m387.265625 320.238281-2.460937-.007812h-.023438c-3.3125-.007813-6.003906 2.671875-6.011719 5.984375-.007812 3.316406 2.675781 6.007812 5.988281 6.015625l2.460938.007812h.027344c3.3125.007813 6.003906-2.671875 6.011718-5.984375.007813-3.316406-2.671874-6.007812-5.988281-6.015625zm0 0"/><path d="m303.929688 287.472656c-3.300782-.085937-6.046876 2.511719-6.148438 5.8125-.105469 3.296875 2.476562 6.058594 5.773438 6.179688l2.753906.085937h.191406c3.3125.050781 6.039062-2.59375 6.089844-5.910156.050781-3.3125-2.59375-6.039063-5.90625-6.089844zm0 0"/><path d="m387.242188 287.636719-63.316407-.007813c-3.3125 0-6 2.6875-6 6s2.6875 6 6 6l63.316407.007813c3.3125 0 6-2.683594 6-6 0-3.3125-2.6875-6-6-6zm0 0"/></svg>