<svg height="430pt" viewBox="-28 0 430 430.00225" width="430pt" xmlns="http://www.w3.org/2000/svg"><path d="m3.511719 236.789062c2.136719.976563 4.644531.613282 6.421875-.925781l24.289062-21.070312 19.652344 20.671875c1.113281 1.167968 2.644531 1.839844 4.257812 1.867187 1.613282.023438 3.167969-.601562 4.3125-1.734375l20.492188-20.285156 16.207031 18.988281v189.699219c0 2.304688 1.324219 4.410156 3.402344 5.410156 2.078125.996094 4.546875.714844 6.347656-.722656l29.070313-23.253906 29.066406 23.253906c2.195312 1.753906 5.308594 1.753906 7.5 0l29.066406-23.253906 29.066406 23.253906c2.191407 1.753906 5.304688 1.753906 7.5 0l29.058594-23.253906 29.0625 23.25c2.191406 1.757812 5.308594 1.757812 7.5 0l29.0625-23.25 29.058594 23.25c1.800781 1.4375 4.265625 1.714844 6.339844.714844 2.074218-.996094 3.394531-3.09375 3.398437-5.398438v-378c-.027343-25.394531-20.605469-45.9726562-46-46h-271.320312c-.0625 0-.125 0-.1875 0-.1875 0-.375 0-.5625 0-30.679688.0351562-55.5390628 24.894531-55.574219 55.570312v175.761719c0 2.351563 1.371094 4.484375 3.511719 5.457031zm324.132812-224.789062c18.769531.019531 33.980469 15.230469 34 34v365.515625l-23.058593-18.449219c-2.191407-1.757812-5.308594-1.757812-7.5 0l-29.058594 23.25-29.0625-23.25c-2.195313-1.757812-5.308594-1.757812-7.5 0l-29.066406 23.25-29.054688-23.25c-2.191406-1.757812-5.308594-1.757812-7.5 0l-29.066406 23.25-29.070313-23.253906c-2.191406-1.753906-5.308593-1.753906-7.5 0l-23.070312 18.457031v-178.101562c.160156-.789063.160156-1.597657 0-2.386719v-175.460938c.003906-16.988281-7.773438-33.042968-21.109375-43.570312zm-315.644531 43.570312c0-24.0625 19.507812-43.570312 43.574219-43.570312 24.0625 0 43.570312 19.507812 43.570312 43.570312v160.246094l-11.273437-13.207031c-1.085938-1.269531-2.644532-2.027344-4.3125-2.097656-1.667969-.070313-3.285156.558593-4.472656 1.730469l-20.730469 20.519531-19.386719-20.390625c-2.210938-2.324219-5.855469-2.5-8.28125-.398438l-18.6875 16.210938zm0 0"/><path d="m139.210938 210h2.34375c3.3125 0 6-2.6875 6-6s-2.6875-6-6-6h-2.34375c-3.316407 0-6 2.6875-6 6s2.683593 6 6 6zm0 0"/><path d="m164.972656 210h17.726563c3.316406 0 6-2.6875 6-6s-2.683594-6-6-6h-17.726563c-3.316406 0-6 2.6875-6 6s2.683594 6 6 6zm0 0"/><path d="m206.496094 210h127.085937c3.3125 0 6-2.6875 6-6s-2.6875-6-6-6h-127.085937c-3.3125 0-6 2.6875-6 6s2.6875 6 6 6zm0 0"/><path d="m139.210938 160h2.34375c3.3125 0 6-2.6875 6-6s-2.6875-6-6-6h-2.34375c-3.316407 0-6 2.6875-6 6s2.683593 6 6 6zm0 0"/><path d="m164.972656 160h17.726563c3.316406 0 6-2.6875 6-6s-2.683594-6-6-6h-17.726563c-3.316406 0-6 2.6875-6 6s2.683594 6 6 6zm0 0"/><path d="m206.496094 160h127.085937c3.3125 0 6-2.6875 6-6s-2.6875-6-6-6h-127.085937c-3.3125 0-6 2.6875-6 6s2.6875 6 6 6zm0 0"/><path d="m139.210938 110h2.34375c3.3125 0 6-2.6875 6-6s-2.6875-6-6-6h-2.34375c-3.316407 0-6 2.6875-6 6s2.683593 6 6 6zm0 0"/><path d="m164.972656 110h17.726563c3.316406 0 6-2.6875 6-6s-2.683594-6-6-6h-17.726563c-3.316406 0-6 2.6875-6 6s2.683594 6 6 6zm0 0"/><path d="m206.496094 110h127.085937c3.3125 0 6-2.6875 6-6s-2.6875-6-6-6h-127.085937c-3.3125 0-6 2.6875-6 6s2.6875 6 6 6zm0 0"/><path d="m139.210938 260h2.34375c3.3125 0 6-2.6875 6-6s-2.6875-6-6-6h-2.34375c-3.316407 0-6 2.6875-6 6s2.683593 6 6 6zm0 0"/><path d="m164.972656 260h17.726563c3.316406 0 6-2.6875 6-6s-2.683594-6-6-6h-17.726563c-3.316406 0-6 2.6875-6 6s2.683594 6 6 6zm0 0"/><path d="m206.496094 260h127.085937c3.3125 0 6-2.6875 6-6s-2.6875-6-6-6h-127.085937c-3.3125 0-6 2.6875-6 6s2.6875 6 6 6zm0 0"/><path d="m154.222656 362.121094c-.035156 0-.070312-.007813-.105468-.007813-.035157 0-.070313.003907-.105469.007813-4.875-.066406-8.792969-4.027344-8.800781-8.902344 0-3.3125-2.6875-6-6-6-3.316407 0-6 2.6875-6 6 .015624 9.230469 6.074218 17.363281 14.914062 20.019531v3.761719c0 3.3125 2.683594 6 6 6 3.3125 0 6-2.6875 6-6v-3.757812c9.949219-2.964844 16.214844-12.785157 14.710938-23.0625-1.507813-10.273438-10.328126-17.882813-20.710938-17.867188-4.921875.003906-8.914062-3.980469-8.917969-8.902344-.007812-4.917968 3.980469-8.910156 8.902344-8.914062s8.910156 3.984375 8.914063 8.902344c0 3.316406 2.6875 6 6 6s6-2.683594 6-6c-.011719-9.226563-6.0625-17.359376-14.898438-20.019532v-3.078125c0-3.316406-2.6875-6-6-6-3.316406 0-6 2.683594-6 6v3.078125c-9.953125 2.964844-16.21875 12.785156-14.714844 23.0625 1.507813 10.273438 10.328125 17.882813 20.714844 17.867188 4.917969-.027344 8.929688 3.933594 8.957031 8.851562.03125 4.921875-3.933593 8.929688-8.851562 8.960938zm0 0"/><path d="m333.582031 348.710938h-11.429687c-3.3125 0-6 2.6875-6 6 0 3.316406 2.6875 6 6 6h11.429687c3.3125 0 6-2.683594 6-6 0-3.3125-2.6875-6-6-6zm0 0"/><path d="m300.652344 348.710938h-32.820313c-3.316406 0-6 2.6875-6 6 0 3.316406 2.683594 6 6 6h32.820313c3.3125 0 6-2.683594 6-6 0-3.3125-2.6875-6-6-6zm0 0"/><path d="m202.078125 360.710938h44.5c3.3125 0 6-2.683594 6-6 0-3.3125-2.6875-6-6-6h-44.5c-3.3125 0-6 2.6875-6 6 0 3.316406 2.6875 6 6 6zm0 0"/></svg>