<svg height="472pt" viewBox="-112 0 472 472" width="472pt" xmlns="http://www.w3.org/2000/svg"><path d="m24.929688 472h189.300781c13.761719-.015625 24.914062-11.167969 24.929687-24.929688v-265.019531c-.015625-13.765625-11.167968-24.917969-24.929687-24.933593h-21.488281v-65.21875l48.992187.78125c1.609375.035156 3.164063-.589844 4.304687-1.722657 1.144532-1.128906 1.789063-2.667969 1.789063-4.277343v-53.136719c-.019531-18.515625-15.023437-33.5234378-33.542969-33.542969h-128.070312c-18.445313.0195312-33.398438 14.96875-33.417969 33.417969v123.699219h-27.867187c-13.761719.015624-24.914063 11.167968-24.929688 24.929687v265.023437c.015625 13.761719 11.167969 24.914063 24.929688 24.929688zm210.898437-438.457031v47.039062l-43.085937-.6875v-46.351562c0-11.898438 9.648437-21.542969 21.542968-21.542969 11.898438 0 21.542969 9.644531 21.542969 21.542969zm-149.613281-21.542969h102.386718c-5.078124 6.027344-7.863281 13.660156-7.859374 21.542969v164.679687h-115.945313v-164.804687c.011719-11.824219 9.59375-21.40625 21.417969-21.417969zm-74.214844 170.050781c.007812-7.140625 5.792969-12.925781 12.929688-12.933593h27.867187v29.101562h-18.402344c-3.3125 0-6 2.6875-6 6s2.6875 6 6 6h170.371094c3.3125 0 6-2.6875 6-6s-2.6875-6-6-6h-12.023437v-29.101562h21.488281c7.136719.007812 12.921875 5.792968 12.929687 12.933593v265.019531c-.007812 7.136719-5.792968 12.921876-12.929687 12.929688h-189.300781c-7.136719-.007812-12.921876-5.792969-12.929688-12.929688zm0 0"/><path d="m49.714844 307.851562h139.734375c8.832031-.011718 15.988281-7.167968 16-16v-39.769531c-.011719-8.832031-7.167969-15.988281-16-16h-139.734375c-8.832032.011719-15.988282 7.167969-16 16v39.769531c.011718 8.832032 7.167968 15.988282 16 16zm-4-55.769531c0-2.210937 1.792968-4 4-4h139.734375c2.207031 0 4 1.789063 4 4v39.769531c0 2.210938-1.792969 4-4 4h-139.734375c-2.207032 0-4-1.789062-4-4zm0 0"/><path d="m92.484375 136.042969c3.234375.003906 5.855469 2.625 5.859375 5.859375 0 3.3125 2.683594 6 6 6 3.3125 0 6-2.6875 6-6-.011719-7.542969-4.757812-14.265625-11.859375-16.800782v-1.578124c0-3.3125-2.6875-6-6-6-3.316406 0-6 2.6875-6 6v1.578124c-8.183594 2.914063-13.082031 11.296876-11.601563 19.855469 1.484376 8.558594 8.914063 14.808594 17.601563 14.804688 3.207031.011719 5.808594 2.605469 5.832031 5.816406.023438 3.207031-2.542968 5.839844-5.75 5.898437-.027344 0-.054687 0-.082031 0-.03125 0-.054687 0-.082031 0-3.203125-.050781-5.773438-2.65625-5.777344-5.855468 0-3.316406-2.6875-6-6-6-3.316406 0-6 2.683594-6 6 .011719 7.539062 4.757812 14.261718 11.859375 16.800781v2.113281c0 3.316406 2.683594 6 6 6 3.3125 0 6-2.683594 6-6v-2.113281c8.183594-2.914063 13.078125-11.300781 11.597656-19.859375s-8.910156-14.808594-17.597656-14.800781c-3.207031-.042969-5.785156-2.65625-5.785156-5.859375 0-3.207032 2.578125-5.820313 5.785156-5.863282zm0 0"/><path d="m153.527344 67.949219h11.386718c3.316407 0 6-2.683594 6-6 0-3.3125-2.683593-6-6-6h-11.386718c-3.3125 0-6 2.6875-6 6 0 3.316406 2.6875 6 6 6zm0 0"/><path d="m78.859375 67.949219h55c3.3125 0 6-2.683594 6-6 0-3.3125-2.6875-6-6-6h-55c-3.316406 0-6 2.6875-6 6 0 3.316406 2.683594 6 6 6zm0 0"/><path d="m153.527344 38.988281h11.386718c3.316407 0 6-2.6875 6-6s-2.683593-6-6-6h-11.386718c-3.3125 0-6 2.6875-6 6s2.6875 6 6 6zm0 0"/><path d="m78.859375 38.988281h55c3.3125 0 6-2.6875 6-6s-2.6875-6-6-6h-55c-3.316406 0-6 2.6875-6 6s2.683594 6 6 6zm0 0"/><path d="m153.527344 96.914062h11.386718c3.316407 0 6-2.6875 6-6 0-3.316406-2.683593-6-6-6h-11.386718c-3.3125 0-6 2.683594-6 6 0 3.3125 2.6875 6 6 6zm0 0"/><path d="m78.859375 96.914062h55c3.3125 0 6-2.6875 6-6 0-3.316406-2.6875-6-6-6h-55c-3.316406 0-6 2.683594-6 6 0 3.3125 2.683594 6 6 6zm0 0"/><path d="m120.734375 181c0 3.3125 2.683594 6 6 6h18.535156c3.3125 0 6-2.6875 6-6s-2.6875-6-6-6h-18.535156c-3.316406 0-6 2.6875-6 6zm0 0"/><path d="m163.570312 175h-2.261718c-3.316406 0-6 2.6875-6 6s2.683594 6 6 6h2.261718c3.3125 0 6-2.6875 6-6s-2.6875-6-6-6zm0 0"/><path d="m39.714844 347.851562h159.734375c3.3125 0 6-2.6875 6-6s-2.6875-6-6-6h-159.734375c-3.3125 0-6 2.6875-6 6s2.6875 6 6 6zm0 0"/><path d="m39.714844 387.851562h159.734375c3.3125 0 6-2.6875 6-6s-2.6875-6-6-6h-159.734375c-3.3125 0-6 2.6875-6 6s2.6875 6 6 6zm0 0"/><path d="m39.714844 427.851562h159.734375c3.3125 0 6-2.6875 6-6s-2.6875-6-6-6h-159.734375c-3.3125 0-6 2.6875-6 6s2.6875 6 6 6zm0 0"/></svg>