<svg height="501pt" viewBox="-59 0 501 501.99999" width="501pt" xmlns="http://www.w3.org/2000/svg"><path d="m48.765625 295.140625h132.871094c8.832031-.011719 15.988281-7.167969 16-16v-37.199219c-.011719-8.832031-7.167969-15.992187-16-16h-132.871094c-8.835937.007813-15.992187 7.167969-16 16v37.199219c.007813 8.832031 7.164063 15.988281 16 16zm-4-53.199219c0-2.210937 1.789063-4 4-4h132.871094c2.210937 0 4 1.789063 4 4v37.199219c0 2.207031-1.789063 4-4 4h-132.871094c-2.210937 0-4-1.792969-4-4zm0 0"/><path d="m89.265625 130.710938c2.957031.003906 5.351563 2.398437 5.351563 5.351562 0 3.3125 2.6875 6 6 6 3.316406 0 6-2.6875 6-6-.011719-7.261719-4.539063-13.746094-11.351563-16.261719v-1.324219c0-3.316406-2.683594-6-6-6-3.3125 0-6 2.683594-6 6v1.324219c-7.886719 2.902344-12.554687 11.042969-11.078125 19.316407 1.476562 8.273437 8.675781 14.296874 17.078125 14.292968 2.929687.023438 5.292969 2.394532 5.308594 5.320313.011719 2.925781-2.328125 5.320312-5.253907 5.375-.019531 0-.035156 0-.054687 0-.015625 0-.03125 0-.050781 0-2.929688-.03125-5.292969-2.414063-5.300782-5.347657 0-3.3125-2.683593-6-6-6-3.3125 0-6 2.6875-6 6 .015626 7.261719 4.542969 13.746094 11.351563 16.261719v1.84375c0 3.3125 2.6875 6 6 6s6-2.6875 6-6v-1.84375c7.886719-2.90625 12.554687-11.046875 11.078125-19.320312-1.476562-8.273438-8.675781-14.296875-17.078125-14.289063-2.914063-.058594-5.25-2.4375-5.25-5.351562 0-2.914063 2.335937-5.292969 5.25-5.347656zm0 0"/><path d="m147.691406 65.546875h10.894532c3.3125 0 6-2.6875 6-6s-2.6875-6-6-6h-10.894532c-3.316406 0-6 2.6875-6 6s2.683594 6 6 6zm0 0"/><path d="m76.226562 65.546875h52.640626c3.316406 0 6-2.6875 6-6s-2.683594-6-6-6h-52.640626c-3.3125 0-6 2.6875-6 6s2.6875 6 6 6zm0 0"/><path d="m147.691406 37.828125h10.894532c3.3125 0 6-2.683594 6-6 0-3.3125-2.6875-6-6-6h-10.894532c-3.316406 0-6 2.6875-6 6 0 3.316406 2.683594 6 6 6zm0 0"/><path d="m76.226562 37.828125h52.640626c3.316406 0 6-2.683594 6-6 0-3.3125-2.683594-6-6-6h-52.640626c-3.3125 0-6 2.6875-6 6 0 3.316406 2.6875 6 6 6zm0 0"/><path d="m147.691406 93.265625h10.894532c3.3125 0 6-2.6875 6-6 0-3.316406-2.6875-6-6-6h-10.894532c-3.316406 0-6 2.683594-6 6 0 3.3125 2.683594 6 6 6zm0 0"/><path d="m76.226562 93.265625h52.640626c3.316406 0 6-2.6875 6-6 0-3.316406-2.683594-6-6-6h-52.640626c-3.3125 0-6 2.683594-6 6 0 3.3125 2.6875 6 6 6zm0 0"/><path d="m116.046875 173.484375c0 3.3125 2.6875 6 6 6h17.738281c3.3125 0 6-2.6875 6-6s-2.6875-6-6-6h-17.738281c-3.3125 0-6 2.6875-6 6zm0 0"/><path d="m157.300781 167.484375h-2.167969c-3.3125 0-6 2.6875-6 6s2.6875 6 6 6h2.167969c3.316407 0 6-2.6875 6-6s-2.683593-6-6-6zm0 0"/><path d="m38.765625 333.421875h152.871094c3.3125 0 6-2.6875 6-6 0-3.316406-2.6875-6-6-6h-152.871094c-3.316406 0-6 2.683594-6 6 0 3.3125 2.683594 6 6 6zm0 0"/><path d="m282.367188 298.59375c-18.496094-.023438-36.644532 5.03125-52.46875 14.605469v-138.714844c-.015626-13.3125-10.800782-24.101563-24.113282-24.117187h-20.300781v-61.898438l46.625.742188c1.609375.039062 3.167969-.585938 4.304687-1.722657 1.144532-1.128906 1.789063-2.667969 1.789063-4.277343v-50.851563c-.019531-17.867187-14.5-32.3398438-32.363281-32.359375h-122.574219c-17.796875.0195312-32.21875 14.441406-32.238281 32.238281v118.128907h-26.410156c-13.3125.015624-24.101563 10.804687-24.117188 24.117187v253.632813c.015625 13.3125 10.804688 24.101562 24.117188 24.117187h170.34375c15.964843 26.921875 43.449218 44.976563 74.496093 48.945313s62.191407-6.597657 84.414063-28.636719c.136718-.113281.28125-.203125.410156-.332031.125-.125.21875-.273438.332031-.40625 28.894531-29.148438 37.421875-72.8125 21.621094-110.691407-15.796875-37.878906-52.824219-62.539062-93.867187-62.519531zm89.699218 101.699219c.019532 21.71875-7.875 42.695312-22.203125 59.015625l-126.511719-126.507813c26.476563-23.1875 64.070313-28.734375 96.117188-14.191406 32.046875 14.546875 52.621094 46.496094 52.601562 81.691406zm-145.867187-367.933594v44.753906l-40.722657-.648437v-44.105469c0-11.246094 9.117188-20.359375 20.363282-20.359375 11.242187 0 20.359375 9.113281 20.359375 20.359375zm-142.933594-20.359375h97.445313c-4.683594 5.75-7.238282 12.941406-7.234376 20.359375v157.34375h-110.449218v-157.464844c.011718-11.171875 9.066406-20.226562 20.238281-20.238281zm-58.648437 428.234375c-6.6875-.007813-12.109376-5.425781-12.117188-12.117187v-253.632813c.007812-6.6875 5.429688-12.109375 12.117188-12.117187h26.410156v27.335937h-17.351563c-3.316406 0-6 2.6875-6 6 0 3.316406 2.683594 6 6 6h163.046875c3.316406 0 6-2.683594 6-6 0-3.3125-2.683594-6-6-6h-11.246094v-27.335937h20.300782c6.6875.007812 12.109375 5.429687 12.117187 12.117187v147.214844c-2.441406 2.007812-4.785156 4.125-7.035156 6.351562-.136719.113281-.285156.207031-.414063.335938-.128906.128906-.222656.277343-.335937.414062-8.835937 8.921875-15.949219 19.398438-20.980469 30.898438h-150.363281c-3.316406 0-6 2.6875-6 6 0 3.316406 2.683594 6 6 6h146c-2.507813 8.542969-3.875 17.378906-4.070313 26.28125h-141.929687c-3.316406 0-6 2.6875-6 6s2.683594 6 6 6h142.363281c.984375 10.421875 3.585938 20.628906 7.710938 30.25zm168.046874-39.933594c-.019531-21.714843 7.871094-42.695312 22.199219-59.015625l126.523438 126.515625c-26.480469 23.183594-64.070313 28.734375-96.117188 14.1875-32.046875-14.542969-52.621093-46.496093-52.601562-81.6875zm0 0"/></svg>