<svg height="491pt" viewBox="-33 0 491 491.99083" width="491pt" xmlns="http://www.w3.org/2000/svg"><path d="m337.628906 295.214844h-65.324218c-12.9375.070312-23.378907 10.601562-23.335938 23.539062v121.734375c-.011719 3.203125 1.816406 6.128907 4.699219 7.523438 2.882812 1.398437 6.3125 1.015625 8.820312-.980469.097657-.082031.199219-.164062.296875-.253906l44.15625-40.175782 40.007813 39.988282c.15625.15625.324219.304687.5.445312 2.503906 1.996094 5.933593 2.375 8.816406.980469s4.710937-4.320313 4.703125-7.523437v-121.738282c.039062-12.9375-10.398438-23.46875-23.339844-23.539062zm11.339844 136.421875-37.59375-37.574219c-2.265625-2.261719-5.910156-2.347656-8.277344-.191406l-42.128906 38.335937v-113.453125c-.046875-6.3125 5.023438-11.476562 11.335938-11.539062h65.324218c6.316406.0625 11.386719 5.222656 11.339844 11.539062zm0 0"/><path d="m45.316406 203.464844h2.671875c3.3125 0 6-2.6875 6-6s-2.6875-6-6-6h-2.671875c-3.316406 0-6 2.6875-6 6s2.683594 6 6 6zm0 0"/><path d="m94.882812 191.464844h-20.203124c-3.316407 0-6 2.6875-6 6s2.683593 6 6 6h20.203124c3.3125 0 6-2.6875 6-6s-2.6875-6-6-6zm0 0"/><path d="m122.003906 203.464844h144.832032c3.316406 0 6-2.6875 6-6s-2.683594-6-6-6h-144.832032c-3.316406 0-6 2.6875-6 6s2.683594 6 6 6zm0 0"/><path d="m45.316406 146.480469h2.671875c3.3125 0 6-2.6875 6-6s-2.6875-6-6-6h-2.671875c-3.316406 0-6 2.6875-6 6s2.683594 6 6 6zm0 0"/><path d="m94.882812 134.480469h-20.203124c-3.316407 0-6 2.6875-6 6s2.683593 6 6 6h20.203124c3.3125 0 6-2.6875 6-6s-2.6875-6-6-6zm0 0"/><path d="m122.003906 146.480469h144.832032c3.316406 0 6-2.6875 6-6s-2.683594-6-6-6h-144.832032c-3.316406 0-6 2.6875-6 6s2.683594 6 6 6zm0 0"/><path d="m45.316406 89.5h2.671875c3.3125 0 6-2.6875 6-6s-2.6875-6-6-6h-2.671875c-3.316406 0-6 2.6875-6 6s2.683594 6 6 6zm0 0"/><path d="m94.882812 77.5h-20.203124c-3.316407 0-6 2.6875-6 6s2.683593 6 6 6h20.203124c3.3125 0 6-2.6875 6-6s-2.6875-6-6-6zm0 0"/><path d="m122.003906 89.5h144.832032c3.316406 0 6-2.6875 6-6s-2.683594-6-6-6h-144.832032c-3.316406 0-6 2.6875-6 6s2.683594 6 6 6zm0 0"/><path d="m45.316406 260.449219h2.671875c3.3125 0 6-2.6875 6-6 0-3.316407-2.6875-6-6-6h-2.671875c-3.316406 0-6 2.683593-6 6 0 3.3125 2.683594 6 6 6zm0 0"/><path d="m94.882812 248.449219h-20.203124c-3.316407 0-6 2.683593-6 6 0 3.3125 2.683593 6 6 6h20.203124c3.3125 0 6-2.6875 6-6 0-3.316407-2.6875-6-6-6zm0 0"/><path d="m122.003906 260.449219h87.851563c3.3125 0 6-2.6875 6-6 0-3.316407-2.6875-6-6-6h-87.851563c-3.316406 0-6 2.683593-6 6 0 3.3125 2.683594 6 6 6zm0 0"/><path d="m62.308594 322.550781c6.066406.003907 10.984375 4.921875 10.992187 10.988281 0 3.316407 2.683594 6 6 6 3.3125 0 6-2.683593 6-6-.015625-10.378906-6.972656-19.46875-16.992187-22.191406v-4.132812c0-3.316406-2.683594-6-6-6-3.3125 0-6 2.683594-6 6v4.132812c-11.128906 3.007813-18.308594 13.792969-16.792969 25.21875 1.519531 11.429688 11.265625 19.964844 22.792969 19.964844 6.070312-.03125 11.015625 4.859375 11.046875 10.929688.03125 6.070312-4.863281 11.015624-10.929688 11.046874-.039062 0-.078125-.007812-.117187-.007812-.039063 0-.078125 0-.113282.007812-6.023437-.066406-10.871093-4.964843-10.878906-10.984374 0-3.316407-2.6875-6-6-6-3.316406 0-6 2.683593-6 6 .011719 10.378906 6.972656 19.46875 16.988282 22.191406v4.90625c0 3.316406 2.6875 6 6 6 3.316406 0 6-2.683594 6-6v-4.90625c11.128906-3.007813 18.3125-13.792969 16.792968-25.222656-1.515625-11.425782-11.261718-19.960938-22.792968-19.960938-3.949219.039062-7.617188-2.050781-9.605469-5.464844-1.984375-3.417968-1.984375-7.636718 0-11.050781 1.988281-3.417969 5.65625-5.503906 9.605469-5.464844zm0 0"/><path d="m167.683594 363.226562h-50.714844c-3.316406 0-6 2.6875-6 6s2.683594 6 6 6h50.714844c3.316406 0 6-2.6875 6-6s-2.683594-6-6-6zm0 0"/><path d="m311.660156 252.253906v-86.300781h78.710938c3.316406 0 6-2.683594 6-6v-111.597656c-.027344-25.792969-20.273438-47.03125-46.035156-48.3007815v-.0546875h-295.214844c-30.15625.0351562-54.589844 24.472656-54.625 54.625v393.566406c0 2.308594 1.320312 4.410156 3.398437 5.410156 2.082031.996094 4.546875.71875 6.347657-.722656l33.65625-26.917968 33.652343 26.917968c2.191407 1.753906 5.308594 1.753906 7.5 0l33.644531-26.917968 33.648438 26.917968c2.191406 1.753906 5.308594 1.753906 7.5 0l36.761719-29.410156c25.121093 52.929688 84.804687 79.96875 141.164062 63.953125s92.902344-70.398437 86.4375-128.628906c-6.464843-58.230469-54.046875-103.273438-112.546875-106.539063zm72.710938-203.898437v105.597656h-72.710938v-105.597656c.105469-20.003907 16.351563-36.164063 36.355469-36.164063s36.25 16.160156 36.355469 36.164063zm-194.753906 365.332031-33.527344 26.820312-33.648438-26.917968c-2.191406-1.753906-5.308594-1.753906-7.5 0l-33.648437 26.917968-33.648438-26.917968c-2.191406-1.753906-5.308593-1.753906-7.5 0l-27.648437 22.121094v-381.085938c.027344-23.53125 19.09375-42.597656 42.625-42.625h261.0625c-10.5 9.164062-16.523438 22.417969-16.523438 36.355469v203.832031c-37.925781 1.679688-72.820312 21.210938-94.082031 52.660156-21.261719 31.449219-26.378906 71.105469-13.804687 106.925782zm115.351562 66.3125c-59.628906 0-107.96875-48.339844-107.96875-107.96875s48.339844-107.96875 107.96875-107.96875 107.96875 48.339844 107.964844 107.96875c-.066406 59.601562-48.363282 107.902344-107.964844 107.96875zm0 0"/></svg>