<svg height="496pt" viewBox="-77 0 496 496.73928" width="496pt" xmlns="http://www.w3.org/2000/svg"><path d="m143.21875 255.714844h-39.957031c-3.3125 0-6 2.683594-6 6v39.957031c0 3.3125 2.6875 6 6 6h39.957031c3.316406 0 6-2.6875 6-6v-39.957031c0-3.316406-2.683594-6-6-6zm-6 39.957031h-27.957031v-27.957031h27.957031zm0 0"/><path d="m216.140625 255.714844h-39.957031c-3.316406 0-6 2.683594-6 6v39.957031c0 3.3125 2.683594 6 6 6h39.957031c3.3125 0 6-2.6875 6-6v-39.957031c0-3.316406-2.6875-6-6-6zm-6 39.957031h-27.957031v-27.957031h27.957031zm0 0"/><path d="m76.292969 255.714844h-39.957031c-3.3125 0-6 2.683594-6 6v109.878906c0 3.3125 2.6875 6 6 6h39.957031c3.3125 0 6-2.6875 6-6v-109.878906c0-3.316406-2.6875-6-6-6zm-6 109.878906h-27.957031v-97.878906h27.957031zm0 0"/><path d="m143.21875 325.636719h-39.957031c-3.3125 0-6 2.6875-6 6v39.957031c0 3.3125 2.6875 6 6 6h39.957031c3.316406 0 6-2.6875 6-6v-39.957031c0-3.3125-2.683594-6-6-6zm-6 39.957031h-27.957031v-27.957031h27.957031zm0 0"/><path d="m76.292969 395.5625h-39.957031c-3.3125 0-6 2.6875-6 6v39.957031c0 3.3125 2.6875 6 6 6h39.957031c3.3125 0 6-2.6875 6-6v-39.957031c0-3.3125-2.6875-6-6-6zm-6 39.957031h-27.957031v-27.957031h27.957031zm0 0"/><path d="m143.21875 395.5625h-39.957031c-3.3125 0-6 2.6875-6 6v39.957031c0 3.3125 2.6875 6 6 6h39.957031c3.316406 0 6-2.6875 6-6v-39.957031c0-3.3125-2.683594-6-6-6zm-6 39.957031h-27.957031v-27.957031h27.957031zm0 0"/><path d="m256.269531 100.175781c1.609375.023438 3.160157-.59375 4.308594-1.722656 1.144531-1.128906 1.792969-2.671875 1.792969-4.277344v-58.074219c-.027344-19.929687-16.175782-36.0781245-36.101563-36.101562-.03125 0-.0625 0-.09375 0-.015625 0-.027343 0-.042969 0h-139.851562c-19.851562.0234375-35.941406 16.109375-35.964844 35.964844v84.898437h-33.945312c-8.832032.011719-15.992188 7.167969-16 16v336.605469c.007812 8.832031 7.167968 15.992188 16 16h193.382812c35.238282 14.554688 75.75 6.875 103.21875-19.5625s36.6875-66.621094 23.496094-102.390625c-13.195312-35.769531-46.304688-60.339844-84.363281-62.605469v-168.046875c-.007813-8.832031-7.167969-15.988281-16-16h-33.945313v-21.550781zm-5.898437-64.074219v51.976563l-48.210938-.769531v-51.207032c0-13.3125 10.792969-24.105468 24.105469-24.105468s24.105469 10.792968 24.105469 24.105468zm-188.054688-.136718c.011719-13.230469 10.734375-23.953125 23.964844-23.96875h113.132812c-5.960937 6.609375-9.257812 15.199218-9.253906 24.101562v174.667969h-127.84375zm139.84375 126.863281h7.980469v47.9375h-7.980469zm-159.824218 47.9375v-47.9375h7.980468v47.9375zm288.035156 189.96875c0 46.390625-37.609375 84-84 84-46.394532 0-84-37.609375-84-84 0-46.394531 37.605468-84 84-84 46.367187.054687 83.945312 37.628906 84 84zm-94.265625-267.871094c2.210937 0 4 1.792969 4 4v168.078125c-40.078125 2.605469-74.292969 29.890625-85.75 68.382813-11.457031 38.492187 2.269531 80.046875 34.394531 104.144531h-172.378906c-2.210938 0-4-1.789062-4-4v-336.605469c0-2.207031 1.789062-4 4-4h33.945312v17.964844h-13.980468c-3.3125 0-6 2.6875-6 6v59.9375c0 3.3125 2.6875 6 6 6h179.800781c3.3125 0 6-2.6875 6-6v-59.9375c0-3.3125-2.6875-6-6-6h-13.976563v-17.964844zm0 0"/><path d="m159.855469 71.484375h12.441406c3.316406 0 6-2.683594 6-6 0-3.3125-2.683594-6-6-6h-12.441406c-3.3125 0-6 2.6875-6 6 0 3.316406 2.6875 6 6 6zm0 0"/><path d="m78.242188 71.484375h60.121093c3.3125 0 6-2.683594 6-6 0-3.3125-2.6875-6-6-6h-60.121093c-3.3125 0-6 2.6875-6 6 0 3.316406 2.6875 6 6 6zm0 0"/><path d="m149.871094 190.800781h22.429687c3.3125 0 6-2.6875 6-6 0-3.316406-2.6875-6-6-6h-22.429687c-3.316406 0-6 2.683594-6 6 0 3.3125 2.683594 6 6 6zm0 0"/><path d="m133.230469 178.800781h-3.339844c-3.316406 0-6 2.683594-6 6 0 3.3125 2.683594 6 6 6h3.339844c3.3125 0 6-2.6875 6-6 0-3.316406-2.6875-6-6-6zm0 0"/><path d="m159.855469 41.492188h12.441406c3.316406 0 6-2.683594 6-6 0-3.3125-2.683594-6-6-6h-12.441406c-3.3125 0-6 2.6875-6 6 0 3.316406 2.6875 6 6 6zm0 0"/><path d="m78.242188 41.492188h60.121093c3.3125 0 6-2.683594 6-6 0-3.3125-2.6875-6-6-6h-60.121093c-3.3125 0-6 2.6875-6 6 0 3.316406 2.6875 6 6 6zm0 0"/><path d="m159.855469 101.476562h12.441406c3.316406 0 6-2.683593 6-6 0-3.3125-2.683594-6-6-6h-12.441406c-3.3125 0-6 2.6875-6 6 0 3.316407 2.6875 6 6 6zm0 0"/><path d="m78.242188 101.476562h60.121093c3.3125 0 6-2.683593 6-6 0-3.3125-2.6875-6-6-6h-60.121093c-3.3125 0-6 2.6875-6 6 0 3.316407 2.6875 6 6 6zm0 0"/><path d="m159.855469 131.46875h12.441406c3.316406 0 6-2.683594 6-6 0-3.3125-2.683594-6-6-6h-12.441406c-3.3125 0-6 2.6875-6 6 0 3.316406 2.6875 6 6 6zm0 0"/><path d="m78.242188 131.46875h60.121093c3.3125 0 6-2.683594 6-6 0-3.3125-2.6875-6-6-6h-60.121093c-3.3125 0-6 2.6875-6 6 0 3.316406 2.6875 6 6 6zm0 0"/><path d="m159.855469 161.464844h12.441406c3.316406 0 6-2.6875 6-6 0-3.316406-2.683594-6-6-6h-12.441406c-3.3125 0-6 2.683594-6 6 0 3.3125 2.6875 6 6 6zm0 0"/><path d="m78.242188 161.464844h60.121093c3.3125 0 6-2.6875 6-6 0-3.316406-2.6875-6-6-6h-60.121093c-3.3125 0-6 2.683594-6 6 0 3.3125 2.6875 6 6 6zm0 0"/><path d="m195.929688 389.445312c-1.382813-1.660156-3.550782-2.449218-5.675782-2.0625-2.128906.382813-3.882812 1.882813-4.597656 3.921876-.710938 2.042968-.273438 4.308593 1.152344 5.933593l33.042968 38.695313c2.113282 2.476562 5.820313 2.8125 8.347657.757812l76.957031-62.609375c2.542969-2.097656 2.914062-5.855469.835938-8.414062-2.082032-2.554688-5.835938-2.957031-8.410157-.894531l-72.414062 58.910156zm0 0"/></svg>