<svg height="452pt" viewBox="0 -81 452 452" width="452pt" xmlns="http://www.w3.org/2000/svg"><path d="m36 289.894531h380c19.875-.023437 35.976562-16.128906 36-36v-217.894531c-.023438-19.875-16.125-35.9765625-36-36h-380c-19.871094.0234375-35.9765625 16.128906-36 36v217.894531c.0234375 19.871094 16.128906 35.976563 36 36zm380-12h-380c-13.25-.015625-23.984375-10.75-24-24v-142.472656h428v142.472656c-.015625 13.25-10.75 23.984375-24 24zm-404-178.472656v-34.316406h428v34.316406zm24-87.421875h380c13.25.015625 23.984375 10.75 24 24v17.101562h-428v-17.101562c.015625-13.25 10.75-23.984375 24-24zm0 0"/><path d="m376 185.945312h-300c-3.3125 0-6 2.6875-6 6v50c0 3.316407 2.6875 6 6 6h300c3.3125 0 6-2.683593 6-6v-50c0-3.3125-2.6875-6-6-6zm-294 12h171.789062v38h-171.789062zm288 38h-104.210938v-38h104.210938zm0 0"/><path d="m349.085938 227.945312c6.078124 0 11-4.921874 11-11 0-6.074218-4.921876-11-11-11-6.074219 0-11 4.925782-11 11 .007812 6.074219 4.929687 10.996094 11 11zm0-12c.554687 0 1 .449219 1 1 0 .554688-.445313 1-1 1-.550782 0-1-.445312-1-1 0-.550781.449218-1 1-1zm0 0"/><path d="m317.085938 227.945312c6.078124 0 11-4.921874 11-11 0-6.074218-4.921876-11-11-11-6.074219 0-11 4.925782-11 11 .007812 6.074219 4.929687 10.996094 11 11zm0-12c.554687 0 1 .449219 1 1 0 .554688-.445313 1-1 1-.550782 0-1-.445312-1-1 0-.550781.449218-1 1-1zm0 0"/><path d="m286.085938 227.945312c6.078124 0 11-4.921874 11-11 0-6.074218-4.921876-11-11-11-6.074219 0-11 4.925782-11 11 .007812 6.074219 4.929687 10.996094 11 11zm0-12c.554687 0 1 .449219 1 1 0 .554688-.445313 1-1 1-.550782 0-1-.445312-1-1 0-.550781.449218-1 1-1zm0 0"/></svg>