<svg height="503pt" viewBox="-56 0 503 503.68815" width="503pt" xmlns="http://www.w3.org/2000/svg"><path d="m169.667969 76.054688h62.9375c3.3125 0 6-2.6875 6-6 0-3.316407-2.6875-6-6-6h-62.9375c-3.316407 0-6 2.683593-6 6 0 3.3125 2.683593 6 6 6zm0 0"/><path d="m169.667969 101.476562h62.9375c3.3125 0 6-2.6875 6-6 0-3.316406-2.6875-6-6-6h-62.9375c-3.316407 0-6 2.683594-6 6 0 3.3125 2.683593 6 6 6zm0 0"/><path d="m40.085938 245.660156h2.320312c3.316406 0 6-2.683594 6-6 0-3.3125-2.683594-6-6-6h-2.320312c-3.316407 0-6 2.6875-6 6 0 3.316406 2.683593 6 6 6zm0 0"/><path d="m65.601562 245.660156h17.558594c3.316406 0 6-2.683594 6-6 0-3.3125-2.683594-6-6-6h-17.558594c-3.316406 0-6 2.6875-6 6 0 3.316406 2.683594 6 6 6zm0 0"/><path d="m232.605469 233.660156h-125.875c-3.316407 0-6 2.6875-6 6 0 3.316406 2.683593 6 6 6h125.875c3.3125 0 6-2.683594 6-6 0-3.3125-2.6875-6-6-6zm0 0"/><path d="m40.085938 196.136719h2.320312c3.316406 0 6-2.6875 6-6s-2.683594-6-6-6h-2.320312c-3.316407 0-6 2.6875-6 6s2.683593 6 6 6zm0 0"/><path d="m65.601562 196.136719h17.558594c3.316406 0 6-2.6875 6-6s-2.683594-6-6-6h-17.558594c-3.316406 0-6 2.6875-6 6s2.683594 6 6 6zm0 0"/><path d="m232.605469 184.136719h-125.875c-3.316407 0-6 2.6875-6 6s2.683593 6 6 6h125.875c3.3125 0 6-2.6875 6-6s-2.6875-6-6-6zm0 0"/><path d="m40.085938 305.183594h2.320312c3.316406 0 6-2.683594 6-6 0-3.3125-2.683594-6-6-6h-2.320312c-3.316407 0-6 2.6875-6 6 0 3.316406 2.683593 6 6 6zm0 0"/><path d="m83.160156 293.183594h-17.558594c-3.316406 0-6 2.6875-6 6 0 3.316406 2.683594 6 6 6h17.558594c3.316406 0 6-2.683594 6-6 0-3.3125-2.683594-6-6-6zm0 0"/><path d="m54.953125 406.21875c-.035156 0-.066406 0-.101563 0-.03125 0-.066406 0-.097656 0-4.800781-.0625-8.660156-3.964844-8.667968-8.761719 0-3.316406-2.683594-6-6-6-3.3125 0-6 2.683594-6 6 .015624 9.152344 6.007812 17.21875 14.765624 19.875v3.675781c0 3.3125 2.6875 6 6 6 3.316407 0 6-2.6875 6-6v-3.675781c9.859376-2.976562 16.046876-12.726562 14.542969-22.910156-1.503906-10.1875-10.246093-17.734375-20.542969-17.730469-4.839843 0-8.765624-3.925781-8.765624-8.769531 0-4.839844 3.925781-8.765625 8.765624-8.765625 4.84375 0 8.769532 3.925781 8.769532 8.765625 0 3.3125 2.683594 6 6 6 3.3125 0 6-2.6875 6-6-.015625-9.152344-6.007813-17.21875-14.769532-19.875v-3c0-3.3125-2.683593-6-6-6-3.3125 0-6 2.6875-6 6v3c-9.855468 2.976563-16.042968 12.726563-14.539062 22.910156 1.503906 10.1875 10.246094 17.730469 20.539062 17.734375 4.839844-.03125 8.789063 3.871094 8.816407 8.710938.027343 4.839844-3.875 8.789062-8.714844 8.816406zm0 0"/><path d="m3.742188 482.878906c2.082031 1 4.546874.71875 6.347656-.722656l28.757812-23 28.757813 23c2.191406 1.753906 5.308593 1.753906 7.5 0l28.753906-23 28.75 23c2.191406 1.753906 5.308594 1.753906 7.5 0l29-23.199219c37.066406 43.921875 99.160156 57.191407 150.941406 32.253907 51.777344-24.941407 80.113281-81.761719 68.875-138.125-11.234375-56.363282-59.195312-97.976563-116.582031-101.152344v-245.929688c0-2.308594-1.320312-4.410156-3.402344-5.40625-2.078125-1-4.542968-.71875-6.34375.722656l-28.753906 23-28.757812-23c-2.191407-1.753906-5.308594-1.753906-7.5 0l-28.753907 23-28.75-23c-2.191406-1.753906-5.308593-1.753906-7.5 0l-28.753906 23-28.75-23c-2.191406-1.753906-5.308594-1.753906-7.5 0l-28.734375 23-28.746094-23c-1.800781-1.445312-4.269531-1.726562-6.351562-.730468-2.082032 1-3.402344 3.105468-3.402344 5.414062v471.464844c0 2.308594 1.320312 4.410156 3.398438 5.410156zm375.601562-105.140625c0 62.960938-51.039062 114-114 114s-114-51.039062-114-114c0-62.960937 51.039062-114 114-114 62.929688.070313 113.929688 51.066407 114 114zm-367-359.25 22.746094 18.199219c2.191406 1.757812 5.308594 1.757812 7.5 0l28.746094-23 28.753906 23c2.191406 1.757812 5.304687 1.757812 7.5 0l28.75-23 28.75 23c2.191406 1.757812 5.308594 1.757812 7.5 0l28.753906-23 28.757812 23c2.191407 1.757812 5.308594 1.757812 7.5 0l22.757813-18.199219v233.355469c-33.808594 1.332031-65.652344 16.234375-88.335937 41.339844h-65.292969c-3.316407 0-6 2.6875-6 6 0 3.316406 2.683593 6 6 6h55.65625c-30.503907 43.179687-30.742188 100.824218-.59375 144.25l-25.4375 20.355468-28.75-23c-2.195313-1.757812-5.308594-1.757812-7.5 0l-28.753907 23-28.757812-23c-2.191406-1.757812-5.308594-1.757812-7.5 0l-22.75 18.199219zm0 0"/><path d="m87.578125 367.921875c.011719 11.464844 9.300781 20.753906 20.765625 20.769531 4.839844-.03125 8.785156 3.871094 8.8125 8.710938.03125 4.839844-3.871094 8.789062-8.710938 8.816406-.035156 0-.066406 0-.101562 0-.03125 0-.066406 0-.101562 0-4.796876-.0625-8.65625-3.964844-8.664063-8.761719 0-3.316406-2.6875-6-6-6s-6 2.683594-6 6c.011719 9.152344 6.007813 17.21875 14.765625 19.875v3.675781c0 3.3125 2.6875 6 6 6s6-2.6875 6-6v-3.675781c9.859375-2.976562 16.046875-12.726562 14.542969-22.910156-1.503907-10.1875-10.246094-17.734375-20.542969-17.730469-4.839844 0-8.765625-3.925781-8.765625-8.769531 0-4.839844 3.925781-8.765625 8.765625-8.765625 4.84375 0 8.765625 3.925781 8.765625 8.765625 0 3.3125 2.6875 6 6 6 3.316406 0 6-2.6875 6-6-.011719-9.152344-6.007813-17.21875-14.765625-19.875v-3c0-3.3125-2.6875-6-6-6s-6 2.6875-6 6v3c-8.757812 2.65625-14.753906 10.722656-14.765625 19.875zm0 0"/><path d="m40.085938 152.320312h99.046874c3.3125 0 6-2.6875 6-6v-76.265624c0-3.316407-2.6875-6-6-6h-99.046874c-3.316407 0-6 2.683593-6 6v76.265624c0 3.3125 2.683593 6 6 6zm6-76.265624h87.046874v64.265624h-87.046874zm0 0"/><path d="m169.667969 152.320312h62.9375c3.3125 0 6-2.6875 6-6s-2.6875-6-6-6h-62.9375c-3.316407 0-6 2.6875-6 6s2.683593 6 6 6zm0 0"/><path d="m169.667969 126.898438h62.9375c3.3125 0 6-2.6875 6-6 0-3.316407-2.6875-6-6-6h-62.9375c-3.316407 0-6 2.683593-6 6 0 3.3125 2.683593 6 6 6zm0 0"/><path d="m259.964844 298.996094-23.328125 47.261718-52.15625 7.582032c-2.257813.328125-4.136719 1.910156-4.84375 4.082031-.703125 2.171875-.117188 4.554687 1.519531 6.152344l37.742188 36.789062-8.910157 51.945313c-.382812 2.25.539063 4.519531 2.386719 5.863281 1.84375 1.339844 4.292969 1.519531 6.3125.460937l46.65625-24.527343 46.652344 24.527343c2.019531 1.058594 4.46875.878907 6.3125-.460937 1.847656-1.34375 2.769531-3.613281 2.386718-5.863281l-8.910156-51.945313 37.746094-36.792969c1.636719-1.59375 2.226562-3.976562 1.519531-6.148437s-2.582031-3.757813-4.84375-4.085937l-52.15625-7.578126-23.328125-47.261718c-1.007812-2.046875-3.09375-3.34375-5.378906-3.34375-2.28125 0-4.367188 1.296875-5.378906 3.34375zm24.71875 55.402344c.875 1.769531 2.5625 2.996093 4.519531 3.28125l43.246094 6.285156-31.292969 30.5c-1.414062 1.378906-2.058594 3.363281-1.726562 5.308594l7.386718 43.074218-38.679687-20.335937c-1.75-.917969-3.835938-.917969-5.585938 0l-38.679687 20.335937 7.386718-43.074218c.332032-1.945313-.3125-3.929688-1.726562-5.308594l-31.292969-30.5 43.246094-6.285156c1.957031-.285157 3.644531-1.511719 4.519531-3.28125l19.339844-39.1875zm0 0"/></svg>