<svg height="458pt" viewBox="0 -23 458 458" width="458pt" xmlns="http://www.w3.org/2000/svg"><path d="m137.667969 367.554688h-41.113281c-3.3125 0-6 2.6875-6 6 0 3.316406 2.6875 6 6 6h41.113281c3.3125 0 6-2.683594 6-6 0-3.3125-2.6875-6-6-6zm0 0"/><path d="m326.472656 300.738281c9.9375-.011719 17.988282-8.066406 18-18v-162.382812c-.011718-9.9375-8.0625-17.988281-18-18h-92.25v-66.355469c-.023437-19.871094-16.125-35.9765625-36-36h-162.222656c-19.875.0234375-35.9765625 16.125-36 36v340c.0234375 19.875 16.125 35.976562 36 36h162.222656c19.875-.023438 35.976563-16.128906 36-36v-75.261719zm6-180.382812v25.46875h-10.359375c-3.3125 0-6 2.683593-6 6 0 3.3125 2.6875 6 6 6h10.359375v124.914062c-.003906 3.3125-2.6875 5.996094-6 6h-162.574218v-130.914062h53.882812c3.3125 0 6-2.6875 6-6 0-3.316407-2.6875-6-6-6h-53.882812v-31.46875h162.574218c3.3125.003906 5.996094 2.6875 6 6zm-161.5-18h-7.074218v-9.09375h7.066406zm-7.074218 198.382812h7.066406v7.261719h-7.066406zm-127.898438-288.738281h162.222656c13.25.015625 23.984375 10.75 24 24v6.222656h-210.222656v-6.222656c.015625-13.25 10.75-23.984375 24-24zm162.222656 388h-162.222656c-13.25-.015625-23.984375-10.75-24-24v-28.890625h210.222656v28.890625c-.015625 13.25-10.75 23.984375-24 24zm24-64.890625h-210.222656v-280.886719h210.222656v48.132813h-39.253906v-15.09375c0-3.3125-2.6875-6-6-6h-19.070312c-3.3125 0-6 2.6875-6 6v226.738281c0 3.3125 2.6875 6 6 6h19.066406c3.3125 0 6-2.6875 6-6v-13.261719h39.253906zm0 0"/><path d="m281.371094 204.515625c-4.460938-.003906-8.871094.933594-12.945313 2.753906-13.371093-5.953125-29.082031-2.035156-38.09375 9.5-9.015625 11.535157-9.015625 27.726563 0 39.261719 9.011719 11.535156 24.722657 15.453125 38.09375 9.5 11.875 5.277344 25.765625 2.820312 35.105469-6.210938 9.34375-9.03125 12.269531-22.832031 7.398438-34.875-4.871094-12.046874-16.566407-19.933593-29.558594-19.929687zm-6 31.882813c-.003906 5.796874-2.539063 11.300781-6.945313 15.070312-4.40625-3.765625-6.941406-9.273438-6.941406-15.066406 0-5.796875 2.535156-11.304688 6.941406-15.066406 4.40625 3.765624 6.941407 9.269531 6.945313 15.0625zm-39.773438 0c.011719-10.976563 8.910156-19.871094 19.886719-19.882813.320313 0 .632813.03125.949219.046875-9.265625 11.601562-9.265625 28.074219 0 39.675781-.316406.015625-.628906.046875-.949219.046875-10.976563-.011718-19.871094-8.910156-19.882813-19.886718zm45.773438 19.886718c-.320313 0-.636719-.03125-.949219-.046875 9.265625-11.601562 9.265625-28.074219 0-39.675781.3125-.015625.628906-.046875.949219-.046875 7.136718-.050781 13.753906 3.726563 17.339844 9.902344 3.582031 6.171875 3.582031 13.792969 0 19.964843-3.585938 6.175782-10.203126 9.953126-17.339844 9.902344zm0 0"/><path d="m252.691406 157.824219h53.5c3.3125 0 6-2.6875 6-6 0-3.316407-2.6875-6-6-6h-53.5c-3.3125 0-6 2.683593-6 6 0 3.3125 2.6875 6 6 6zm0 0"/><path d="m233.445312 157.824219h3.9375c3.3125 0 6-2.6875 6-6 0-3.316407-2.6875-6-6-6h-3.9375c-3.316406 0-6 2.683593-6 6 0 3.3125 2.683594 6 6 6zm0 0"/><path d="m283.660156 47.929688c-2.34375-2.34375-6.140625-2.34375-8.484375 0l-16.765625 16.769531c-2.34375 2.34375-2.34375 6.144531 0 8.484375l16.765625 16.769531c2.355469 2.273437 6.097657 2.238281 8.414063-.074219 2.3125-2.3125 2.34375-6.054687.070312-8.410156l-6.523437-6.527344h52.339843c3.316407 0 6-2.683594 6-6 0-3.3125-2.683593-6-6-6h-52.339843l6.523437-6.523437c2.347656-2.34375 2.347656-6.144531 0-8.488281zm0 0"/><path d="m381.664062 74.9375c3.3125 0 6-2.6875 6-6s-2.6875-6-6-6h-.742187c-3.3125 0-6 2.6875-6 6s2.6875 6 6 6zm0 0"/><path d="m367.699219 62.9375h-.484375c-3.3125 0-6 2.6875-6 6s2.6875 6 6 6h.484375c3.316406 0 6-2.6875 6-6s-2.683594-6-6-6zm0 0"/><path d="m348.265625 74.9375c3.3125 0 6-2.6875 6-6s-2.6875-6-6-6h-.226563c-3.316406 0-6 2.6875-6 6s2.683594 6 6 6zm0 0"/><path d="m407.417969 337.0625h-.738281c-3.3125 0-6 2.6875-6 6s2.6875 6 6 6h.738281c3.316406 0 6-2.6875 6-6s-2.683594-6-6-6zm0 0"/><path d="m393.453125 337.0625h-.484375c-3.3125 0-6 2.6875-6 6s2.6875 6 6 6h.484375c3.316406 0 6-2.6875 6-6s-2.683594-6-6-6zm0 0"/><path d="m374.019531 337.0625h-.226562c-3.3125 0-6 2.6875-6 6s2.6875 6 6 6h.226562c3.316407 0 6-2.6875 6-6s-2.683593-6-6-6zm0 0"/><path d="m355.234375 337.0625h-85.878906l6.527343-6.527344c2.289063-2.351562 2.261719-6.105468-.058593-8.425781-2.320313-2.320313-6.074219-2.34375-8.425781-.054687l-16.765626 16.765624c-2.34375 2.34375-2.34375 6.140626 0 8.484376l16.765626 16.765624c2.351562 2.289063 6.109374 2.265626 8.429687-.054687s2.347656-6.074219.058594-8.425781l-6.527344-6.527344h85.875c3.3125 0 6-2.6875 6-6s-2.6875-6-6-6zm0 0"/><path d="m373.011719 164.554688 16.765625 16.765624c2.34375 2.34375 6.140625 2.347657 8.484375.003907s2.347656-6.144531.003906-8.484375l-6.527344-6.527344h12.101563c3.3125 0 6-2.6875 6-6s-2.6875-6-6-6h-12.101563l6.527344-6.527344c2.34375-2.339844 2.339844-6.140625-.003906-8.484375s-6.140625-2.339843-8.484375.003907l-16.765625 16.765624c-2.34375 2.34375-2.34375 6.140626 0 8.484376zm0 0"/><path d="m452 154.3125h-.738281c-3.316407 0-6 2.6875-6 6s2.683593 6 6 6h.738281c3.3125 0 6-2.6875 6-6s-2.6875-6-6-6zm0 0"/><path d="m438.035156 154.3125h-.484375c-3.316406 0-6 2.6875-6 6s2.683594 6 6 6h.484375c3.3125 0 6-2.6875 6-6s-2.6875-6-6-6zm0 0"/><path d="m418.601562 154.3125h-.230468c-3.3125 0-6 2.6875-6 6s2.6875 6 6 6h.230468c3.3125 0 6-2.6875 6-6s-2.6875-6-6-6zm0 0"/><path d="m449.183594 245.6875h-.484375c-3.3125 0-6 2.6875-6 6s2.6875 6 6 6h.488281c3.3125 0 6-2.6875 6-6s-2.6875-6-6-6zm0 0"/><path d="m429.75 245.6875h-.226562c-3.316407 0-6 2.6875-6 6s2.683593 6 6 6h.226562c3.3125 0 6-2.6875 6-6s-2.6875-6-6-6zm0 0"/><path d="m414.984375 245.6875h-36.777344l6.523438-6.527344c2.3125-2.347656 2.296875-6.121094-.035157-8.449218-2.328124-2.328126-6.101562-2.34375-8.449218-.03125l-16.765625 16.765624c-2.34375 2.34375-2.34375 6.140626 0 8.484376l16.765625 16.769531c2.347656 2.3125 6.121094 2.296875 8.449218-.03125 2.332032-2.332031 2.347657-6.101563.035157-8.453125l-6.523438-6.523438h36.777344c3.316406 0 6-2.6875 6-6s-2.683594-6-6-6zm0 0"/></svg>