<svg height="463pt" viewBox="-29 0 463 463.469" width="463pt" xmlns="http://www.w3.org/2000/svg"><path d="m3.636719 453.601562c2.078125 1 4.542969.71875 6.347656-.722656l33.652344-26.917968 33.652343 26.917968c2.195313 1.757813 5.308594 1.757813 7.5 0l33.652344-26.917968 33.644532 26.917968c2.203124 1.761719 5.335937 1.75 7.527343-.023437l39.457031-32 7.246094 4.320312c-3.085937 8.796875-1.714844 18.546875 3.675782 26.152344 5.386718 7.609375 14.128906 12.132813 23.453124 12.140625h.1875l143.273438-.878906c10.421875-.0625 19.992188-5.761719 25.015625-14.894532 5.023437-9.132812 4.707031-20.269531-.820313-29.105468l-72.355468-123.972656c-.035156-.058594-.070313-.117188-.109375-.175782-3.914063-6.246094-10.089844-10.734375-17.238281-12.53125v-115.949218h78.714843c3.3125 0 6-2.6875 6-6v-111.601563c-.03125-25.792969-20.277343-47.035156-46.039062-48.3007812v-.0585938h-295.214844c-30.15625.0351562-54.59375 24.472656-54.625 54.628906v393.566406c0 2.304688 1.320313 4.40625 3.402344 5.40625zm314.796875-152.835937 72.347656 123.960937c.035156.058594.070312.121094.105469.179688 3.25 5.144531 3.453125 11.644531.53125 16.980469-2.921875 5.335937-8.507813 8.671875-14.589844 8.707031l-143.277344.878906h-.109375c-6.0625-.003906-11.652344-3.28125-14.613281-8.574218-2.957031-5.292969-2.824219-11.773438.347656-16.941407.039063-.058593.074219-.117187.105469-.179687l70.820312-124.839844c3.027344-4.898438 8.367188-7.886719 14.121094-7.902344h.105469c5.71875-.015625 11.046875 2.902344 14.109375 7.730469zm65.679687-252.40625v105.597656h-72.714843v-105.597656c.105468-20.007813 16.351562-36.167969 36.355468-36.167969 20.007813 0 36.253906 16.160156 36.359375 36.167969zm-371.878906 6.269531c.027344-23.53125 19.09375-42.601562 42.625-42.625h261.066406c-10.503906 9.160156-16.527343 22.417969-16.527343 36.355469v233.109375c-8.136719 1.386719-15.273438 6.222656-19.570313 13.269531-.035156.058594-.070313.117188-.105469.179688l-67.847656 119.605469-10.257812-6.121094c-2.160157-1.289063-4.898438-1.089844-6.851563.496094l-38.960937 31.589843-33.621094-26.898437c-2.191406-1.753906-5.308594-1.753906-7.5 0l-33.648438 26.917968-33.652344-26.917968c-2.191406-1.753906-5.308593-1.753906-7.5 0l-27.65625 22.121094zm0 0"/><path d="m45.058594 203.464844h2.671875c3.316406 0 6-2.683594 6-6 0-3.3125-2.683594-6-6-6h-2.671875c-3.316406 0-6 2.6875-6 6 0 3.316406 2.683594 6 6 6zm0 0"/><path d="m74.417969 203.464844h20.199219c3.3125 0 6-2.683594 6-6 0-3.3125-2.6875-6-6-6h-20.199219c-3.3125 0-6 2.6875-6 6 0 3.316406 2.6875 6 6 6zm0 0"/><path d="m121.742188 203.464844h144.832031c3.3125 0 6-2.683594 6-6 0-3.3125-2.6875-6-6-6h-144.832031c-3.3125 0-6 2.6875-6 6 0 3.316406 2.6875 6 6 6zm0 0"/><path d="m45.058594 146.484375h2.671875c3.316406 0 6-2.6875 6-6 0-3.316406-2.683594-6-6-6h-2.671875c-3.316406 0-6 2.683594-6 6 0 3.3125 2.683594 6 6 6zm0 0"/><path d="m74.417969 146.484375h20.199219c3.3125 0 6-2.6875 6-6 0-3.316406-2.6875-6-6-6h-20.199219c-3.3125 0-6 2.683594-6 6 0 3.3125 2.6875 6 6 6zm0 0"/><path d="m121.742188 146.484375h144.832031c3.3125 0 6-2.6875 6-6 0-3.316406-2.6875-6-6-6h-144.832031c-3.3125 0-6 2.683594-6 6 0 3.3125 2.6875 6 6 6zm0 0"/><path d="m45.058594 89.5h2.671875c3.316406 0 6-2.6875 6-6 0-3.316406-2.683594-6-6-6h-2.671875c-3.316406 0-6 2.683594-6 6 0 3.3125 2.683594 6 6 6zm0 0"/><path d="m74.417969 89.5h20.199219c3.3125 0 6-2.6875 6-6 0-3.316406-2.6875-6-6-6h-20.199219c-3.3125 0-6 2.683594-6 6 0 3.3125 2.6875 6 6 6zm0 0"/><path d="m121.742188 89.5h144.832031c3.3125 0 6-2.6875 6-6 0-3.316406-2.6875-6-6-6h-144.832031c-3.3125 0-6 2.683594-6 6 0 3.3125 2.6875 6 6 6zm0 0"/><path d="m45.058594 260.449219h2.671875c3.316406 0 6-2.683594 6-6 0-3.3125-2.683594-6-6-6h-2.671875c-3.316406 0-6 2.6875-6 6 0 3.316406 2.683594 6 6 6zm0 0"/><path d="m74.417969 260.449219h20.199219c3.3125 0 6-2.683594 6-6 0-3.3125-2.6875-6-6-6h-20.199219c-3.3125 0-6 2.6875-6 6 0 3.316406 2.6875 6 6 6zm0 0"/><path d="m121.742188 260.449219h87.851562c3.3125 0 6-2.683594 6-6 0-3.3125-2.6875-6-6-6h-87.851562c-3.3125 0-6 2.6875-6 6 0 3.316406 2.6875 6 6 6zm0 0"/><path d="m62.171875 378.507812c-.039063 0-.078125-.003906-.121094-.003906-.039062 0-.078125 0-.121093.003906-6.015626-.070312-10.859376-4.964843-10.867188-10.984374 0-3.3125-2.6875-6-6-6-3.316406 0-6 2.6875-6 6 .011719 10.382812 6.972656 19.472656 16.988281 22.191406v4.910156c0 3.3125 2.6875 6 6 6 3.316407 0 6-2.6875 6-6v-4.910156c11.128907-3.007813 18.308594-13.792969 16.789063-25.21875-1.515625-11.425782-11.261719-19.960938-22.789063-19.964844-6.070312 0-10.988281-4.917969-10.988281-10.988281 0-6.070313 4.917969-10.992188 10.988281-10.992188 6.070313 0 10.992188 4.921875 10.992188 10.992188 0 3.3125 2.6875 6 6 6s6-2.6875 6-6c-.015625-10.382813-6.972657-19.46875-16.992188-22.191407v-4.136718c0-3.3125-2.683593-6-6-6-3.3125 0-6 2.6875-6 6v4.136718c-11.128906 3.007813-18.308593 13.792969-16.789062 25.21875 1.515625 11.425782 11.261719 19.964844 22.789062 19.960938 6.070313-.03125 11.015625 4.859375 11.050781 10.929688.03125 6.066406-4.859374 11.015624-10.929687 11.046874zm0 0"/><path d="m116.707031 375.230469h50.71875c3.3125 0 6-2.6875 6-6 0-3.316407-2.6875-6-6-6h-50.71875c-3.3125 0-6 2.683593-6 6 0 3.3125 2.6875 6 6 6zm0 0"/><path d="m298.5 338.507812.378906 61.441407c.019532 3.300781 2.699219 5.960937 6 5.960937h.039063c3.3125-.019531 5.980469-2.722656 5.960937-6.035156l-.375-61.441406c-.023437-3.3125-2.722656-5.984375-6.039062-5.964844-3.3125.019531-5.984375 2.722656-5.960938 6.039062zm0 0"/><path d="m305.003906 414.238281h-.039062c-3.3125.019531-5.984375 2.722657-5.960938 6.035157l.035156 5.839843c.019532 3.300781 2.699219 5.960938 6 5.960938h.039063c3.3125-.019531 5.980469-2.722657 5.960937-6.035157l-.035156-5.839843c-.019531-3.300781-2.703125-5.960938-6-5.960938zm0 0"/></svg>