<svg height="489pt" viewBox="-113 0 489 489.47" width="489pt" xmlns="http://www.w3.org/2000/svg"><path d="m26.214844 489.46875h199.777344c14.339843-.015625 25.960937-11.636719 25.980468-25.976562v-316.652344c-.019531-14.339844-11.640625-25.960938-25.980468-25.976563h-23.964844v-21.550781l54.113281.863281c1.605469.023438 3.160156-.59375 4.304687-1.722656 1.148438-1.128906 1.792969-2.671875 1.792969-4.277344v-58.074219c-.023437-19.929687-16.171875-36.0781245-36.097656-36.101562h-139.992187c-19.855469.0234375-35.945313 16.109375-35.96875 35.964844v84.898437h-23.964844c-14.34375.015625-25.964844 11.636719-25.980469 25.976563v316.652344c.015625 14.339843 11.636719 25.960937 25.980469 25.976562zm175.8125-326.636719h7.976562v47.933594h-7.976562zm48.207031-126.730469v51.976563l-48.207031-.769531v-51.207032c0-13.3125 10.789062-24.105468 24.101562-24.105468s24.105469 10.792968 24.105469 24.105468zm-188.054687-.136718c.015624-13.234375 10.738281-23.953125 23.96875-23.96875h113.128906c-5.960938 6.609375-9.257813 15.199218-9.25 24.101562v174.667969h-127.847656zm-19.976563 174.796875v-47.929688h7.976563v47.933594zm-29.96875-63.921875c.007813-7.714844 6.261719-13.96875 13.980469-13.976563h23.964844v17.96875h-13.976563c-3.316406 0-6 2.6875-6 6v59.933594c0 3.316406 2.683594 6 6 6h179.800781c3.3125 0 6-2.683594 6-6v-59.933594c0-3.3125-2.6875-6-6-6h-13.976562v-17.96875h23.964844c7.71875.007813 13.96875 6.261719 13.980468 13.976563v316.652344c-.011718 7.714843-6.261718 13.96875-13.980468 13.976562h-199.777344c-7.71875-.007812-13.972656-6.261719-13.980469-13.976562zm0 0"/><path d="m36.203125 307.671875h39.953125c3.316406 0 6-2.6875 6-6v-39.957031c0-3.316406-2.683594-6-6-6h-39.953125c-3.316406 0-6 2.683594-6 6v39.957031c0 3.3125 2.683594 6 6 6zm6-39.957031h27.953125v27.957031h-27.953125zm0 0"/><path d="m103.128906 307.671875h39.957032c3.3125 0 6-2.6875 6-6v-39.957031c0-3.316406-2.6875-6-6-6h-39.957032c-3.3125 0-6 2.683594-6 6v39.957031c0 3.3125 2.6875 6 6 6zm6-39.957031h27.957032v27.957031h-27.957032zm0 0"/><path d="m176.046875 307.671875h39.957031c3.3125 0 6-2.6875 6-6v-39.957031c0-3.316406-2.6875-6-6-6h-39.957031c-3.3125 0-6 2.683594-6 6v39.957031c0 3.3125 2.6875 6 6 6zm6-39.957031h27.957031v27.957031h-27.957031zm0 0"/><path d="m36.203125 377.59375h39.953125c3.316406 0 6-2.6875 6-6v-39.960938c0-3.3125-2.683594-6-6-6h-39.953125c-3.316406 0-6 2.6875-6 6v39.960938c0 3.3125 2.683594 6 6 6zm6-39.957031h27.953125v27.957031h-27.953125zm0 0"/><path d="m103.128906 377.59375h39.957032c3.3125 0 6-2.6875 6-6v-39.960938c0-3.3125-2.6875-6-6-6h-39.957032c-3.3125 0-6 2.6875-6 6v39.960938c0 3.3125 2.6875 6 6 6zm6-39.957031h27.957032v27.957031h-27.957032zm0 0"/><path d="m176.046875 377.59375h39.957031c3.3125 0 6-2.6875 6-6v-39.960938c0-3.3125-2.6875-6-6-6h-39.957031c-3.3125 0-6 2.6875-6 6v39.960938c0 3.3125 2.6875 6 6 6zm6-39.957031h27.957031v27.957031h-27.957031zm0 0"/><path d="m36.203125 447.515625h39.953125c3.316406 0 6-2.6875 6-6v-39.953125c0-3.316406-2.683594-6-6-6h-39.953125c-3.316406 0-6 2.683594-6 6v39.953125c0 3.3125 2.683594 6 6 6zm6-39.953125h27.953125v27.953125h-27.953125zm0 0"/><path d="m103.128906 447.515625h39.957032c3.3125 0 6-2.6875 6-6v-39.953125c0-3.316406-2.6875-6-6-6h-39.957032c-3.3125 0-6 2.683594-6 6v39.953125c0 3.3125 2.6875 6 6 6zm6-39.953125h27.957032v27.953125h-27.957032zm0 0"/><path d="m176.046875 447.515625h39.957031c3.3125 0 6-2.6875 6-6v-39.953125c0-3.316406-2.6875-6-6-6h-39.957031c-3.3125 0-6 2.683594-6 6v39.953125c0 3.3125 2.6875 6 6 6zm6-39.953125h27.957031v27.953125h-27.957031zm0 0"/><path d="m93.105469 180.117188c-.035157 0-.070313 0-.105469 0s-.070312 0-.105469 0c-4.867187-.0625-8.78125-4.019532-8.785156-8.886719 0-3.3125-2.6875-6-6-6-3.316406 0-6 2.6875-6 6 .015625 9.21875 6.0625 17.34375 14.890625 20v3.746093c0 3.316407 2.6875 6 6 6s6-2.683593 6-6v-3.742187c9.9375-2.972656 16.1875-12.785156 14.679688-23.046875-1.503907-10.257812-10.308594-17.863281-20.679688-17.855469-4.910156 0-8.890625-3.980469-8.890625-8.890625s3.980469-8.890625 8.890625-8.890625 8.890625 3.980469 8.890625 8.890625c0 3.3125 2.6875 6 6 6 3.316406 0 6-2.6875 6-6-.015625-9.21875-6.0625-17.34375-14.890625-20v-3.070312c0-3.316406-2.6875-6-6-6s-6 2.683594-6 6v3.070312c-9.9375 2.96875-16.191406 12.78125-14.6875 23.042969 1.507812 10.265625 10.316406 17.867187 20.6875 17.855469 4.878906.015625 8.835938 3.957031 8.863281 8.839844.03125 4.878906-3.878906 8.867187-8.757812 8.941406zm0 0"/><path d="m159.722656 71.460938h12.441406c3.3125 0 6-2.683594 6-6 0-3.3125-2.6875-6-6-6h-12.441406c-3.3125 0-6 2.6875-6 6 0 3.316406 2.6875 6 6 6zm0 0"/><path d="m78.109375 71.460938h60.117187c3.3125 0 6-2.683594 6-6 0-3.3125-2.6875-6-6-6h-60.117187c-3.316406 0-6 2.6875-6 6 0 3.316406 2.683594 6 6 6zm0 0"/><path d="m149.734375 190.800781h22.429687c3.316407 0 6-2.6875 6-6 0-3.316406-2.683593-6-6-6h-22.429687c-3.3125 0-6 2.683594-6 6 0 3.3125 2.6875 6 6 6zm0 0"/><path d="m133.09375 178.800781h-3.339844c-3.3125 0-6 2.683594-6 6 0 3.3125 2.6875 6 6 6h3.339844c3.316406 0 6-2.6875 6-6 0-3.316406-2.683594-6-6-6zm0 0"/><path d="m78.109375 101.433594h60.117187c3.3125 0 6-2.6875 6-6s-2.6875-6-6-6h-60.117187c-3.316406 0-6 2.6875-6 6s2.683594 6 6 6zm0 0"/><path d="m159.722656 41.496094h12.441406c3.3125 0 6-2.6875 6-6 0-3.316406-2.6875-6-6-6h-12.441406c-3.3125 0-6 2.683594-6 6 0 3.3125 2.6875 6 6 6zm0 0"/><path d="m78.109375 41.496094h60.117187c3.3125 0 6-2.6875 6-6 0-3.316406-2.6875-6-6-6h-60.117187c-3.316406 0-6 2.683594-6 6 0 3.3125 2.683594 6 6 6zm0 0"/></svg>