<svg height="491pt" viewBox="-33 0 491 491.99208" width="491pt" xmlns="http://www.w3.org/2000/svg"><path d="m45.316406 203.464844h2.671875c3.316407 0 6-2.6875 6-6s-2.683593-6-6-6h-2.671875c-3.3125 0-6 2.6875-6 6s2.6875 6 6 6zm0 0"/><path d="m94.882812 191.464844h-20.203124c-3.3125 0-6 2.6875-6 6s2.6875 6 6 6h20.203124c3.316407 0 6-2.6875 6-6s-2.683593-6-6-6zm0 0"/><path d="m122.003906 203.464844h144.835938c3.3125 0 6-2.6875 6-6s-2.6875-6-6-6h-144.835938c-3.316406 0-6 2.6875-6 6s2.683594 6 6 6zm0 0"/><path d="m45.316406 146.480469h2.671875c3.316407 0 6-2.6875 6-6s-2.683593-6-6-6h-2.671875c-3.3125 0-6 2.6875-6 6s2.6875 6 6 6zm0 0"/><path d="m94.882812 134.480469h-20.203124c-3.3125 0-6 2.6875-6 6s2.6875 6 6 6h20.203124c3.316407 0 6-2.6875 6-6s-2.683593-6-6-6zm0 0"/><path d="m122.003906 146.480469h144.835938c3.3125 0 6-2.6875 6-6s-2.6875-6-6-6h-144.835938c-3.316406 0-6 2.6875-6 6s2.683594 6 6 6zm0 0"/><path d="m45.316406 89.5h2.671875c3.316407 0 6-2.6875 6-6s-2.683593-6-6-6h-2.671875c-3.3125 0-6 2.6875-6 6s2.6875 6 6 6zm0 0"/><path d="m94.882812 77.5h-20.203124c-3.3125 0-6 2.6875-6 6s2.6875 6 6 6h20.203124c3.316407 0 6-2.6875 6-6s-2.683593-6-6-6zm0 0"/><path d="m122.003906 89.5h144.835938c3.3125 0 6-2.6875 6-6s-2.6875-6-6-6h-144.835938c-3.316406 0-6 2.6875-6 6s2.683594 6 6 6zm0 0"/><path d="m45.316406 260.449219h2.671875c3.316407 0 6-2.6875 6-6 0-3.316407-2.683593-6-6-6h-2.671875c-3.3125 0-6 2.683593-6 6 0 3.3125 2.6875 6 6 6zm0 0"/><path d="m94.882812 248.449219h-20.203124c-3.3125 0-6 2.683593-6 6 0 3.3125 2.6875 6 6 6h20.203124c3.316407 0 6-2.6875 6-6 0-3.316407-2.683593-6-6-6zm0 0"/><path d="m122.003906 260.449219h87.851563c3.3125 0 6-2.6875 6-6 0-3.316407-2.6875-6-6-6h-87.851563c-3.316406 0-6 2.683593-6 6 0 3.3125 2.683594 6 6 6zm0 0"/><path d="m62.308594 322.550781c6.070312.003907 10.988281 4.921875 10.992187 10.988281 0 3.316407 2.6875 6 6 6s6-2.683593 6-6c-.015625-10.378906-6.972656-19.46875-16.992187-22.191406v-4.132812c0-3.316406-2.683594-6-6-6-3.3125 0-6 2.683594-6 6v4.132812c-11.128906 3.007813-18.308594 13.792969-16.789063 25.21875 1.515625 11.429688 11.261719 19.964844 22.789063 19.964844 6.070312-.035156 11.015625 4.859375 11.050781 10.925781.03125 6.070313-4.859375 11.015625-10.929687 11.050781-.039063 0-.078126-.007812-.121094-.007812-.039063 0-.078125 0-.121094.007812-6.019531-.070312-10.863281-4.964843-10.871094-10.984374 0-3.316407-2.6875-6-6-6s-6 2.683593-6 6c.011719 10.378906 6.972656 19.46875 16.992188 22.191406v4.90625c0 3.316406 2.683594 6 6 6 3.3125 0 6-2.683594 6-6v-4.90625c11.125-3.007813 18.304687-13.792969 16.789062-25.21875-1.519531-11.429688-11.261718-19.964844-22.789062-19.964844-6.070313 0-10.992188-4.921875-10.992188-10.992188 0-6.070312 4.921875-10.988281 10.992188-10.988281zm0 0"/><path d="m167.6875 363.226562h-50.71875c-3.3125 0-6 2.6875-6 6s2.6875 6 6 6h50.71875c3.3125 0 6-2.6875 6-6s-2.6875-6-6-6zm0 0"/><path d="m311.660156 252.257812v-86.300781h78.710938c3.316406 0 6-2.6875 6-6v-111.601562c-.027344-25.792969-20.273438-47.03125-46.035156-48.3007815v-.0546875h-295.214844c-30.152344.0351562-54.589844 24.472656-54.625 54.625v393.566406c0 2.308594 1.320312 4.410156 3.402344 5.410156 2.078124.996094 4.542968.71875 6.34375-.722656l33.65625-26.917968 33.652343 26.917968c2.191407 1.753906 5.308594 1.753906 7.5 0l33.648438-26.917968 33.648437 26.917968c2.191406 1.753906 5.308594 1.753906 7.5 0l36.761719-29.410156c25.125 52.929688 84.804687 79.96875 141.164063 63.953125 56.359374-16.015625 92.90625-70.398437 86.4375-128.628906-6.464844-58.234375-54.050782-103.277344-112.550782-106.535157zm72.710938-203.902343v105.601562h-72.710938v-105.601562c.105469-20.003907 16.351563-36.164063 36.355469-36.164063 20.007813 0 36.253906 16.160156 36.355469 36.164063zm-194.753906 365.332031-33.527344 26.820312-33.648438-26.917968c-2.191406-1.753906-5.304687-1.753906-7.5 0l-33.644531 26.917968-33.652344-26.917968c-2.191406-1.753906-5.304687-1.753906-7.5 0l-27.648437 22.121094v-381.085938c.027344-23.53125 19.09375-42.597656 42.625-42.625h261.066406c-10.503906 9.164062-16.527344 22.417969-16.527344 36.355469v203.835937c-37.925781 1.675782-72.820312 21.203125-94.082031 52.65625-21.261719 31.449219-26.378906 71.105469-13.800781 106.925782zm115.351562 66.3125c-59.628906 0-107.964844-48.339844-107.964844-107.96875 0-59.625 48.335938-107.964844 107.964844-107.964844s107.96875 48.339844 107.96875 107.964844c-.070312 59.601562-48.367188 107.902344-107.96875 107.96875zm0 0"/><path d="m301.785156 284.191406-57.238281 49.058594c-.3125.222656-.601563.46875-.867187.742188l-17.613282 15.101562c-1.660156 1.386719-2.449218 3.558594-2.058594 5.683594.386719 2.128906 1.890626 3.882812 3.933594 4.589844 2.042969.710937 4.308594.265624 5.929688-1.164063l8.125-6.960937v84.078124c0 3.3125 2.6875 6 6 6h113.945312c3.3125 0 6-2.6875 6-6v-84.214843l8.078125 7.0625c2.496094 2.179687 6.289063 1.925781 8.46875-.570313 2.183594-2.492187 1.929688-6.285156-.566406-8.464844l-74.28125-64.902343c-2.242187-1.964844-5.589844-1.980469-7.855469-.039063zm54.15625 145.128906h-101.945312v-88.363281l51.65625-44.277343 50.289062 43.941406zm0 0"/></svg>