<svg height="491pt" viewBox="-33 0 491 491.99208" width="491pt" xmlns="http://www.w3.org/2000/svg"><path d="m77.550781 452.878906c2.191407 1.753906 5.308594 1.753906 7.5 0l33.648438-26.917968 33.648437 26.917968c2.191406 1.753906 5.308594 1.753906 7.5 0l36.761719-29.410156c25.125 52.929688 84.804687 79.96875 141.164063 63.953125 56.359374-16.015625 92.90625-70.398437 86.4375-128.628906-6.464844-58.234375-54.050782-103.277344-112.550782-106.535157v-86.300781h78.710938c3.316406 0 6-2.6875 6-6v-111.601562c-.027344-25.792969-20.273438-47.03125-46.035156-48.3007815v-.0546875h-295.214844c-30.152344.0351562-54.589844 24.472656-54.625 54.625v393.566406c0 2.308594 1.320312 4.410156 3.402344 5.410156 2.078124.996094 4.542968.71875 6.34375-.722656l33.65625-26.917968zm335.386719-80.847656c0 59.632812-48.339844 107.96875-107.96875 107.972656-59.628906 0-107.96875-48.339844-107.96875-107.96875s48.339844-107.96875 107.96875-107.96875c59.601562.066406 107.898438 48.367188 107.96875 107.964844zm-28.566406-323.675781v105.601562h-72.710938v-105.601562c.105469-20.003907 16.351563-36.164063 36.355469-36.164063 20.007813 0 36.253906 16.160156 36.355469 36.164063zm-371.875 387.355469v-381.085938c.027344-23.53125 19.09375-42.597656 42.625-42.625h261.066406c-10.503906 9.164062-16.527344 22.417969-16.527344 36.355469v203.835937c-37.925781 1.675782-72.820312 21.203125-94.082031 52.65625-21.261719 31.449219-26.378906 71.105469-13.800781 106.925782l-2.160156 1.914062-33.527344 26.820312-33.644532-26.917968c-2.191406-1.753906-5.308593-1.753906-7.5 0l-33.648437 26.917968-33.652344-26.917968c-2.191406-1.753906-5.304687-1.753906-7.5 0zm0 0"/><path d="m45.316406 203.464844h2.671875c3.316407 0 6-2.6875 6-6s-2.683593-6-6-6h-2.671875c-3.3125 0-6 2.6875-6 6s2.6875 6 6 6zm0 0"/><path d="m74.679688 203.464844h20.203124c3.316407 0 6-2.6875 6-6s-2.683593-6-6-6h-20.203124c-3.3125 0-6 2.6875-6 6s2.6875 6 6 6zm0 0"/><path d="m122.003906 203.464844h144.835938c3.3125 0 6-2.6875 6-6s-2.6875-6-6-6h-144.835938c-3.316406 0-6 2.6875-6 6s2.683594 6 6 6zm0 0"/><path d="m45.316406 146.480469h2.671875c3.316407 0 6-2.6875 6-6s-2.683593-6-6-6h-2.671875c-3.3125 0-6 2.6875-6 6s2.6875 6 6 6zm0 0"/><path d="m74.679688 146.480469h20.203124c3.316407 0 6-2.6875 6-6s-2.683593-6-6-6h-20.203124c-3.3125 0-6 2.6875-6 6s2.6875 6 6 6zm0 0"/><path d="m122.003906 146.480469h144.835938c3.3125 0 6-2.6875 6-6s-2.6875-6-6-6h-144.835938c-3.316406 0-6 2.6875-6 6s2.683594 6 6 6zm0 0"/><path d="m45.316406 89.5h2.671875c3.316407 0 6-2.6875 6-6s-2.683593-6-6-6h-2.671875c-3.3125 0-6 2.6875-6 6s2.6875 6 6 6zm0 0"/><path d="m74.679688 89.5h20.203124c3.316407 0 6-2.6875 6-6s-2.683593-6-6-6h-20.203124c-3.3125 0-6 2.6875-6 6s2.6875 6 6 6zm0 0"/><path d="m122.003906 89.5h144.835938c3.3125 0 6-2.6875 6-6s-2.6875-6-6-6h-144.835938c-3.316406 0-6 2.6875-6 6s2.683594 6 6 6zm0 0"/><path d="m45.316406 260.449219h2.671875c3.316407 0 6-2.6875 6-6 0-3.316407-2.683593-6-6-6h-2.671875c-3.3125 0-6 2.683593-6 6 0 3.3125 2.6875 6 6 6zm0 0"/><path d="m74.679688 260.449219h20.203124c3.316407 0 6-2.6875 6-6 0-3.316407-2.683593-6-6-6h-20.203124c-3.3125 0-6 2.683593-6 6 0 3.3125 2.6875 6 6 6zm0 0"/><path d="m122.003906 260.449219h87.851563c3.3125 0 6-2.6875 6-6 0-3.316407-2.6875-6-6-6h-87.851563c-3.316406 0-6 2.683593-6 6 0 3.3125 2.683594 6 6 6zm0 0"/><path d="m56.308594 389.714844v4.90625c0 3.316406 2.6875 6 6 6 3.316406 0 6-2.683594 6-6v-4.90625c11.128906-3.007813 18.308594-13.792969 16.789062-25.21875-1.515625-11.429688-11.261718-19.964844-22.789062-19.964844-6.070313 0-10.992188-4.921875-10.992188-10.992188 0-6.070312 4.921875-10.992187 10.992188-10.988281 6.070312 0 10.992187 4.917969 10.992187 10.988281 0 3.316407 2.6875 6 6 6s6-2.683593 6-6c-.015625-10.378906-6.972656-19.46875-16.992187-22.191406v-4.132812c0-3.316406-2.683594-6-6-6-3.3125 0-6 2.683594-6 6v4.132812c-11.128906 3.007813-18.308594 13.792969-16.789063 25.21875 1.515625 11.429688 11.261719 19.964844 22.789063 19.964844 6.070312-.035156 11.015625 4.859375 11.050781 10.925781.03125 6.070313-4.859375 11.015625-10.929687 11.050781-.039063 0-.078126-.007812-.121094-.007812-.039063 0-.078125 0-.121094.007812-6.019531-.070312-10.863281-4.964843-10.871094-10.984374 0-3.316407-2.6875-6-6-6s-6 2.683593-6 6c.015625 10.382812 6.972656 19.46875 16.992188 22.191406zm0 0"/><path d="m116.96875 375.226562h50.71875c3.3125 0 6-2.6875 6-6s-2.6875-6-6-6h-50.71875c-3.3125 0-6 2.6875-6 6s2.6875 6 6 6zm0 0"/><path d="m288.355469 320.949219c.050781 16.199219 9.25 30.984375 23.761719 38.1875v80.984375c.074218 10.328125 8.464843 18.660156 18.792968 18.660156s18.71875-8.332031 18.792969-18.660156v-80.984375c14.515625-7.203125 23.714844-21.988281 23.765625-38.1875.050781-16.15625-9.09375-30.9375-23.574219-38.101563-1.859375-.929687-4.066406-.828125-5.835937.265625-1.765625 1.09375-2.84375 3.023438-2.84375 5.101563v17.753906l-10.121094 6.738281-10.492188-7.339843.058594-17.152344c.011719-2.082032-1.058594-4.023438-2.828125-5.125-1.769531-1.101563-3.980469-1.203125-5.847656-.277344-14.515625 7.152344-23.6875 21.953125-23.628906 38.136719zm20.265625-20.941407-.027344 8.460938c-.007812 1.964844.949219 3.808594 2.558594 4.9375l16.417968 11.484375c2.023438 1.417969 4.710938 1.449219 6.765626.078125l16.199218-10.789062c1.671875-1.113282 2.675782-2.988282 2.675782-4.996094v-9.15625c6.980468 7.464844 9.773437 17.925781 7.445312 27.878906-2.332031 9.953125-9.480469 18.085938-19.054688 21.671875-2.34375.878906-3.898437 3.117187-3.898437 5.621094v84.921875c-.046875 3.722656-3.074219 6.714844-6.792969 6.714844-3.722656 0-6.75-2.992188-6.796875-6.714844v-84.921875c0-2.503907-1.554687-4.742188-3.898437-5.621094-9.578125-3.589844-16.726563-11.726563-19.058594-21.683594-2.328125-9.960937.472656-20.421875 7.464844-27.886719zm0 0"/><path d="m289.523438 374.25h-16.5v-85.25c0-3.3125-2.6875-6-6-6s-6 2.6875-6 6v85.25h-18.554688c-3.3125 0-6 2.6875-6 6s2.6875 6 6 6h3.789062l-5.976562 20.785156c-.15625.539063-.234375 1.097656-.234375 1.65625v32.507813c.011719 11.410156 9.257813 20.660156 20.667969 20.671875h11.738281c11.410156-.007813 20.660156-9.257813 20.671875-20.671875v-32.507813c0-.5625-.078125-1.121094-.234375-1.660156l-5.972656-20.78125h2.605469c3.3125 0 6-2.6875 6-6s-2.6875-6-6-6zm-8.402344 35.289062v31.660157c-.003906 4.789062-3.882813 8.667969-8.667969 8.671875h-11.738281c-4.785156-.003906-8.664063-3.882813-8.667969-8.671875v-31.660157l6.691406-23.289062h15.6875zm0 0"/></svg>